<svg xmlns="http://www.w3.org/2000/svg" viewBox="0 0 449.95 131.05"><g id="Layer_2" data-name="Layer 2"><g id="Layer_1-2" data-name="Layer 1"><g id="GLcMEY"><path d="M50.68,88.24c-1.4,5.1-2.6,9.7-3.9,14.4L40.48,126c-.6,2.3-1.4,3-3.9,3H23.18c-3,0-3.9-.7-4.8-3.6-1.6-5-3.3-10.1-4.9-15.1-4.4-13.5-8.8-26.9-13.1-40.4,0-.1-.1-.2-.1-.4-.8-2.7.1-3.9,2.9-4h11.5c2.6,0,3.5.6,4.2,3.1,3.5,12.6,7,25.2,10.5,37.9a6.12,6.12,0,0,0,.7,1.7c.8-2.7,1.5-5.4,2.3-8.2,3-10.6,5.9-21.3,8.9-31.9.5-1.9,1.3-2.6,3.3-2.6h13.7c2,0,3,.8,3.5,2.9,3.5,13,7,26,10.4,38.9.1.3.2.6.4,1.1.4-1.3.7-2.3,1-3.3,3.5-12,7-24,10.4-36,.7-2.4,1.8-3.3,4.3-3.3H98c3.1,0,4.1,1.3,3.1,4.2-6.1,18.4-12.1,36.9-18.2,55.3-.9,2.6-2,3.5-4.7,3.5H65.38c-2.9,0-4-.9-4.8-3.6-3.2-12-6.4-24-9.7-36C51,89.14,50.88,88.84,50.68,88.24Z"/><path d="M377.68,117.84a15.53,15.53,0,0,1-8.2,11c-5.6,2.9-11.3,2.8-16.6-.6-5.5-3.5-7.9-8.8-7.5-15.3a1.71,1.71,0,0,0-1.1-2,53.64,53.64,0,0,1-22.7-21.8,25.66,25.66,0,0,1-2.3-6c-.7-2.9.4-4.3,3.4-4.6,3.6-.4,6.8-1.8,8.4-5.2a12.16,12.16,0,0,0,1.1-5c.2-4.3,0-8.6.2-12.9A57.33,57.33,0,0,1,353,14.24,57.24,57.24,0,0,1,393.48,0c26.7,1,49.6,19.8,55,46.1,4.9,23.8-2.5,43.7-21.4,59.2a33.2,33.2,0,0,1-3.6,2.6c-.7.5-.9.9-.6,1.7a16.38,16.38,0,1,1-31.4,9.3c-.1-.4-.6-.9-.9-.9C386.38,117.74,382.08,117.84,377.68,117.84Zm.2-6.7c4.5,0,9,.2,13.5-.1a64.78,64.78,0,0,0,12.4-1.6c31.8-7.8,48.8-42.9,34.9-72.6-8.4-17.9-22.8-28.1-42.5-30.2-15.1-1.6-28.6,2.9-40,13.1a50.73,50.73,0,0,0-17.4,37.8c-.1,3.5,0,7.1,0,10.6a16.09,16.09,0,0,1-11.7,15.8c-.1,0-.3.2-.4.2,2.8,7.4,14.2,18.3,21.3,21A16.6,16.6,0,0,1,377.88,111.14Z"/><path d="M155.18,72.94v-4.4q0-3.3,3.3-3.3h10.1c2.4,0,3.4,1,3.4,3.4v56.5c0,2.7-.8,3.5-3.5,3.5h-10.1c-2.3,0-3.2-.9-3.2-3.2v-3.9a20.24,20.24,0,0,1-6.9,6.2A27.47,27.47,0,0,1,129,130a32.22,32.22,0,0,1-25.2-28.8c-.9-9.6,1.1-18.3,7.2-26,8.5-10.6,24.5-14.6,36.4-9C150.48,67.84,152.18,69.24,155.18,72.94Zm-17,42c9.6,0,17-7.7,17.1-17.7s-7.3-17.7-17-17.7a17,17,0,0,0-17.2,17C121.08,107.14,128.28,114.94,138.18,114.94Z"/><path d="M258.38,101.14a15.69,15.69,0,0,0,12.4,14.3c7.2,1.6,13.5-.1,18.7-5.5,1.9-2,2.9-2.1,5.1-.5s4.5,3.1,6.8,4.7c1.8,1.3,2.1,2.8.8,4.6a27.7,27.7,0,0,1-14.8,10.3c-8.4,2.5-16.8,2.7-25.1-.3-11.5-4.2-18.4-12.5-20.8-24.4-1.8-9-.5-17.6,4.6-25.3a32.08,32.08,0,0,1,23.2-14.8c8.6-1.2,16.8.1,24.1,5,8.9,6,13.3,14.4,13.3,25.1v3.8c0,2.2-.8,3-3,3h-45.3Zm32.2-10.5c-.8-7.8-8.1-13.7-16.2-13.4-8.3.3-14.3,7.2-14.9,13.4Z"/><path d="M214.18,80.14H186a3.05,3.05,0,0,1-3-3.2v-8.6c0-2.1.8-3,3-3h47.1a5.39,5.39,0,0,1,3,1,3.25,3.25,0,0,1,1,2.2c.1,2.3,0,4.6.1,7a6.53,6.53,0,0,1-1.8,4.9c-5.2,5.6-10.2,11.4-15.3,17.1-4.7,5.3-9.4,10.5-14,15.8-.4.4-.7.8-1.2,1.4H235c2.4,0,3.4,1,3.4,3.4v8.2c0,2-.9,2.9-2.9,2.9H185c-2.3,0-3.5-1.2-3.5-3.5v-6.8a5.37,5.37,0,0,1,1.5-3.8l30.6-33.9A2.38,2.38,0,0,1,214.18,80.14Z"/><path d="M399,85c-11.8-.6-19.6-5.3-24.6-14.7a3.35,3.35,0,0,1,2.2-5.1c1.4-.3,2.7.7,3.7,2.3a29.73,29.73,0,0,0,4.3,5.6,19.53,19.53,0,0,0,30.7-5.4c.7-1.4,1.6-2.5,3.3-2.5a3.31,3.31,0,0,1,2.8,4.9,24.81,24.81,0,0,1-14.6,13.1A58.8,58.8,0,0,1,399,85Z"/><path d="M378.08,52.24a6.5,6.5,0,1,1,6.5-6.5A6.49,6.49,0,0,1,378.08,52.24Z"/><path d="M423.88,45.64a6.62,6.62,0,0,1-6.4,6.6,6.42,6.42,0,0,1-6.5-6.5,6.45,6.45,0,1,1,12.9-.1Z"/></g></g></g></svg>