<svg xmlns="http://www.w3.org/2000/svg" viewBox="0 0 23.42 25.35"><g id="Layer_2" data-name="Layer 2"><g id="Layer_1-2" data-name="Layer 1"><rect x="1" y="2.93" width="21.42" height="21.42" style="fill:none;stroke-miterlimit:10;stroke-width:2px"/><line x1="5.8" x2="5.8" y2="5.46" style="fill:none;stroke-linejoin:round;stroke-width:2px"/><line x1="11.71" x2="11.71" y2="5.46" style="fill:none;stroke-linejoin:round;stroke-width:2px"/><line x1="17.51" x2="17.51" y2="5.46" style="fill:none;stroke-linejoin:round;stroke-width:2px"/><line x1="5.09" y1="11.31" x2="5.09" y2="12.33" style="fill:none;stroke-linejoin:round;stroke-width:2px"/><line x1="9.45" y1="11.31" x2="9.45" y2="12.33" style="fill:none;stroke-linejoin:round;stroke-width:2px"/><line x1="13.81" y1="11.31" x2="13.81" y2="12.33" style="fill:none;stroke-linejoin:round;stroke-width:2px"/><line x1="18.18" y1="11.31" x2="18.18" y2="12.33" style="fill:none;stroke-linejoin:round;stroke-width:2px"/><line x1="5.09" y1="14.44" x2="5.09" y2="15.46" style="fill:none;stroke-linejoin:round;stroke-width:2px"/><line x1="9.45" y1="14.44" x2="9.45" y2="15.46" style="fill:none;stroke-linejoin:round;stroke-width:2px"/><line x1="13.81" y1="14.44" x2="13.81" y2="15.46" style="fill:none;stroke-linejoin:round;stroke-width:2px"/><line x1="18.18" y1="14.44" x2="18.18" y2="15.46" style="fill:none;stroke-linejoin:round;stroke-width:2px"/><line x1="5.09" y1="17.57" x2="5.09" y2="18.59" style="fill:none;stroke-linejoin:round;stroke-width:2px"/><line x1="9.45" y1="17.57" x2="9.45" y2="18.59" style="fill:none;stroke-linejoin:round;stroke-width:2px"/><line x1="13.81" y1="17.57" x2="13.81" y2="18.59" style="fill:none;stroke-linejoin:round;stroke-width:2px"/><line x1="18.18" y1="17.57" x2="18.18" y2="18.59" style="fill:none;stroke-linejoin:round;stroke-width:2px"/><line x1="5.09" y1="20.7" x2="5.09" y2="21.73" style="fill:none;stroke-linejoin:round;stroke-width:2px"/><line x1="9.45" y1="20.7" x2="9.45" y2="21.73" style="fill:none;stroke-linejoin:round;stroke-width:2px"/><line x1="13.81" y1="20.7" x2="13.81" y2="21.73" style="fill:none;stroke-linejoin:round;stroke-width:2px"/><line x1="18.18" y1="20.7" x2="18.18" y2="21.73" style="fill:none;stroke-linejoin:round;stroke-width:2px"/><line x1="1" y1="8.69" x2="21.91" y2="8.69" style="fill:none;stroke-linejoin:round;stroke-width:2px"/></g></g></svg>