<svg xmlns="http://www.w3.org/2000/svg" viewBox="0 0 122.88 103.61"><g id="Layer_2" data-name="Layer 2"><g id="Layer_1-2" data-name="Layer 1"><path d="M10.37,0H112.51a10.4,10.4,0,0,1,10.37,10.37h0a10.41,10.41,0,0,1-10.37,10.37H10.37A10.41,10.41,0,0,1,0,10.37H0A10.4,10.4,0,0,1,10.37,0Zm0,82.88H112.51a10.4,10.4,0,0,1,10.37,10.36h0a10.41,10.41,0,0,1-10.37,10.37H10.37A10.41,10.41,0,0,1,0,93.24H0A10.4,10.4,0,0,1,10.37,82.88Zm0-41.44H112.51a10.4,10.4,0,0,1,10.37,10.37h0a10.4,10.4,0,0,1-10.37,10.36H10.37A10.4,10.4,0,0,1,0,51.81H0A10.4,10.4,0,0,1,10.37,41.44Z" style="fill-rule:evenodd"/></g></g></svg>