<svg xmlns="http://www.w3.org/2000/svg" width="30" height="30" viewBox="0 0 30 30"><g><path d="M15,0A15,15,0,1,0,30,15,15,15,0,0,0,15,0Z" fill="#2814ff"/><path d="M22.924,19.323a4.746,4.746,0,0,1-2.765.886,4.4,4.4,0,0,1-1.131-.145A4.745,4.745,0,0,1,16.7,18.693c-.084-.09-.164-.184-.254-.285l-1.012,1.51-1-1.489a.216.216,0,0,0-.034.017.134.134,0,0,0-.02.021,4.7,4.7,0,0,1-2.931,1.661,4.589,4.589,0,0,1-1.954-.11,4.746,4.746,0,0,1-3.437-3.844A4.585,4.585,0,0,1,6.148,14.3a4.759,4.759,0,0,1,.737-1.6.186.186,0,0,0,.021-.138,5.309,5.309,0,0,0-.664-1.428c-.071-.117-.157-.217-.237-.329v-.038H8.9a.246.246,0,0,0,.123-.04A10.256,10.256,0,0,1,11.156,9.7a11.519,11.519,0,0,1,1.652-.448,13.358,13.358,0,0,1,1.643-.216,13.926,13.926,0,0,1,3.14.144,10.129,10.129,0,0,1,1.556.364,10.667,10.667,0,0,1,2.525,1.151.386.386,0,0,0,.193.056h2.787c.075,0,.149.008.224.012v.03l-.131.2A5.71,5.71,0,0,0,24,12.54a.179.179,0,0,0,.02.169A4.74,4.74,0,0,1,22.924,19.323Z" fill="#fff"/><path d="M19.923,10.718a10.75,10.75,0,0,0-4.206-.876,11.642,11.642,0,0,0-4.794.855,4.815,4.815,0,0,1,4.536,4.116A4.8,4.8,0,0,1,19.923,10.718Z" fill="#2814ff"/><path d="M10.679,13.874a1.53,1.53,0,1,0,1.529,1.53A1.53,1.53,0,0,0,10.679,13.874Zm0,2.317h0a.782.782,0,0,1,0-1.564h0a.782.782,0,1,1,0,1.564Z" fill="#2814ff"/><path d="M20.164,13.878A1.529,1.529,0,1,0,21.69,15.41,1.529,1.529,0,0,0,20.164,13.878Zm0,2.306a.775.775,0,0,1-.005-1.55h.009a.775.775,0,0,1,0,1.55Z" fill="#2814ff"/><path d="M10.751,11.682h-.015a3.772,3.772,0,1,0,.015,0Zm-.082,6.067a2.338,2.338,0,0,1-.005-4.676h.021a2.338,2.338,0,1,1-.016,4.676Z" fill="#2814ff"/><path d="M20.189,11.7h-.095a3.769,3.769,0,1,0,.095,0Zm-.035,6.055a2.338,2.338,0,0,1-.008-4.676h.02a2.338,2.338,0,0,1-.012,4.676Z" fill="#2814ff"/></g></svg>