<svg xmlns="http://www.w3.org/2000/svg" width="30" height="30" viewBox="0 0 30 30"><g><path d="M15,0A15,15,0,1,0,30,15,15,15,0,0,0,15,0Z" fill="#2814ff"/><path d="M21.2,12.041c.012.139.012.278.012.422v.126A9.282,9.282,0,0,1,6.929,20.281a6,6,0,0,0,.781.045,6.555,6.555,0,0,0,4.044-1.392,3.292,3.292,0,0,1-3.048-2.272,2.85,2.85,0,0,0,.618.056,3.291,3.291,0,0,0,.855-.107,3.277,3.277,0,0,1-2.617-3.2v-.036a3.213,3.213,0,0,0,1.474.4,3.263,3.263,0,0,1-1-4.36,9.236,9.236,0,0,0,6.724,3.412,3.38,3.38,0,0,1-.076-.744,3.262,3.262,0,0,1,5.643-2.231,6.539,6.539,0,0,0,2.068-.79,3.244,3.244,0,0,1-1.435,1.8,6.824,6.824,0,0,0,1.88-.515A6.5,6.5,0,0,1,21.2,12.041Z" fill="#fff"/></g></svg>