<svg xmlns="http://www.w3.org/2000/svg" width="29.982" height="29.982" viewBox="0 0 29.982 29.982"><g><path d="M15,29.982a15,15,0,1,1,10.594-4.406A14.982,14.982,0,0,1,15,29.982Z" fill="#2814ff"/><path d="M18.768,5.925H10.832a4.894,4.894,0,0,0-4.888,4.888v7.936a4.893,4.893,0,0,0,4.888,4.888h7.936a4.892,4.892,0,0,0,4.888-4.888V10.813A4.892,4.892,0,0,0,18.768,5.925Zm3.317,12.824a3.32,3.32,0,0,1-3.318,3.317H10.832a3.32,3.32,0,0,1-3.316-3.316V10.813A3.32,3.32,0,0,1,10.832,7.5h7.936a3.321,3.321,0,0,1,3.317,3.316Z" fill="#fff"/><path d="M19.555,8.882a1.152,1.152,0,1,0,.136,0C19.646,8.88,19.6,8.88,19.555,8.882Z" fill="#fff"/><path d="M14.8,10.217a4.564,4.564,0,1,0,4.564,4.565A4.565,4.565,0,0,0,14.8,10.217Zm0,7.557a2.992,2.992,0,1,1,2.992-2.992A2.992,2.992,0,0,1,14.8,17.774Z" fill="#fff"/></g></svg>