<svg xmlns="http://www.w3.org/2000/svg" width="30" height="30" viewBox="0 0 30 30"><g><path d="M15,0A15,15,0,1,0,30,15,15,15,0,0,0,15,0Z" fill="#2814ff"/><path d="M23.987,19.524a2.347,2.347,0,0,1-1.652,1.652A56.889,56.889,0,0,1,15,21.563a54.986,54.986,0,0,1-7.335-.4,2.347,2.347,0,0,1-1.652-1.652A24.634,24.634,0,0,1,5.627,15a24.782,24.782,0,0,1,.386-4.509A2.4,2.4,0,0,1,7.665,8.824,57.067,57.067,0,0,1,15,8.438a54.819,54.819,0,0,1,7.335.4,2.347,2.347,0,0,1,1.652,1.652,23.513,23.513,0,0,1,.386,4.525A24.782,24.782,0,0,1,23.987,19.524Z" fill="#fff"/><polygon points="13.123 17.82 18.023 15 13.123 12.18 13.123 17.82" fill="#2814ff"/></g></svg>