<svg xmlns="http://www.w3.org/2000/svg" viewBox="0 0 23.42 23.42"><g id="Layer_2" data-name="Layer 2"><g id="Layer_1-2" data-name="Layer 1"><rect x="1" y="1" width="21.42" height="21.42" style="fill:none;stroke-miterlimit:10;stroke-width:2px"/><path style="stroke:none;stroke-miterlimit:10;stroke-width:2px" d="M12.12,16.39v1.16H11.06V16.44a7.07,7.07,0,0,1-2.71-.67V13.7a5.19,5.19,0,0,0,2.71,1.05V12l-.43-.13C9,11.3,8.09,10.47,8.09,8.92A3,3,0,0,1,11,5.85h.09v-1h1.06v1a6.3,6.3,0,0,1,2.35.65v2a4.58,4.58,0,0,0-2.35-1v2.74l.4.13c1.78.58,2.55,1.37,2.55,2.84A3.1,3.1,0,0,1,12.12,16.39ZM11.06,9.93V7.56a1.15,1.15,0,0,0-1,1.18C10,9.41,10.44,9.71,11.06,9.93Zm2.07,3.56c0-.68-.42-1-1-1.21V14.7A1.2,1.2,0,0,0,13.13,13.49Z"/></g></g></svg>