<svg xmlns="http://www.w3.org/2000/svg" viewBox="0 0 330.08 66.29"><g id="Layer_2" data-name="Layer 2"><g id="Layer_1-2" data-name="Layer 1"><path d="M112,0h10.39V64H112V30.86H81V64H70.56V0H81V21.2H112Z"/><path d="M183.61,0l8.11,6.44L147.56,66.09l-8.11-6.34L156.7,36.47,132.38,6.75,140.49,0l22.44,28Z"/><polygon points="256.19 13.3 250.93 13.3 250.93 15.82 256.19 15.82 256.19 18.04 250.93 18.04 250.93 20.97 256.19 20.97 256.19 23.29 248.39 23.29 248.39 10.99 256.19 10.99 256.19 13.3"/><path d="M0,58.58l7.19,7.71L20.77,52.92H49.83V64.31H60.25V0h-.31ZM31.35,42.5,49.83,24.29V42.5Z"/><path d="M221.21,10.6h.06V23.28h-2.46V16.09L215,19.6l-3.77-3.51v7.19h-2.46V10.6h.06L215,16.36Z"/><path d="M233.14,10.58l1.93,1.62-8.82,11.6-1.94-1.58,3.36-4.43L223,12.26,225,10.58l4.26,5.16Z"/><path d="M246.05,19.88c0,2.22-2,3.77-5,3.77-2.87,0-4.42-1.35-5.08-2.76l2-1.09a3,3,0,0,0,2.91,1.58c1.74,0,2.68-.72,2.68-1.7s-1-1.7-2.7-1.7h-1.54V16h1.42c1.66,0,2.52-.68,2.52-1.62s-.91-1.58-2.48-1.58a3,3,0,0,0-2.85,1.58l-1.87-1.13a5.06,5.06,0,0,1,4.86-2.62c2.93,0,4.84,1.46,4.84,3.61A2.91,2.91,0,0,1,243.9,17,3.06,3.06,0,0,1,246.05,19.88Z"/><path d="M270.1,10.6h.06V23.28h-2.54V16l-7.85,7.7h-.06V11h2.54v7.32Zm-8.47-3.26h1.91c0,1,.39,1.44,1.46,1.44s1.47-.46,1.47-1.44h1.91c0,2-1.07,3.16-3.38,3.16S261.57,9.37,261.63,7.34Z"/><path d="M228.34,31.82h1.83v7.46h-10V27h8.22ZM226,29.15H222.6v2.67H226Zm1.8,8V33.89H222.6v3.22Z"/><path d="M241.91,27v8.46h-6.62v3.84h-2.54V27Zm-2.54,6.15V29.3h-4.08v3.83Z"/><path d="M266.29,26.59h.06V39.28h-2.54V32L256,39.67h-.06V27h2.54V34.3Zm-8.47-3.26h1.91c0,1,.39,1.44,1.45,1.44s1.48-.45,1.48-1.44h1.91c0,2-1.07,3.16-3.39,3.16S257.76,25.36,257.82,23.33Z"/><path d="M277.3,36.43l1.61,1.7a6.13,6.13,0,0,1-4.07,1.52,6.52,6.52,0,0,1,0-13,6.08,6.08,0,0,1,4.07,1.52l-1.61,1.7a4,4,0,0,0-2.42-.84,4.14,4.14,0,0,0,0,8.28A4,4,0,0,0,277.3,36.43Z"/><path d="M289.92,39.67,285,34.28h-1.19v5h-2.54v-5h-2V31.92h2V27h2.54v4.94h1.13l4.47-5.35,1.8,1.46-4.12,5,4.66,5Z"/><path d="M292,33.13a6.5,6.5,0,1,1,6.49,6.52A6.45,6.45,0,0,1,292,33.13Zm10.47,0a4,4,0,1,0-4,4.14A4,4,0,0,0,302.49,33.13Z"/><path d="M315.75,27v4.63h-2.34V29.3h-3.83v10H307V27Z"/><path d="M317.09,33.13a6.5,6.5,0,1,1,6.49,6.52A6.45,6.45,0,0,1,317.09,33.13Zm10.47,0a4,4,0,1,0-4,4.14A4,4,0,0,0,327.56,33.13Z"/><path d="M216.86,43.08h2.55V55.37h-2.55V49.08h-5.51v6.29h-2.54V43.08h2.54v3.68h5.51Z"/><path d="M230.86,55.74l-1-2.11h-5.61l-1,2.11L221,54.65l6-12h.08l6,12Zm-1.92-4.16L227,47.52l-1.93,4.06Z"/><path d="M243.8,43.08v8.46h-6.62v3.83h-2.54V43.08Zm-2.54,6.14V45.39h-4.08v3.83Z"/><path d="M245.83,49.22a6.5,6.5,0,1,1,6.5,6.52A6.45,6.45,0,0,1,245.83,49.22Zm10.47,0a4,4,0,1,0-4,4.14A4,4,0,0,0,256.3,49.22Z"/><path d="M273,53.06v4.69h-2.34V55.37h-9v2.38h-2.36V53.06h.7c1.74,0,2-1.75,2.05-4.78l0-5.2h8.4v.49h.65v9.49Zm-4.41,0V45.39h-4.07l0,3.22a12.15,12.15,0,0,1-.7,4.45Z"/><path d="M283.71,55.74l-1-2.11h-5.62l-1,2.11-2.26-1.09,6-12h.08l6,12Zm-1.93-4.16-1.9-4.06L278,51.58Z"/><polygon points="216.61 29.3 211.35 29.3 211.35 31.82 216.61 31.82 216.61 34.03 211.35 34.03 211.35 36.96 216.61 36.96 216.61 39.28 208.81 39.28 208.81 26.98 216.61 26.98 216.61 29.3"/><polygon points="252.38 29.3 247.12 29.3 247.12 31.82 252.38 31.82 252.38 34.03 247.12 34.03 247.12 36.96 252.38 36.96 252.38 39.28 244.58 39.28 244.58 26.98 252.38 26.98 252.38 29.3"/></g></g></svg>