<svg xmlns="http://www.w3.org/2000/svg" viewBox="0 0 206.73 66.51"><g id="Layer_2" data-name="Layer 2"><g id="Layer_1-2" data-name="Layer 1"><path d="M54.65,55.65V45.45H46.14V43.08H57.26V55.65Zm-5.79,0h-2.6V48.38h2.6Z"/><rect y="11.15" width="2.6" height="15.72"/><rect x="5.41" y="11.15" width="2.6" height="12.57"/><polygon points="23.22 12.31 18.51 18.01 23.01 22.28 21.23 24.21 13.42 16.64 13.42 23.73 10.82 23.73 10.82 10.76 10.88 10.76 16.68 16.27 21.17 10.71 23.22 12.31"/><rect x="24.98" y="11.15" width="2.6" height="6.79"/><polygon points="37.21 11.15 37.21 13.52 34.72 13.52 34.72 23.73 32.12 23.73 32.12 13.52 29.61 13.52 29.61 11.15 37.21 11.15"/><rect x="39.33" y="11.15" width="2.6" height="12.57"/><path d="M47.21,23.73H44.65V17.44a6.64,6.64,0,0,1,13.28,0h0c0,5.18-4.21,8-8.92,5.85l.81-2.16c2.83,1.47,5.52-.29,5.52-3.69a4,4,0,1,0-8.09,0Z"/><path d="M17.5,27H29.65V39.65H17.5Zm2.6,10.21H27V29.41H20.1Z"/><polygon points="40.88 27.04 43.48 27.04 43.48 39.62 31.62 39.62 31.62 37.25 34.24 37.25 34.24 27.04 36.84 27.04 36.84 37.25 40.88 37.25 40.88 27.04"/><path d="M54.65,39.65V29.41H46.14V27H57.26V39.65Zm-5.79,0h-2.6v-7.3h2.6Z"/><rect x="3.82" y="42.94" width="2.6" height="6.79"/><polygon points="14.9 55.51 14.9 45.3 8.55 45.3 8.55 42.93 19.72 42.93 19.72 45.3 17.5 45.3 17.5 55.51 14.9 55.51"/><rect x="21.81" y="42.94" width="2.6" height="12.57"/><path d="M35.65,55.51V45.3H27.07V42.94H38.2V55.51Zm-5.78,0h-2.6V48.24h2.6Z"/><rect x="40.94" y="42.94" width="2.6" height="6.79"/><path d="M124.07,2v39.5c0,8.44-6.14,14.28-14.69,14.28H105.1v9.8h4.28c14.69,0,25.12-9.69,25.12-23.77L134.39,2Z"/><rect x="84.05" y="1.99" width="10.42" height="62.54"/><polygon points="198.6 0 174.94 28.98 145.44 0.21 145.13 0.21 145.13 64.53 155.55 64.53 155.55 24.5 198.18 66.51 205.38 58.79 182.13 36.07 206.73 6.36 198.6 0"/></g></g></svg>