<svg xmlns="http://www.w3.org/2000/svg" viewBox="0 0 26.64 14.27"><g id="Layer_2" data-name="Layer 2"><g id="Layer_1-2" data-name="Layer 1"><path d="M24,1.72C24,.08,18.62,0,17.54,0s-6.49.08-6.49,1.72V3.9c0,1.63,5.4,1.71,6.49,1.71S24,5.53,24,3.9V1.83h0A.45.45,0,0,0,24,1.72ZM17.54,1a14.21,14.21,0,0,1,5.35.72,14.53,14.53,0,0,1-5.35.71,14.56,14.56,0,0,1-5.36-.71A14.24,14.24,0,0,1,17.54,1Zm1.52,2.39V4.57l-.39,0V3.41Zm.75-.05.42,0V4.48l-.42,0ZM21,3.22l.39-.07V4.32L21,4.38Zm.89-.16L22.21,3V4.13l-.34.09Zm-8.64,0V4.23l-.33-.09V3Zm.5.09.34,0V4.38l-.34,0Zm1.09.14.41,0V4.52l-.41,0ZM16,3.39h.29V4.59l-.29,0Zm-3.93-.66.35.13V4a1.11,1.11,0,0,1-.35-.18Zm5.22,1.88V3.43h.4V4.61h-.4ZM22.71,4V2.84L23,2.73V3.81A1.09,1.09,0,0,1,22.71,4Z"/><path d="M22.42,11.4v1.07a1.43,1.43,0,0,1-.31.16V11.5l.24-.09a25.82,25.82,0,0,1-3.68.23c-3,0-5.11-.34-6.3-1a4.09,4.09,0,0,1-.79-.27l.25-.11a1.83,1.83,0,0,1-.56-.82c-.5.23-.82.53-.82.93v2.18c0,1.63,5.4,1.72,6.48,1.72s6.49-.09,6.49-1.72V11.2C23.11,11.28,22.77,11.34,22.42,11.4ZM11.79,12.64a1.5,1.5,0,0,1-.34-.17V11.38l.34.13Zm.84.24-.34-.08V11.65l.34.07Zm.84.15-.34,0V11.81l.34.06Zm1.16.14-.41,0V12l.41,0Zm1,.07-.29,0V12l.29,0Zm1.4,0h-.4V12.09h.4Zm1.38,0-.38,0V12.06h.38Zm1.17-.09-.42,0V12l.42,0ZM20.77,13l-.4.06V11.87l.4-.06Zm.84-.19-.34.08V11.72l.34-.08Z"/><path d="M24.15,9V9.1a1.27,1.27,0,0,1-.31.15V9.08l-.5.07v.27L23,9.5V9.19l-.5.05V9.6c-.12,0-.27,0-.4.06V9.27l-.75,0v.46l-.42,0V9.32h-.75v.52l-.39,0V9.33l-1,0v.58h-.4v-.6c-.35,0-.68,0-1-.06v.64l-.28,0V9.2l-.75-.09V9.8l-.41,0V9c-.27,0-.52-.1-.75-.16v.78l-.34-.05V8.79a4.92,4.92,0,0,1-.5-.16v.88L14,9.43V8.49a3.38,3.38,0,0,1-.5-.27v1a1.31,1.31,0,0,1-.34-.17V8l.08,0a1.76,1.76,0,0,1-.74-1.43V6.36a.84.84,0,0,0-.34.64V9.18c0,1.63,5.4,1.72,6.48,1.72s6.48-.09,6.48-1.72V8.8C24.85,8.89,24.51,9,24.15,9Z"/><path d="M26.64,4.34c0-.64-.82-1-1.89-1.29v.66a1.47,1.47,0,0,1,0,.36,3.44,3.44,0,0,1,.8.27,4.66,4.66,0,0,1-1.05.33,4.34,4.34,0,0,1-2.78,1.4V7.19l-.39,0V6.14c-.31.06-.65.1-1,.14v1h-.4V6.32l-1,.07v.82l-.28,0V6.4l-.75,0v.72l-.41,0V6.43H16.7V7l-.34,0V6.42l-.5,0v.45l-.34-.08V6.39l-.5,0v.26a1.31,1.31,0,0,1-.34-.17V6.33c-.36,0-.69-.07-1-.12v.31c0,1.63,5.4,1.72,6.48,1.72s6.48-.09,6.48-1.72V4.45h0S26.64,4.38,26.64,4.34ZM22.85,7.1l-.42,0V6l.42,0ZM24,6.94c-.12,0-.27,0-.4.06V5.84l.4-.06Zm.84-.18-.34.08V5.68l.34-.07Zm.8-.32a1.36,1.36,0,0,1-.3.15V5.47l.3-.12Z"/><path d="M11.15,4.41C10.29,3,5.65,5.78,4.73,6.35S-.75,9.81.11,11.21l1.14,1.85c.86,1.39,5.5-1.37,6.42-1.93s5.48-3.47,4.62-4.86L11.21,4.51h0S11.17,4.45,11.15,4.41ZM5.25,7.2A14.51,14.51,0,0,1,10.19,5,14.3,14.3,0,0,1,6,8.42a14.3,14.3,0,0,1-4.93,2.19A14.4,14.4,0,0,1,5.25,7.2ZM7.8,8.44l.62,1-.32.22-.62-1ZM8.41,8l.34-.25.62,1L9,9Zm.93-.72A3.88,3.88,0,0,0,9.65,7l.61,1L10,8.28Zm.69-.6.25-.24.6,1-.25.25ZM2.67,11.22l.61,1L3,12.31l-.6-1ZM3.15,11l.31-.13.61,1a2,2,0,0,1-.31.13Zm1-.45.37-.18.61,1c-.12.07-.24.12-.37.18Zm1-.53.25-.14.62,1-.25.13ZM1.49,11.54l.36-.07.59,1a2.06,2.06,0,0,1-.38,0Zm5.42-1.13-.61-1,.23-.14.11-.07.62,1-.11.08ZM11.22,7l-.59-1c.07-.09.13-.18.2-.26l.56.92A1.07,1.07,0,0,1,11.22,7Z"/></g></g></svg>