<svg xmlns="http://www.w3.org/2000/svg" viewBox="0 0 29.98 29.98"><defs><style>.cls-1{fill:#2814ff;}.cls-2{fill:#fff;}</style></defs><g id="Layer_2" data-name="Layer 2"><g id="Isolation_Mode" data-name="Isolation Mode"><g id="Exclusion_1" data-name="Exclusion 1"><path class="cls-1" d="M15,30a15,15,0,1,1,10.59-4.4A15,15,0,0,1,15,30Z"/></g><path class="cls-2" d="M22.22,8.73H7.76a1.63,1.63,0,0,0-1.63,1.63v9.26a1.63,1.63,0,0,0,1.63,1.63H22.22a1.64,1.64,0,0,0,1.64-1.63V10.36A1.64,1.64,0,0,0,22.22,8.73Zm-.71,1.5a.71.71,0,0,0-.26.13L15,15.29,8.72,10.35a.68.68,0,0,0-.24-.12Zm.71,9.52H7.76a.13.13,0,0,1-.13-.13V11.34a.7.7,0,0,0,.16.19l6.75,5.3A.74.74,0,0,0,15,17a.72.72,0,0,0,.46-.16l6.71-5.29a.72.72,0,0,0,.18-.21v8.29A.14.14,0,0,1,22.22,19.75Z"/></g></g></svg>