<svg xmlns="http://www.w3.org/2000/svg" viewBox="0 0 31 28.99"><title>cart-empty</title><g id="Layer_2" data-name="Layer 2"><g id="Open"><circle cx="5.05" cy="26.53" r="2.47" style="fill:#333"/><circle cx="16.05" cy="26.53" r="2.47" style="fill:#333"/><path d="M29.5,0H26a3,3,0,0,0-2.46,1.89c-.41,1-1,2.11-1.7,4.11H6A5.7,5.7,0,0,0,1.41,8.5,7.7,7.7,0,0,0,0,13.08C0,16.56,2.06,20,6,20H18a.87.87,0,0,1,1,1,.88.88,0,0,1-1,1H5.5a1.66,1.66,0,0,0-1.41,1.18,3.39,3.39,0,0,1,1-.24A3.68,3.68,0,0,1,8.16,25h4.78a3.61,3.61,0,0,1,3.11-2,3.41,3.41,0,0,1,3.05,2.08,4.32,4.32,0,0,0,2.85-4,4.26,4.26,0,0,0-1.16-2.79,3.52,3.52,0,0,0-.48-.36C21.55,15,25,6.5,26.36,3.2c0,0,0-.2,0-.2H29.5a1.5,1.5,0,0,0,0-3ZM13.23,9h3l-1.14,3h-3Zm-5,0h3.39l-1.16,3H7.06ZM3.84,10.1A2.52,2.52,0,0,1,6,9h.62L5.45,12H3.09A3.43,3.43,0,0,1,3.84,10.1Zm.07,6.22A4.82,4.82,0,0,1,3,13.81H4.88ZM8.52,17H6a3.17,3.17,0,0,1-.83,0l1.32-3.31,3.39-.12Zm4.69,0H10.12l1.36-3.34,3.08-.08Zm4.13,0H14.81l1.36-3.34,2.61-.08C18.15,15.12,17.62,16,17.33,17Zm2.07-5H16.69l1.14-3h2.82C20.22,10,19.8,11,19.4,12Z" style="fill:#333"/></g></g></svg>