<svg xmlns="http://www.w3.org/2000/svg" viewBox="0 0 38.79 30.87"><defs><style>.cls-1{fill:#6d6968;}.cls-2{fill:#2814ff;}</style></defs><g id="Layer_2" data-name="Layer 2"><g id="Group_5316" data-name="Group 5316"><path class="cls-1" d="M33.44,7.4l5.35-1.83-.65-1.89L31.67,5.89l-1.28,7.5H27.53l-.92-3h1.47v-2H8.6l5.13,15h15l-.14,1.18H15.06a3.13,3.13,0,1,0,3,4.06h0A3.12,3.12,0,0,0,18,26.6h6.65a1.76,1.76,0,0,0-.09.2,3.15,3.15,0,0,0,2.06,3.93A3.15,3.15,0,0,0,29,30.51a3.1,3.1,0,0,0,1.39-4.06l.48-3.89Zm-20.69,7h3.32l1,3.23H13.86Zm4.37,0h4.31l1,3.23H18.12Zm-.31-1-.92-3h4.32l.91,3Zm5.67,1h4.31l1,3.23H23.48Zm.26,4.23.87,2.8H19.29l-.86-2.8Zm1.05,0H28.1l.86,2.8H24.65Zm5.58.73-.23-.73h.36Zm.85-5-.55,3.23h-.83l-1-3.23Zm-3.74-1H22.17l-.92-3h4.31Zm-11.63-3,.91,3H12.41l-1-3Zm-.65,8.18h3.18l.87,2.8H15.16Zm1.2,8a1.15,1.15,0,0,1,.75,1.42,1.13,1.13,0,0,1-.56.67,1.15,1.15,0,0,1-.87.08A1.13,1.13,0,0,1,14,27.4a1.15,1.15,0,0,1,.55-.67,1.12,1.12,0,0,1,.53-.13h0A1.57,1.57,0,0,1,15.4,26.65Zm13.21,1.42a1.13,1.13,0,0,1-.56.67,1.12,1.12,0,0,1-.86.08,1.14,1.14,0,0,1,.29-2.22h.08a1.67,1.67,0,0,1,.31,0A1.14,1.14,0,0,1,28.61,28.07Z"/><circle class="cls-2" cx="7.53" cy="7.53" r="7.53"/></g></g></svg>