<svg xmlns="http://www.w3.org/2000/svg" viewBox="0 0 30.19 27.19"><g id="Layer_2" data-name="Layer 2"><g id="Group_5316" data-name="Group 5316"><path d="M24.84,3.72l5.35-1.83L29.54,0,23.07,2.22,21.79,9.71H18.93l-.92-3h1.47v-2H0l5.13,15h15L20,20.93H6.46a3.13,3.13,0,0,0-.94,6.12,3.06,3.06,0,0,0,.94.14,3.14,3.14,0,0,0,3-2.2h0a3.09,3.09,0,0,0-.08-2.06H16c0,.06-.06.12-.08.19A3.15,3.15,0,0,0,18,27.05a3,3,0,0,0,.94.14,3.15,3.15,0,0,0,3-2.2,3.08,3.08,0,0,0-.15-2.22l.48-3.89Zm-20.69,7H7.47l1,3.23H5.26Zm4.37,0h4.31l1,3.23H9.52Zm-.31-1-.92-3h4.32l.91,3Zm5.67,1h4.31l1,3.23H14.88Zm.26,4.23.87,2.8H10.69l-.86-2.8Zm1,0H19.5l.86,2.8H16.05Zm5.58.73-.23-.73h.36Zm.85-5-.55,3.23h-.84l-1-3.23Zm-3.74-1H13.57l-.92-3H17Zm-11.63-3,.91,3H3.81l-1-3ZM5.6,14.94H8.78l.87,2.8H6.56Zm1.2,8A1.13,1.13,0,0,1,7,25.06a1.1,1.1,0,0,1-.87.08,1.13,1.13,0,0,1-.74-1.42,1.12,1.12,0,0,1,1.08-.8h0A1,1,0,0,1,6.8,23ZM20,24.4a1.11,1.11,0,0,1-.56.66,1.08,1.08,0,0,1-.86.08,1.13,1.13,0,0,1-.19-2.09,1,1,0,0,1,.48-.12H19a1,1,0,0,1,.3,0A1.14,1.14,0,0,1,20,24.4Z"/></g></g></svg>