<svg xmlns="http://www.w3.org/2000/svg" viewBox="0 0 30 30"><title>flag-IL</title><g id="Layer_2" data-name="Layer 2"><g id="Open"><g id="_Group_" data-name="&lt;Group&gt;"><path id="_Compound_Path_" data-name="&lt;Compound Path&gt;" d="M15,30A15,15,0,1,1,30,15,15,15,0,0,1,15,30" style="fill:none"/></g><path d="M21.6,18.78l-.06-.12-2.1-3.56L19.37,15l.18-.3,2-3.42,0-.06.06-.1H17.09l-.1-.16L15,7.52l-.07-.11-.06.1-1.48,2.57-.58,1,0,0H8.36l.05.09.76,1.32,1,1.69.42.73-.05.1L8.39,18.72l0,.11h4.47l.36.63,1.58,2.76.18.29.08-.14,2-3.44.08-.13h4.51Zm-8.4-.89L11.53,15l1.29-2.35.34-.61h3.47l1.63,2.86a.15.15,0,0,1,0,.18l-1.75,2.82Zm6.79,0H17.65L18.76,16l.06-.1,0,0ZM18.84,14l-.07.11,0-.07-1.09-2H20l-.24.41ZM13.7,11.1,14.92,9c.06,0,.07.06.09.1L16.15,11l.06.09H13.7Zm-3.79,1,0-.07h2.34l-.64,1.18-.48.88L11,14Zm.66,4.6L11,16l.07-.11.07.11L12,17.56l.17.32H9.87Zm5.52,2.15-.32.55L15,20.66l-.08.13-1.14-1.94v0h2.34Z" style="fill:#0101cc"/><path d="M27.79,22.79a34.1,34.1,0,0,1-12.48,2.4A36.22,36.22,0,0,1,2.1,22.61a15.08,15.08,0,0,0,6.66,6,38.67,38.67,0,0,0,6.55.57A37.67,37.67,0,0,0,21,28.76,15.08,15.08,0,0,0,27.79,22.79Z" style="fill:#00c"/><path d="M8.59,1.46A15.08,15.08,0,0,0,2.09,7.39,34.11,34.11,0,0,1,14.69,4.95,36.28,36.28,0,0,1,28,7.58a15.08,15.08,0,0,0-6.33-6,38.82,38.82,0,0,0-7-.64A37.66,37.66,0,0,0,8.59,1.46Z" style="fill:#00c"/></g></g></svg>