<svg xmlns="http://www.w3.org/2000/svg" viewBox="0 0 20.5 20.63"><defs><style>.cls-1{fill:#fff;}</style></defs><g id="Layer_2" data-name="Layer 2"><g id="Layer_1-2" data-name="Layer 1"><path class="cls-1" d="M10,4.78C10,0,.73-1.19.73,6.89c0,5.79,9.25,13,9.25,13s9.25-7.16,9.25-12.95C19.23-1.19,10,0,10,4.78Z"/><path d="M9.64,20.63C9.25,20.33,0,13.1,0,6.89A7.27,7.27,0,0,1,1.83,1.68,5.59,5.59,0,0,1,5.88,0a5.71,5.71,0,0,1,4.37,2,5.71,5.71,0,0,1,4.37-2,5.6,5.6,0,0,1,4.06,1.68A7.3,7.3,0,0,1,20.5,6.89c0,6.21-9.24,13.44-9.64,13.74ZM5.88,2A3.61,3.61,0,0,0,3.26,3.07,5.39,5.39,0,0,0,2,6.89c0,4,5.48,9.38,8.25,11.67C13,16.27,18.5,10.91,18.5,6.89a5.34,5.34,0,0,0-1.26-3.82A3.61,3.61,0,0,0,14.62,2C13,2,11.25,3,11.25,4.78h-2C9.25,3,7.54,2,5.88,2Z"/></g></g></svg>