<svg xmlns="http://www.w3.org/2000/svg" viewBox="0 0 21.61 26.31"><title>Languages</title><g id="Layer_2" data-name="Layer 2"><g id="Open"><path d="M10,0V3.87a12.1,12.1,0,0,1-.06,1.3,6.87,6.87,0,0,1-.27,1.16A2.81,2.81,0,0,1,7.88,8.09l2,3.26-.64,1.8L5.55,6.93l-1.4-2.1a1.91,1.91,0,0,0-.54.27,2.92,2.92,0,0,0-.87,2.38v4.43H1.2V8a5.87,5.87,0,0,1,.6-3,2.89,2.89,0,0,1,.67-.74,3.27,3.27,0,0,1,1-.55L1.21,0H3L5.68,4.61,7.22,7a2.51,2.51,0,0,0,.7-.58,2.6,2.6,0,0,0,.38-.8,4.28,4.28,0,0,0,.15-1.2V0Z"/><path d="M20,20.41,18.31,16H12.79l-1.7,4.38H9.56L15,6.58H16.2l5.41,13.83Zm-2.21-5.83-1.6-4.26c-.21-.54-.42-1.21-.64-2a18.57,18.57,0,0,1-.6,2l-1.62,4.26Z"/><path d="M8.12,17.75c.13-.4.35-.91.51-1.32H6.21V13.16H5v3.27H0v1.32H5v.18a9.46,9.46,0,0,1-1.27,3.9q-.2.29-.39.54l-.09.11c-.14.17-.27.32-.41.47a.46.46,0,0,1-.07.07c-.13.14-.25.27-.38.39a.46.46,0,0,0-.07.07q-.21.19-.42.36A11.64,11.64,0,0,1,.09,25.06s.41,1.2.43,1.25A11.91,11.91,0,0,0,2.4,25.09h0A1.49,1.49,0,0,1,2.54,25c.26-.21.5-.43.74-.66l.21-.22a9.73,9.73,0,0,0,.78-.92l.1-.17a9.07,9.07,0,0,0,.56-.9l.15-.3a9.34,9.34,0,0,0,.51-1.21,11,11,0,0,0,.51,1.21c.05.1.1.2.16.3a9,9,0,0,0,.55.9l.11.17a11.36,11.36,0,0,0,.77.92c.07.07.15.14.22.22.23.23.48.45.73.66a1.49,1.49,0,0,1,.14.12h0a12.29,12.29,0,0,0,1.87,1.22s.42-1.21.44-1.25a11.42,11.42,0,0,1-1.79-1.22l-.41-.36-.08-.07L8.44,23,8.37,23c-.14-.15-.27-.3-.4-.47l-.09-.11a5.3,5.3,0,0,1-.39-.54,9.38,9.38,0,0,1-1.28-3.9v-.18Z"/></g></g></svg>