<svg xmlns="http://www.w3.org/2000/svg" viewBox="0 0 22.35 27.04"><title>Languages-Hover</title><g id="Layer_2" data-name="Layer 2"><g id="Open"><path d="M5.59,7.38,4.33,5.5l-.23.13a2.65,2.65,0,0,0-.77,2.15v4.73H1.2V8.34a6,6,0,0,1,.65-3.16,3.08,3.08,0,0,1,.73-.82,3.34,3.34,0,0,1,.78-.46L1,0H3.42L6.24,4.75,7.61,6.88A1.78,1.78,0,0,0,8,6.54a2.24,2.24,0,0,0,.33-.71,4,4,0,0,0,.14-1.11V0h2.13V4.17a10.54,10.54,0,0,1-.07,1.34,6.06,6.06,0,0,1-.28,1.22,3,3,0,0,1-1.61,1.8l1.88,3.08-.9,2.55Z"/><path d="M20.12,21,18.4,16.63H13.29L11.6,21H9.42L15.1,6.58h1.6L22.35,21Zm-2.44-6.43-1.45-3.86c-.12-.29-.23-.62-.35-1-.09.32-.2.65-.32,1l-1.47,3.86Z"/><path d="M10.82,26.88a14.08,14.08,0,0,1-1.63-1h0l-.31-.23-.08-.08c-.31-.26-.56-.48-.8-.72l-.23-.22a9.92,9.92,0,0,1-.8-1l-.07-.11a11.1,11.1,0,0,1-.61-1l-.16-.31c-.09-.18-.17-.35-.24-.52-.07.17-.15.34-.24.52s-.1.21-.16.31a7.22,7.22,0,0,1-.57.93l-.11.17a9.92,9.92,0,0,1-.8,1l-.15.15c-.31.31-.57.53-.83.75l-.14.12-.31.24h0a15.65,15.65,0,0,1-1.61,1L.67,27l-.13-.32s-.45-1.3-.45-1.3v-.24l.19-.11A10.83,10.83,0,0,0,2,23.91l.4-.35c.2-.19.32-.31.44-.44a5.89,5.89,0,0,0,.46-.53l.09-.11A5.37,5.37,0,0,0,3.75,22,9.41,9.41,0,0,0,5,18.35H.28l-.28,0v-1.9H5V13.16H6.8v3.27H9.37l-.31.78c-.13.32-.26.65-.36.94l-.06.2H6.82A9.37,9.37,0,0,0,8.05,22a4.29,4.29,0,0,0,.37.5l.08.12c.13.15.26.31.39.45s.32.32.44.44l-.13.29.2-.22.41.35a10.66,10.66,0,0,0,1.69,1.16l.16.09,0,.2v.06l0,.06s-.42,1.22-.43,1.24l-.12.32Z"/></g></g></svg>