<svg xmlns="http://www.w3.org/2000/svg" viewBox="0 0 171.88 55.96"><title>logo-he</title><g id="Layer_2" data-name="Layer 2"><g id="Layer_1-2" data-name="Layer 1"><path d="M147.56,56l-2.48-4.27a4.94,4.94,0,0,1,4.9,0L147.56,56" style="fill:#fcb034"/><path d="M125.61,18.05l-2.45-4.24h4.93a4.9,4.9,0,0,1-2.48,4.24" style="fill:#46c3d3"/><polyline points="132.88 42.35 128.97 42.35 129.54 39.15 132.32 38.4 132.88 42.35" style="fill:#bf311a"/><polyline points="130.5 26.49 126.85 20.18 131.06 20.57 130.5 26.49" style="fill:#bf311a"/><polyline points="123.19 42.35 125.46 38.41 128.26 39.27 127.72 42.35 123.19 42.35" style="fill:#fcb034"/><path d="M144.33,5.3l3-5.3c1.56,2.66,2.37,4.15,2.37,4.15l-5.4,1.15" style="fill:#bf311a"/><polyline points="130.43 33.39 128.84 32.5 131.31 28.18 132.06 29.4 130.43 33.39" style="fill:#232f84"/><polyline points="166.72 22.35 164.13 21.8 165.51 17.45 169.06 18.26 166.72 22.35" style="fill:#232f84"/><polyline points="142.83 47.78 141.73 45.88 144.72 43.59 146.86 47.11 142.83 47.78" style="fill:#bf311a"/><path d="M141.26,45.05l-1.52-2.62h4.88l-3.36,2.62" style="fill:#fcb034"/><polyline points="163.61 27.65 161.44 23.95 163.71 22.75 166.12 23.28 163.61 27.65" style="fill:#bf311a"/><polyline points="150.69 50.43 148.8 49.65 148.1 46.68 152.51 47.22 150.69 50.43" style="fill:#46c3d3"/><polyline points="171.88 42.37 167.98 42.37 169.35 38 171.88 42.37" style="fill:#bf311a"/><polyline points="141.34 10.64 143.55 6.73 147.27 5.93 145.2 10.55 141.34 10.64" style="fill:#46c3d3"/><path d="M165.76,37.6c-2.1-2.19-3.52-3.7-3.52-3.7l4.76.15,1.78,3.05-3,.5" style="fill:#46c3d3"/><polyline points="151.47 11.94 147.66 8.39 148.86 5.77 150.57 5.42 153.38 10.31 151.47 11.94" style="fill:#fcb034"/><polyline points="164.28 17.3 161.45 17.25 162.51 13.84 165.39 13.84 164.28 17.3" style="fill:#bf311a"/><polyline points="163.09 39.98 161.48 39.56 161.78 35 165.33 38.76 163.09 39.98" style="fill:#cbeaee"/><polyline points="140.06 31.14 136.63 29.27 139.23 25.1 141.89 26.89 140.06 31.14" style="fill:#46c3d3"/><path d="M141.89,39.16l-2.25-2.78c1.16-.75,3.55-2.12,3.55-2.12l1.91,1.18-3.21,3.72" style="fill:#46c3d3"/><path d="M138.23,36l.59-4.34c.48.24,3.4,1.93,3.4,1.93l-4,2.41" style="fill:#fcb034"/><polyline points="133.74 29.88 132 26.94 134.79 22.14 136.72 27.3 133.74 29.88" style="fill:#bf311a"/><polyline points="144.38 23.29 141.89 20.82 145.77 18.14 146.76 22.54 144.38 23.29" style="fill:#cbeaee"/><polyline points="150.63 22.73 147.56 20.66 146.34 15.57 149.22 14.9 150.63 22.73" style="fill:#46c3d3"/><polyline points="153.09 25.91 151.44 21.43 156.69 21.5 153.09 25.91" style="fill:#cbeaee"/><polyline points="160.41 39.58 157.53 38.56 160.19 33.87 160.41 39.58" style="fill:#232f84"/><polyline points="162.91 28.7 159.17 28.18 160.52 24.55 162.91 28.7" style="fill:#fcb034"/><polyline points="159.63 32.67 156.35 31.5 154.72 28.2 161.26 29.79 159.63 32.67" style="fill:#cbeaee"/><polyline points="137.41 26 135.93 21.96 138.38 18.83 140.49 20.95 137.41 26" style="fill:#232f84"/><polyline points="135.54 20.59 135.36 13.81 136.74 13.81 138.64 16.57 135.54 20.59" style="fill:#46c3d3"/><polyline points="138.48 42.35 133.87 42.35 133.38 39.04 138.48 42.35" style="fill:#46c3d3"/><polyline points="140.02 16.53 138.61 15.35 140.66 11.8 143.75 11.77 140.02 16.53" style="fill:#bf311a"/><polyline points="135.86 39.26 133.57 37.79 134.73 33.89 137.51 35.56 135.86 39.26" style="fill:#bf311a"/><polyline points="129.75 37.82 132.7 30.51 133.97 32.73 132.69 37.02 129.75 37.82" style="fill:#cbeaee"/><path d="M144.35,50.41l-.95-1.65,3.78-.62s.17.78.36,1.54l-3.19.73" style="fill:#46c3d3"/><path d="M148,45.81l-2.09-2.12a5.82,5.82,0,0,0,1.29-2.41l3,.11A5.58,5.58,0,0,1,148,45.81" style="fill:#cbeaee"/><polyline points="166.81 42.37 164.63 42.37 163.88 40.94 167.74 38.53 166.81 42.37" style="fill:#fcb034"/><path d="M166.44,33,161,32.75c.16-.37,1.36-2.42,1.36-2.42l2.19-.65L166.44,33" style="fill:#bf311a"/><polyline points="163.37 42.37 156.27 42.35 158.08 39.8 162.63 40.96 163.37 42.37" style="fill:#46c3d3"/><polyline points="155.22 42.52 150.79 40.84 153.35 36.9 156.8 39.84 155.22 42.52" style="fill:#bf311a"/><polyline points="147.72 40.31 146.86 35.42 152.04 36.29 150.62 38.91 147.72 40.31" style="fill:#fcb034"/><path d="M145.39,41.81l-3-1.69,3-3.44A3.42,3.42,0,0,1,146.48,39V39a3.63,3.63,0,0,1-1.09,2.78" style="fill:#bf311a"/><polyline points="128.63 38.11 126.09 37.35 128.29 33.51 130.12 34.52 128.63 38.11" style="fill:#46c3d3"/><path d="M153.07,46.28l-3-.41a5.81,5.81,0,0,0,1.48-3.68l3.16,1.19s-1.57,2.79-1.63,2.9" style="fill:#232f84"/><polyline points="142.33 41.35 139.06 41.34 136.78 39.85 138.69 36.9 142.33 41.35" style="fill:#232f84"/><path d="M137.43,34.24a3.07,3.07,0,0,1-2.21-4.53l.7.38,2,1.09-.45,3.06" style="fill:#232f84"/><polyline points="162.76 22.44 161.4 22.15 159.28 18.43 164.09 18.49 162.76 22.44" style="fill:#cbeaee"/><polyline points="150.13 27.53 145.57 24.4 148.39 22.64 151.53 24.75 152.09 26.5 150.13 27.53" style="fill:#232f84"/><polyline points="146.44 29.66 143.1 27.45 145.91 25.93 149.25 28.09 146.44 29.66" style="fill:#46c3d3"/><path d="M152.34,31.63h-.26a4.9,4.9,0,0,1-3.58-1.83l4.17-2.31,1.81,3.65a5,5,0,0,1-2.14.5" style="fill:#fcb034"/><polyline points="145.52 14.56 144.21 13.38 147.14 9.5 150.45 12.66 149.22 13.73 145.52 14.56" style="fill:#cbeaee"/><path d="M157.92,27.88l-4.34-1.06,3.22-3.35a4.07,4.07,0,0,1,1.12,4.41" style="fill:#232f84"/><path d="M158.9,25a4.21,4.21,0,0,0-.46-1.1,4.86,4.86,0,0,0-1-1.18l1.09-3.42,2.06,3.54L158.9,25" style="fill:#46c3d3"/><path d="M152.05,20.27h-.9l-.65-3.7,2.62.7a4.77,4.77,0,0,0-1.07,3" style="fill:#46c3d3"/><polyline points="169.67 17.17 165.94 16.31 166.69 13.85 171.58 13.85 169.67 17.17" style="fill:#46c3d3"/><polyline points="142.92 26.28 139.89 24.25 141.37 21.76 144.89 25.17 142.92 26.28" style="fill:#bf311a"/><polyline points="141.24 20.02 139.74 18.64 143.21 14.08 145.28 16.05 145.47 17.07 141.24 20.02" style="fill:#fcb034"/><polyline points="157.66 36.3 155.15 32.18 159.19 33.61 157.66 36.3" style="fill:#46c3d3"/><path d="M156.34,38,153.91,36l.45-2.86a4.8,4.8,0,0,1,2.09,4,4.17,4.17,0,0,1-.11.94" style="fill:#cbeaee"/><polyline points="145.5 34.24 141.07 31.72 142.54 28.32 148.32 31.74 145.5 34.24" style="fill:#cbeaee"/><polyline points="132.56 17.91 129.54 13.81 134.43 13.81 134.53 16.29 132.56 17.91" style="fill:#232f84"/><polyline points="130.74 19.38 126.39 19.01 129.39 15.36 131.62 18.65 130.74 19.38" style="fill:#fcb034"/><polyline points="132.09 24.9 131.8 24.45 132.23 19.63 134.49 17.74 134.56 20.64 132.09 24.9" style="fill:#cbeaee"/><polyline points="152.95 35.37 147.06 34.4 149.29 32.17 153.44 32.63 152.95 35.37" style="fill:#bf311a"/><polyline points="160.43 17.24 158.24 17.21 156.48 13.83 161.5 13.84 160.43 17.24" style="fill:#fcb034"/><path d="M157.13,20.5l-4.06-.05h0a4.07,4.07,0,0,1,3.69-4.05l1.08,1.82-.71,2.29" style="fill:#bf311a"/><path d="M154.1,16.51l-3.54-.93-.19-1.14c1.88-1.58,3.66-3,3.66-3l2.29,4.09a4.66,4.66,0,0,0-1.61.58,3.67,3.67,0,0,0-.61.42" style="fill:#232f84"/><path d="M1.27,20,0,20.42v-5.5H1.27Z" style="fill:#231f20"/><path d="M9.82,15.91H8.52v8.27H7.25V15.91H2.88v-1H9.82Z" style="fill:#231f20"/><path d="M12.86,24.18H11.59V14.92h1.27Z" style="fill:#231f20"/><path d="M23,24.18H21.73V18.41c0-1.8-1.06-2.7-3.17-2.7a15.75,15.75,0,0,0-3.32.34V15a20.15,20.15,0,0,1,3.35-.23c2.94,0,4.41,1.2,4.41,3.58Zm-6.21,0H15.52V19l1.27-.36Z" style="fill:#231f20"/><path d="M26.6,20l-1.27.44v-5.5H26.6Z" style="fill:#231f20"/><path d="M36.65,24.18H35.38V18.41c0-1.8-1.06-2.7-3.17-2.7a15.75,15.75,0,0,0-3.32.34V15a20.15,20.15,0,0,1,3.35-.23c2.94,0,4.41,1.2,4.41,3.58Zm-6.21,0H29.17V19l1.27-.36Z" style="fill:#231f20"/><path d="M51.79,24.18H43.64V14.92h4.74a3.36,3.36,0,0,1,2.44.95,3.28,3.28,0,0,1,1,2.42Zm-1.27-1V18.43a2.48,2.48,0,0,0-.69-1.88,2.64,2.64,0,0,0-1.91-.66h-3v7.3Z" style="fill:#231f20"/><path d="M61.26,17.76a6.85,6.85,0,0,1-1.06,4.13,8.13,8.13,0,0,1-3.56,2.34l-2.79,1.06V24.13l2.28-.81Q54.8,19,53.39,14.92h1.48c.57,1.86,1.34,4.52,2.33,8A4.51,4.51,0,0,0,59.39,21,5.81,5.81,0,0,0,60,18.2V14.92h1.27Z" style="fill:#231f20"/><path d="M71.31,24.18H70V18.41c0-1.8-1.06-2.7-3.17-2.7a15.75,15.75,0,0,0-3.32.34V15a20.15,20.15,0,0,1,3.35-.23c2.94,0,4.41,1.2,4.41,3.58Zm-6.21,0H63.83V19l1.27-.36Z" style="fill:#231f20"/><path d="M79.57,27.46H78.3V14.92h1.27Z" style="fill:#231f20"/><path d="M83.31,24.18H82V14.92h1.27Z" style="fill:#231f20"/><path d="M93.75,24.18H92.34q-1.22-1.93-3.86-5.36a2.51,2.51,0,0,0-1,1.08,3.08,3.08,0,0,0-.4,1.48v2.8H85.78V21.6a3.68,3.68,0,0,1,.65-2A3.26,3.26,0,0,1,88,18.2c-.27-.38-.67-.87-1.18-1.5l-1.49-1.78h1.49c.7.85,1.91,2.38,3.61,4.6a1.89,1.89,0,0,0,1-.81,2.1,2.1,0,0,0,.47-1.25V14.92H93.2v2a3.52,3.52,0,0,1-2.29,3.3C92.11,21.79,93.05,23.11,93.75,24.18Z" style="fill:#231f20"/><path d="M96.92,20l-1.27.44v-5.5h1.27Z" style="fill:#231f20"/><path d="M103.15,15.91h-1a1.89,1.89,0,0,0-.78,1,3.38,3.38,0,0,0-.28,1.29v5.94H99.85V19.07a3.71,3.71,0,0,1,1.57-3.16l-2.77,0v-1h4.5Z" style="fill:#231f20"/><path d="M106.22,24.18H105V14.92h1.27Z" style="fill:#231f20"/><path d="M117.77,19.15a6.74,6.74,0,0,1-.83,3.55,3.29,3.29,0,0,1-3,1.69,4.65,4.65,0,0,1-1.64-.23v-1a4.69,4.69,0,0,0,1.59.23q2.56,0,2.57-4.15a4.51,4.51,0,0,0-.55-2.17,2.24,2.24,0,0,0-2-1.34c-1,0-1.8.64-2.47,1.91a8.51,8.51,0,0,0-1,3l-.48,3.53h-1.29c.18-1.09.36-2.3.53-3.62a12.52,12.52,0,0,0,.13-1.62,9.4,9.4,0,0,0-.45-2.19q-.14-.53-.51-1.83h1.38c.18.71.41,1.74.7,3.1A5.64,5.64,0,0,1,112,15.29a3.13,3.13,0,0,1,1.94-.55,3.39,3.39,0,0,1,2.8,1.36A4.77,4.77,0,0,1,117.77,19.15Z" style="fill:#231f20"/><path d="M32.4,41.64H31.15v-5.8A2.35,2.35,0,0,0,30.44,34a2.78,2.78,0,0,0-1.92-.63H26.1V40a1.7,1.7,0,0,1-.6,1.41,2.41,2.41,0,0,1-1.56.49,2.37,2.37,0,0,1-1.2-.26v-1a2.28,2.28,0,0,0,.91.28,1.05,1.05,0,0,0,1.18-1.2V33.37H23v-1h6a3.48,3.48,0,0,1,2.5.85,3.23,3.23,0,0,1,.9,2.46Z" style="fill:#231f20"/><path d="M36.07,41.64H34.8V32.38h1.27Z" style="fill:#231f20"/><path d="M45.49,41.64H38.27v-1l5.74,0q-.88-1.16-2.75-3.81c-1.47-2.08-2.54-3.58-3.2-4.48h1.52q1,1.4,3.26,4.62a2.85,2.85,0,0,0,1.38-2.29V32.38h1.27v1.9a3.33,3.33,0,0,1-.58,2,5.46,5.46,0,0,1-1.59,1.35l2.17,3.25Z" style="fill:#231f20"/><path d="M48.93,41.64H47.66V32.38h1.27Z" style="fill:#231f20"/><path d="M59.26,37a4.75,4.75,0,0,1-1.36,3.59,5,5,0,0,1-3.66,1.31,8.34,8.34,0,0,1-2.77-.44V40.4a8.19,8.19,0,0,0,2.56.53q3.88,0,3.89-3.93t-3.24-3.92a3.08,3.08,0,0,0-1.76.46,1.79,1.79,0,0,0-.78,1.59,1.36,1.36,0,0,0,.55,1.17,2.08,2.08,0,0,0,1.32.42,1.87,1.87,0,0,0,.4,0v1a4.4,4.4,0,0,1-.63.08c-1.94,0-2.91-.85-2.91-2.53a2.69,2.69,0,0,1,1.25-2.4,5,5,0,0,1,2.73-.67,4.14,4.14,0,0,1,3.37,1.36A5.35,5.35,0,0,1,59.26,37Z" style="fill:#231f20"/><path d="M70.32,41.64H69.07v-5.8a2.35,2.35,0,0,0-.7-1.84,2.8,2.8,0,0,0-1.93-.63H64V40a1.7,1.7,0,0,1-.61,1.41,2.41,2.41,0,0,1-1.56.49,2.37,2.37,0,0,1-1.2-.26v-1a2.28,2.28,0,0,0,.91.28,1.06,1.06,0,0,0,1.19-1.2V33.37H60.89v-1h6a3.46,3.46,0,0,1,2.5.85,3.23,3.23,0,0,1,.9,2.46Z" style="fill:#231f20"/><path d="M80.4,41.64H79.13V35.87q0-2.7-3.18-2.7a15.18,15.18,0,0,0-3.32.34V32.43A20.19,20.19,0,0,1,76,32.2c2.94,0,4.41,1.2,4.41,3.58Zm-6.21,0H72.92v-5.2l1.27-.36Z" style="fill:#231f20"/><path d="M96.41,41.64H95.16v-5.8A2.35,2.35,0,0,0,94.45,34a2.78,2.78,0,0,0-1.92-.63H90.11V40a1.7,1.7,0,0,1-.6,1.41,2.41,2.41,0,0,1-1.56.49,2.37,2.37,0,0,1-1.2-.26v-1a2.28,2.28,0,0,0,.91.28,1.06,1.06,0,0,0,1.19-1.2V33.37H87v-1h6a3.48,3.48,0,0,1,2.5.85,3.23,3.23,0,0,1,.9,2.46Z" style="fill:#231f20"/><path d="M100,37.44l-1.27.44v-5.5H100Z" style="fill:#231f20"/><path d="M109.43,41.64h-7.71v-1H107v-5a2.22,2.22,0,0,0-.85-1.82,3,3,0,0,0-1.94-.67,8.2,8.2,0,0,0-2.29.32v-1a10.33,10.33,0,0,1,2.28-.23A4.61,4.61,0,0,1,107,33a3.1,3.1,0,0,1,1.22,2.63v5h1.2Z" style="fill:#231f20"/><path d="M118.14,41.64h-7.71v-1h5.24v-5a2.24,2.24,0,0,0-.84-1.82,3.08,3.08,0,0,0-1.94-.67,8.27,8.27,0,0,0-2.3.32v-1a10.33,10.33,0,0,1,2.28-.23,4.64,4.64,0,0,1,2.86.83,3.09,3.09,0,0,1,1.21,2.63v5h1.2Z" style="fill:#231f20"/></g></g></svg>