<svg xmlns="http://www.w3.org/2000/svg" viewBox="0 0 406.2 127.56"><title>BH-Logo4070-Eng-Update</title><g id="Layer_2" data-name="Layer 2"><g id="Layer_1-2" data-name="Layer 1"><path d="M225.78,38.7a13.88,13.88,0,1,1,13.88-13.88A13.88,13.88,0,0,1,225.78,38.7m0-34.78a20.91,20.91,0,1,0,20.91,20.9,20.93,20.93,0,0,0-20.91-20.9" style="fill:#46c3d3"/><polygon points="29.11 35.68 29.11 45.83 22.99 45.83 22.99 35.68 0 35.68 20.12 5.03 26.96 5.03 12.53 29.91 22.99 29.91 22.99 16.77 29.11 17.66 29.11 29.91 33.01 29.91 33.01 35.68 29.11 35.68" style="fill:#fbaf33"/><path d="M184.83,45.28h6.93c.86-17.08,7.11-27.33,14.23-34.94L211.6,5H176.14L176,11.41h20.9c-5.61,7.57-11,17.55-12.06,33.87" style="fill:#46c3d3"/><path d="M61.74,39.47a14.05,14.05,0,0,1-1.94.15A13.88,13.88,0,1,1,73.68,25.75a14.1,14.1,0,0,1-.11,1.67h7.05c0-.56.09-1.11.09-1.68A21,21,0,1,0,65.42,45.86Z" style="fill:#fbaf33"/><path d="M113.88,117.84l5.65,9.71,5.52-9.73a11.23,11.23,0,0,0-11.17,0" style="fill:#fbaf33"/><path d="M75.15,31.47H63.91l5.59,9.69a11.2,11.2,0,0,0,4.11-4.06,11.32,11.32,0,0,0,1.55-5.63" style="fill:#46c3d3"/><polygon points="84.8 87.53 78.46 89.24 77.16 96.53 86.07 96.54 84.8 87.53" style="fill:#be3527"/><polygon points="72.32 46.01 81.92 46.89 80.64 60.39 72.32 46.01" style="fill:#be3527"/><polygon points="69.16 87.56 64 96.54 74.31 96.53 75.55 89.51 69.16 87.56" style="fill:#fbaf33"/><path d="M119.09,0l-6.91,12.08s11-2.32,12.31-2.63c0,0-1.84-3.38-5.4-9.45" style="fill:#be3527"/><polygon points="84.2 67.02 82.5 64.24 76.87 74.08 80.48 76.12 84.2 67.02" style="fill:#2d3380"/><polygon points="157.3 49.69 160.45 39.78 168.56 41.62 163.22 50.95 157.3 49.69" style="fill:#2d3380"/><polygon points="108.75 108.91 117.95 107.39 113.05 99.36 106.25 104.58 108.75 108.91" style="fill:#be3527"/><path d="M105.18,102.69l7.65-6s-1.91,0-11.11,0Z" style="fill:#fbaf33"/><polygon points="151.18 54.6 156.13 63.04 161.85 53.06 156.34 51.85 151.18 54.6" style="fill:#be3527"/><polygon points="120.78 106.41 122.35 113.17 126.66 114.95 130.82 107.63 120.78 106.41" style="fill:#46c3d3"/><polygon points="169.21 86.64 174.98 96.6 166.08 96.6 169.21 86.64" style="fill:#be3527"/><polygon points="118.88 13.51 110.4 15.33 105.35 24.24 114.15 24.05 118.88 13.51" style="fill:#46c3d3"/><path d="M161,85.71l6.89-1.15-4.07-6.94L153,77.27s3.27,3.45,8,8.44" style="fill:#46c3d3"/><polygon points="128.44 27.2 132.79 23.5 126.39 12.35 122.49 13.16 119.75 19.11 128.44 27.2" style="fill:#fbaf33"/><polygon points="151.2 39.33 157.66 39.42 160.18 31.55 153.61 31.55 151.2 39.33" style="fill:#be3527"/><polygon points="151.26 90.18 151.94 79.78 160.05 88.36 154.94 91.12 151.26 90.18" style="fill:#cbeaf0"/><polygon points="106.59 61.29 100.54 57.21 94.62 66.73 102.42 70.99 106.59 61.29" style="fill:#46c3d3"/><path d="M106.6,89.27l7.32-8.48-4.34-2.7s-5.45,3.13-8.11,4.85Z" style="fill:#46c3d3"/><path d="M98.28,82.15s8-4.87,9.09-5.49c0,0-6.67-3.86-7.77-4.41Z" style="fill:#fbaf33"/><polygon points="90.44 50.49 94.84 62.23 88.03 68.12 84.07 61.42 90.44 50.49" style="fill:#be3527"/><polygon points="106.61 47.46 112.3 53.09 117.7 51.37 115.45 41.35 106.61 47.46" style="fill:#cbeaf0"/><polygon points="126.54 51.81 123.33 33.98 116.76 35.48 119.54 47.08 126.54 51.81" style="fill:#46c3d3"/><polygon points="140.35 49.01 128.38 48.86 132.14 59.06 140.35 49.01" style="fill:#cbeaf0"/><polygon points="148.82 90.22 142.27 87.9 148.32 77.2 148.82 90.22" style="fill:#2d3380"/><polygon points="149.08 55.95 154.53 65.42 146.01 64.24 149.08 55.95" style="fill:#fbaf33"/><polygon points="150.77 67.91 135.87 64.27 139.59 71.81 147.06 74.48 150.77 67.91" style="fill:#cbeaf0"/><polygon points="96.4 59.26 103.43 47.74 98.6 42.92 93.03 50.05 96.4 59.26" style="fill:#2d3380"/><polygon points="91.72 31.47 94.86 31.47 99.21 37.77 92.14 46.93 91.72 31.47" style="fill:#46c3d3"/><polygon points="98.83 96.54 88.33 96.54 87.21 88.99 98.83 96.54" style="fill:#46c3d3"/><polygon points="99.14 34.98 102.34 37.68 110.85 26.84 103.8 26.89 99.14 34.98" style="fill:#be3527"/><polygon points="90.29 77.27 87.65 86.16 92.86 89.5 96.64 81.07 90.29 77.27" style="fill:#be3527"/><path d="M85.64,84.39s2.9-9.71,2.9-9.77l-2.89-5.06L78.93,86.21Z" style="fill:#cbeaf0"/><path d="M112.22,114.91l7.26-1.67c-.41-1.72-.82-3.5-.82-3.5L110,111.16Z" style="fill:#46c3d3"/><path d="M125.5,94.35l-6.72-.25a13.27,13.27,0,0,1-2.94,5.48l4.77,4.84a12.75,12.75,0,0,0,4.89-10.07" style="fill:#cbeaf0"/><path d="M158.46,96.6h5l2.14-8.76-8.8,5.5Z" style="fill:#fbaf33"/><path d="M162.58,75.25l-4.4-7.59-5,1.48s-2.72,4.68-3.11,5.51Z" style="fill:#be3527"/><polygon points="155.59 96.6 153.88 93.38 143.52 90.72 139.39 96.54 155.59 96.6" style="fill:#46c3d3"/><polygon points="140.59 90.81 132.74 84.12 126.9 93.11 137 96.93 140.59 90.81" style="fill:#be3527"/><path d="M119.92,91.89l6.59-3.18,3.25-6s-11.82-2-11.82-2Z" style="fill:#fbaf33"/><path d="M114.52,83.6l-6.74,7.84,6.8,3.87c1.71-1.35,2.61-4.3,2.5-6.35,0-.07,0-.13,0-.19a7.86,7.86,0,0,0-2.55-5.17" style="fill:#be3527"/><path d="M76.4,86.87l3.38-8.19L75.6,76.37s-5,8.7-5,8.76Z" style="fill:#46c3d3"/><path d="M125.24,104.56l6.85.93c.15-.24,3.66-6.48,3.73-6.61l-7.22-2.71a13.17,13.17,0,0,1-3.36,8.38" style="fill:#2d3380"/><polygon points="99.33 84.11 107.62 94.27 100.16 94.24 94.96 90.84 99.33 84.11" style="fill:#2d3380"/><path d="M91.53,74.75a7,7,0,0,0,4.93,3.32l1-7L93,68.59l-1.59-.87a7,7,0,0,0,.12,7" style="fill:#2d3380"/><polygon points="151.07 50.49 154.19 51.14 157.2 42.13 146.23 42 151.07 50.49" style="fill:#cbeaf0"/><polygon points="125.4 62.76 129.88 60.41 128.57 56.41 121.43 51.6 115 55.62 125.4 62.76" style="fill:#2d3380"/><polygon points="109.37 62.57 116.97 67.63 123.38 64.02 115.77 59.09 109.37 62.57" style="fill:#46c3d3"/><path d="M121.69,67.9A11.13,11.13,0,0,0,135.31,71l-4.12-8.32Z" style="fill:#fbaf33"/><polygon points="123.31 31.31 114.88 33.19 111.89 30.5 118.57 21.67 126.12 28.86 123.31 31.31" style="fill:#cbeaf0"/><path d="M133.25,61.14l7.36-7.64a9.27,9.27,0,0,1,2.55,10.05Z" style="fill:#2d3380"/><path d="M144.33,54.47A11.16,11.16,0,0,1,145.4,57l3.9-4.92L144.61,44l-2.47,7.79a10.89,10.89,0,0,1,2.19,2.68" style="fill:#46c3d3"/><path d="M132.2,39.37l-6-1.59,1.48,8.43h2.07a10.92,10.92,0,0,1,2.42-6.84" style="fill:#46c3d3"/><polygon points="174.3 31.57 169.94 39.14 161.44 37.16 163.14 31.57 174.3 31.57" style="fill:#46c3d3"/><polygon points="113.46 57.38 108.96 59.89 102.05 55.29 105.42 49.61 113.46 57.38" style="fill:#be3527"/><polygon points="109.63 32.09 101.7 42.49 105.13 45.65 114.77 38.9 114.34 36.59 109.63 32.09" style="fill:#fbaf33"/><polygon points="146.05 76.61 142.56 82.73 136.84 73.36 146.05 76.61" style="fill:#46c3d3"/><path d="M139.55,86.65a11.19,11.19,0,0,0,.24-2.15A10.86,10.86,0,0,0,135,75.44L134,82Z" style="fill:#cbeaf0"/><polyline points="108.09 64.56 104.74 72.3 114.83 78.05 121.27 72.35" style="fill:#cbeaf0"/><polygon points="89.83 37.12 89.6 31.47 78.44 31.47 85.34 40.83 89.83 37.12" style="fill:#2d3380"/><polygon points="71.27 43.33 81.18 44.19 83.21 42.51 78.13 35.03 71.27 43.33" style="fill:#fbaf33"/><polygon points="84.27 56.75 89.91 47.03 89.74 40.43 84.6 44.74 83.61 55.75 84.27 56.75" style="fill:#cbeaf0"/><polygon points="131.81 80.63 132.94 74.39 123.48 73.34 118.38 78.42 131.81 80.63" style="fill:#be3527"/><polygon points="139.88 31.53 143.88 39.24 148.88 39.3 151.31 31.55 139.88 31.53" style="fill:#fbaf33"/><path d="M132.1,46.61l9.24.12L143,41.5l-2.45-4.15a9.28,9.28,0,0,0-8.42,9.24Z" style="fill:#be3527"/><path d="M125.94,32.92l.44,2.6,8.06,2.11a11,11,0,0,1,1.39-1,10.75,10.75,0,0,1,3.65-1.32L134.28,26s-4,3.29-8.34,6.88" style="fill:#2d3380"/><rect x="140.43" y="17.24" width="1.32" height="10.2" style="fill:#46c3d3"/><path d="M143.32,25.14l1.2-.49a2.54,2.54,0,0,0,2.54,1.73c1.17,0,2.15-.57,2.15-1.67s-.62-1.39-1.43-1.65l-1.75-.5a2.56,2.56,0,0,1-2.18-2.66A2.88,2.88,0,0,1,147,17.06a3.22,3.22,0,0,1,3.31,2l-1.14.49A2.23,2.23,0,0,0,147,18.24c-.92,0-1.84.47-1.84,1.55,0,.77.52,1.26,1.54,1.56l1.76.52a2.57,2.57,0,0,1,2.06,2.73c0,1.79-1.43,3-3.5,3a3.54,3.54,0,0,1-3.69-2.47" style="fill:#46c3d3"/><path d="M155.53,22.25c1.32,0,2.11-.63,2.11-1.93s-.86-1.9-2.14-1.9h-2v3.83Zm-3.3-5h3.53a2.93,2.93,0,0,1,3.18,3.09,2.87,2.87,0,0,1-2.19,2.95l2.65,4.16h-1.45l-2.56-4h-1.83v4h-1.32Z" style="fill:#46c3d3"/><path d="M165.85,23.55l-1.52-4.64h0l-1.55,4.64Zm-2.11-6.32H165l3.54,10.21h-1.39l-.89-2.7h-3.84l-.92,2.7h-1.32Z" style="fill:#46c3d3"/><polygon points="169.96 17.23 176.29 17.23 176.29 18.47 171.28 18.47 171.28 21.58 175.56 21.58 175.56 22.81 171.28 22.81 171.28 26.2 176.32 26.2 176.32 27.44 169.96 27.44 169.96 17.23" style="fill:#46c3d3"/><polygon points="178.24 17.24 179.56 17.24 179.56 26.2 184.42 26.2 184.42 27.44 178.24 27.44 178.24 17.24" style="fill:#46c3d3"/><g id="_Group_" data-name="&lt;Group&gt;"><g id="_Group_2" data-name="&lt;Group&gt;"><path d="M184.44,55.83h8.43c3.1-.05,6.51.76,6.51,4.52A4.05,4.05,0,0,1,197,64a4.28,4.28,0,0,1,3.1,4.27c0,4.29-3.16,5.6-7,5.6h-8.66Zm4.7,7.09h3.63a1.75,1.75,0,0,0,1.92-1.72c0-1.31-.93-1.74-1.92-1.74h-3.63Zm0,7.17h3.76c1.49,0,2.52-.53,2.52-2S194.31,66,192.9,66h-3.76Z" style="fill:#333"/><path d="M202.66,55.83H217v3.76h-9.67v3.16h8.84v3.64h-8.84v3.43h9.92v4H202.66Z" style="fill:#333"/><path d="M219.94,55.83h4.7v18h-4.7Z" style="fill:#333"/><path d="M242.18,59.87H236.8v14h-4.7v-14h-5.38v-4h15.45Z" style="fill:#333"/><path d="M252.14,55.83h4.7v6.56H263V55.83h4.7v18H263V66.43h-6.18v7.42h-4.7Z" style="fill:#333"/><path d="M275.78,55.83h4.77l6.74,18h-4.9l-1.11-3.23H275l-1.14,3.23H269Zm.3,11.31h4.09l-2-6.31h-.05Z" style="fill:#333"/><path d="M302.93,59.87h-5.38v14h-4.7v-14h-5.38v-4h15.45Z" style="fill:#333"/><path d="M305,55.83h13.28v3.76h-8.58v3.69h7.42v3.64h-7.42v6.94H305Z" style="fill:#333"/><path d="M336,66.41c0,5.23-2.4,7.83-7.85,7.83s-7.85-2.6-7.85-7.83V55.83H325V66.68c0,2.32.86,3.51,3.16,3.51s3.16-1.19,3.16-3.51V55.83H336Z" style="fill:#333"/><path d="M353.4,59.87H348v14h-4.7v-14h-5.38v-4H353.4Z" style="fill:#333"/><path d="M359.12,67.8c.1,2.12,1.41,2.8,3.41,2.8,1.41,0,2.88-.51,2.88-1.84,0-1.59-2.57-1.89-5.18-2.63S355,64.24,355,60.93c0-3.94,4-5.48,7.35-5.48,3.59,0,7.19,1.74,7.22,5.81h-4.7c.08-1.64-1.46-2.17-2.9-2.17-1,0-2.27.35-2.27,1.54,0,1.39,2.6,1.64,5.23,2.37s5.23,1.94,5.23,5.2c0,4.57-3.89,6-7.85,6-4.14,0-7.8-1.82-7.83-6.44Z" style="fill:#333"/><path d="M380.49,55.45c5.68,0,8.89,4.17,8.89,9.39s-3.21,9.39-8.89,9.39-8.89-4.17-8.89-9.39S374.81,55.45,380.49,55.45Zm0,14.74c3,0,4.19-2.68,4.19-5.35s-1.16-5.35-4.19-5.35-4.19,2.68-4.19,5.35S377.46,70.19,380.49,70.19Z" style="fill:#333"/><path d="M406.2,59.87h-5.38v14h-4.7v-14h-5.38v-4H406.2Z" style="fill:#333"/><path d="M188,85.38h-5.14V83.65h12.34v1.73h-5.14v13.7H188Z" style="fill:#333"/><path d="M196.62,83.65h1.84v5.9h0a3.78,3.78,0,0,1,3.52-1.9c2.94,0,3.85,1.69,3.85,4.08v7.35H204V91.52a2.1,2.1,0,0,0-2.27-2.25c-2.23,0-3.31,1.49-3.31,3.5v6.31h-1.84Z" style="fill:#333"/><path d="M218.18,95.54a4.5,4.5,0,0,1-4.78,3.8c-3.57,0-5.25-2.46-5.36-5.88s2.21-5.81,5.25-5.81c4,0,5.17,3.7,5.06,6.4H210a3.29,3.29,0,0,0,3.48,3.67,2.69,2.69,0,0,0,2.9-2.18Zm-1.77-3.11a3.22,3.22,0,0,0-3.22-3.16,3.18,3.18,0,0,0-3.2,3.16Z" style="fill:#333"/><path d="M226.62,83.65h2.81l4.86,13,4.89-13H242V99.09H240V86.25h0l-4.82,12.84h-1.75l-4.82-12.84h0V99.09h-1.95Z" style="fill:#333"/><path d="M254.36,99.09h-1.73V97.31h0a3.89,3.89,0,0,1-3.63,2c-2.94,0-3.85-1.69-3.85-4.08V87.91h1.84v7.57a2.11,2.11,0,0,0,2.27,2.25c2.23,0,3.31-1.49,3.31-3.5V87.91h1.84Z" style="fill:#333"/><path d="M258.26,95.56c.07,1.64,1.49,2.16,3,2.16,1.15,0,2.7-.26,2.7-1.66s-1.81-1.66-3.65-2.08-3.65-1-3.65-3.16,2.23-3.18,4.17-3.18c2.46,0,4.43.78,4.58,3.5h-1.84c-.13-1.43-1.38-1.88-2.59-1.88s-2.38.3-2.38,1.43c0,1.32,1.95,1.53,3.65,1.95s3.65,1,3.65,3.18c0,2.66-2.49,3.52-4.75,3.52-2.51,0-4.63-1-4.73-3.78Z" style="fill:#333"/><path d="M277.48,95.54a4.5,4.5,0,0,1-4.78,3.8c-3.57,0-5.25-2.46-5.36-5.88s2.21-5.81,5.25-5.81c4,0,5.17,3.7,5.06,6.4h-8.37a3.29,3.29,0,0,0,3.48,3.67,2.69,2.69,0,0,0,2.9-2.18Zm-1.77-3.11a3.22,3.22,0,0,0-3.22-3.16,3.18,3.18,0,0,0-3.2,3.16Z" style="fill:#333"/><path d="M288.81,99.09h-1.73V97.31h0a3.89,3.89,0,0,1-3.63,2c-2.94,0-3.85-1.69-3.85-4.08V87.91h1.84v7.57a2.1,2.1,0,0,0,2.27,2.25c2.23,0,3.31-1.49,3.31-3.5V87.91h1.84Z" style="fill:#333"/><path d="M291.58,87.91h1.73v1.64h0a4.12,4.12,0,0,1,3.61-1.9,3,3,0,0,1,3.07,1.9,4.14,4.14,0,0,1,3.5-1.9c2.23,0,3.72.93,3.72,3.24v8.19h-1.84V91.76c0-1.38-.37-2.49-2.16-2.49a2.71,2.71,0,0,0-2.92,2.85v7H298.5V91.76c0-1.45-.45-2.49-2.1-2.49a3,3,0,0,0-3,2.85v7h-1.84Z" style="fill:#333"/><path d="M320.86,87.65c3.55,0,5.43,2.57,5.43,5.86s-1.88,5.84-5.43,5.84-5.42-2.57-5.42-5.84S317.32,87.65,320.86,87.65Zm0,10.07c1.93,0,3.48-1.51,3.48-4.21s-1.56-4.24-3.48-4.24-3.48,1.51-3.48,4.24S318.94,97.72,320.86,97.72Z" style="fill:#333"/><path d="M329.21,89.53h-1.88V87.91h1.88V86.25c0-1.82,1.08-2.77,3.09-2.77a4.5,4.5,0,0,1,1.19.17v1.6a3.44,3.44,0,0,0-1-.15c-.89,0-1.4.28-1.4,1.25v1.56h2.16v1.62h-2.16v9.55h-1.84Z" style="fill:#333"/><path d="M343.42,87.91h2.23v1.62h-2.23v6.94c0,.84.24,1,1.38,1h.84v1.62h-1.4c-1.9,0-2.66-.39-2.66-2.44V89.53h-1.9V87.91h1.9V84.56h1.84Z" style="fill:#333"/><path d="M347.68,83.65h1.84v5.9h0a3.78,3.78,0,0,1,3.52-1.9c2.94,0,3.85,1.69,3.85,4.08v7.35H355.1V91.52a2.1,2.1,0,0,0-2.27-2.25c-2.23,0-3.31,1.49-3.31,3.5v6.31h-1.84Z" style="fill:#333"/><path d="M369.24,95.54a4.51,4.51,0,0,1-4.78,3.8c-3.57,0-5.25-2.46-5.36-5.88s2.21-5.81,5.25-5.81c4,0,5.17,3.7,5.06,6.4H361a3.29,3.29,0,0,0,3.48,3.67,2.69,2.69,0,0,0,2.9-2.18Zm-1.77-3.11a3.22,3.22,0,0,0-3.22-3.16,3.18,3.18,0,0,0-3.2,3.16Z" style="fill:#333"/><path d="M192.36,116.87c0,2.1-1.1,4.21-4.56,4.21-2.87,0-4.5-1.6-4.5-4.5v-1h2.05v.65c0,1.79.48,3.07,2.49,3.07s2.46-1.08,2.46-2.79V105.28h2.05Z" style="fill:#333"/><path d="M205,117.17a4.5,4.5,0,0,1-4.78,3.8c-3.57,0-5.25-2.46-5.36-5.88s2.21-5.81,5.25-5.81c4,0,5.17,3.7,5.06,6.4h-8.37a3.29,3.29,0,0,0,3.48,3.67,2.69,2.69,0,0,0,2.9-2.18Zm-1.77-3.11A3.22,3.22,0,0,0,200,110.9a3.18,3.18,0,0,0-3.2,3.16Z" style="fill:#333"/><path d="M218.11,120.71h-1.95l-2.27-8.88h0l-2.25,8.88h-2L206,109.54h2l2.53,9.14h0l2.25-9.14h2l2.33,9.14h0l2.51-9.14h1.9Z" style="fill:#333"/><path d="M225.38,107.53h-1.84v-2.25h1.84Zm-1.84,2h1.84v11.18h-1.84Z" style="fill:#333"/><path d="M229.36,117.19c.07,1.64,1.49,2.16,3,2.16,1.15,0,2.7-.26,2.7-1.66s-1.82-1.66-3.65-2.08-3.65-1-3.65-3.16,2.23-3.18,4.17-3.18c2.46,0,4.43.78,4.58,3.5h-1.84c-.13-1.43-1.38-1.88-2.59-1.88s-2.38.3-2.38,1.43c0,1.32,1.94,1.53,3.65,1.95s3.65,1,3.65,3.18c0,2.66-2.49,3.52-4.76,3.52-2.51,0-4.63-1-4.73-3.78Z" style="fill:#333"/><path d="M239.05,105.28h1.84v5.9h0a3.78,3.78,0,0,1,3.52-1.9c2.94,0,3.85,1.69,3.85,4.08v7.35h-1.84v-7.57a2.1,2.1,0,0,0-2.27-2.25c-2.23,0-3.31,1.49-3.31,3.5v6.31h-1.84Z" style="fill:#333"/><path d="M257.39,105.28h6.77c3.07,0,4.73,1.71,4.73,4.56s-1.66,4.58-4.73,4.56h-4.71v6.31h-2.05Zm2.05,7.39h4c2.31,0,3.37-1,3.37-2.83s-1.06-2.83-3.37-2.83h-4Z" style="fill:#333"/><path d="M280.64,117.17a4.5,4.5,0,0,1-4.78,3.8c-3.57,0-5.25-2.46-5.36-5.88s2.21-5.81,5.25-5.81c4,0,5.17,3.7,5.06,6.4h-8.37a3.29,3.29,0,0,0,3.48,3.67,2.69,2.69,0,0,0,2.9-2.18Zm-1.77-3.11a3.22,3.22,0,0,0-3.22-3.16,3.18,3.18,0,0,0-3.2,3.16Z" style="fill:#333"/><path d="M287.54,109.28c3.55,0,5.43,2.57,5.43,5.86s-1.88,5.84-5.43,5.84-5.42-2.57-5.42-5.84S284,109.28,287.54,109.28Zm0,10.07c1.93,0,3.48-1.51,3.48-4.21s-1.56-4.24-3.48-4.24-3.48,1.51-3.48,4.24S285.61,119.35,287.54,119.35Z" style="fill:#333"/><path d="M295.2,109.54H297v1.51h0a3.76,3.76,0,0,1,3.57-1.77c3.44,0,5.14,2.72,5.14,5.88s-1.69,5.81-5.1,5.81a4.28,4.28,0,0,1-3.61-1.75h0V125H295.2Zm5.19,1.36c-2.46,0-3.42,2.12-3.42,4.22s1,4.24,3.52,4.24,3.35-2.14,3.35-4.32S302.76,110.9,300.38,110.9Z" style="fill:#333"/><path d="M308.06,105.28h1.84v15.43h-1.84Z" style="fill:#333"/><path d="M322.29,117.17a4.5,4.5,0,0,1-4.78,3.8c-3.57,0-5.25-2.46-5.36-5.88s2.21-5.81,5.25-5.81c4,0,5.17,3.7,5.06,6.4H314.1a3.29,3.29,0,0,0,3.48,3.67,2.69,2.69,0,0,0,2.9-2.18Zm-1.77-3.11a3.22,3.22,0,0,0-3.22-3.16,3.18,3.18,0,0,0-3.2,3.16Z" style="fill:#333"/></g></g></g></g></svg>