<svg xmlns="http://www.w3.org/2000/svg" viewBox="0 0 718.38 278.04"><title>Logo BH Hebrew</title><g id="Layer_2" data-name="Layer 2"><g id="Layer_1-2" data-name="Layer 1"><path d="M597.5,278l-12.32-21.17a24.53,24.53,0,0,1,24.37,0L597.5,278" style="fill:#fbaf34"/><path d="M488.47,89.71,476.29,68.6h24.5a24.72,24.72,0,0,1-3.4,12.29,24.39,24.39,0,0,1-8.92,8.82" style="fill:#46c3d3"/><polyline points="524.56 210.45 505.17 210.41 508 194.53 521.79 190.79 524.56 210.45" style="fill:#be3526"/><polyline points="512.74 131.65 494.6 100.28 515.53 102.19 512.74 131.65" style="fill:#be3526"/><polyline points="476.45 210.45 487.69 190.86 501.63 195.13 498.94 210.41 476.45 210.45" style="fill:#fbaf34"/><path d="M581.48,26.32,596.52,0c7.78,13.23,11.79,20.6,11.79,20.6-2.83.67-26.83,5.72-26.83,5.72" style="fill:#be3526"/><polyline points="512.4 165.92 504.53 161.47 516.78 140.03 520.48 146.09 512.4 165.92" style="fill:#2d3481"/><polyline points="692.73 111.05 679.84 108.32 686.7 86.71 704.37 90.75 692.73 111.05" style="fill:#2d3481"/><polyline points="574 237.41 568.55 227.95 583.4 216.58 594.06 234.08 574 237.41" style="fill:#be3526"/><path d="M566.23,223.85l-7.55-13c20.07,0,24.24,0,24.24,0l-16.69,13" style="fill:#fbaf34"/><polyline points="677.27 137.4 666.51 119.03 677.75 113.03 689.76 115.66 677.27 137.4" style="fill:#be3526"/><polyline points="613.05 250.57 603.66 246.7 600.23 231.96 622.14 234.62 613.05 250.57" style="fill:#46c3d3"/><polyline points="718.38 210.55 698.99 210.55 705.78 188.84 718.38 210.55" style="fill:#be3526"/><polyline points="566.6 52.85 577.61 33.43 596.09 29.45 585.79 52.41 566.6 52.85" style="fill:#46c3d3"/><path d="M688,186.82c-10.41-10.87-17.51-18.38-17.51-18.38l23.66.74L703,184.33l-15,2.49" style="fill:#46c3d3"/><polyline points="616.96 59.31 598.01 41.67 603.96 28.68 612.48 26.93 626.42 51.23 616.96 59.31" style="fill:#fbaf34"/><polyline points="680.61 85.94 666.54 85.73 671.79 68.77 686.1 68.77 680.61 85.94" style="fill:#be3526"/><polyline points="674.69 198.63 666.67 196.58 668.16 173.93 685.83 192.61 674.69 198.63" style="fill:#caeaee"/><polyline points="560.23 154.74 543.21 145.45 556.13 124.71 569.33 133.6 560.23 154.74" style="fill:#46c3d3"/><path d="M569.33,194.6l-11.18-13.81c5.79-3.73,17.67-10.57,17.67-10.57l9.46,5.89L569.33,194.6" style="fill:#46c3d3"/><path d="M551.18,179.08l2.93-21.55c2.39,1.18,16.9,9.6,16.9,9.6-2.36,1.34-19.83,12-19.83,12" style="fill:#fbaf34"/><polyline points="528.87 148.48 520.22 133.87 534.08 110.04 543.67 135.65 528.87 148.48" style="fill:#be3526"/><polyline points="581.75 115.73 569.33 103.47 588.61 90.14 593.53 111.99 581.75 115.73" style="fill:#caeaee"/><polyline points="612.78 112.93 597.53 102.63 591.48 77.35 605.78 74.05 612.78 112.93" style="fill:#46c3d3"/><polyline points="625 128.72 616.79 106.5 642.91 106.84 625 128.72" style="fill:#caeaee"/><polyline points="661.36 196.68 647.08 191.6 660.27 168.27 661.36 196.68" style="fill:#2d3481"/><polyline points="673.81 142.59 655.23 140.03 661.93 121.99 673.81 142.59" style="fill:#fbaf34"/><polyline points="657.52 162.35 641.22 156.52 633.12 140.1 665.59 148.04 657.52 162.35" style="fill:#caeaee"/><polyline points="547.11 129.19 539.74 109.09 551.89 93.54 562.39 104.08 547.11 129.19" style="fill:#2d3481"/><polyline points="537.78 102.3 536.88 68.6 543.75 68.6 553.2 82.33 537.78 102.3" style="fill:#46c3d3"/><polyline points="552.39 210.45 529.5 210.41 527.08 193.99 552.39 210.45" style="fill:#46c3d3"/><polyline points="560.04 82.13 553.07 76.28 563.24 58.64 578.58 58.5 560.04 82.13" style="fill:#be3526"/><polyline points="539.36 195.1 528.03 187.79 533.78 168.4 547.61 176.72 539.36 195.1" style="fill:#be3526"/><polyline points="509.04 187.93 523.68 151.61 529.98 162.65 523.65 183.96 509.04 187.93" style="fill:#caeaee"/><path d="M581.58,250.47l-4.75-8.18,18.78-3.09s.88,3.9,1.79,7.64l-15.82,3.63" style="fill:#46c3d3"/><path d="M599.86,227.61l-10.37-10.53a29,29,0,0,0,6.39-12l14.65.57c.1,9.19-4.88,17.84-10.67,21.94" style="fill:#caeaee"/><polyline points="693.16 210.55 682.36 210.55 678.62 203.45 697.81 191.46 693.16 210.55" style="fill:#fbaf34"/><path d="M691.35,164l-27.27-1.28c.84-1.85,6.8-12.05,6.8-12.05l10.87-3.2,9.6,16.53" style="fill:#be3526"/><polyline points="676.1 210.55 640.78 210.45 649.81 197.76 672.39 203.55 676.1 210.55" style="fill:#46c3d3"/><polyline points="635.57 211.29 613.59 202.94 626.31 183.35 643.41 197.96 635.57 211.29" style="fill:#be3526"/><polyline points="598.34 200.28 594.03 175.98 619.78 180.32 612.71 193.35 598.34 200.28" style="fill:#fbaf34"/><path d="M586.73,207.76l-14.82-8.42,14.69-17.1a17.08,17.08,0,0,1,5.55,11.28l0,.4c.24,4.48-1.72,10.87-5.45,13.84" style="fill:#be3526"/><polyline points="503.48 189.34 490.83 185.57 501.76 166.49 510.86 171.5 503.48 189.34" style="fill:#46c3d3"/><path d="M624.9,229.94l-14.95-2a28.88,28.88,0,0,0,7.34-18.28L633,215.53c-.13.27-7.81,13.9-8.11,14.41" style="fill:#2d3481"/><polyline points="571.55 205.47 555.29 205.43 543.94 198.03 553.47 183.35 571.55 205.47" style="fill:#2d3481"/><path d="M547.21,170.16a15.32,15.32,0,0,1-11-22.56l3.47,1.92,9.76,5.39-2.22,15.25" style="fill:#2d3481"/><polyline points="673.04 111.48 666.27 110.07 655.73 91.56 679.63 91.86 673.04 111.48" style="fill:#caeaee"/><polyline points="610.29 136.8 587.63 121.25 601.64 112.49 617.23 122.96 620.05 131.68 610.29 136.8" style="fill:#2d3481"/><polyline points="591.94 147.4 575.35 136.39 589.32 128.82 605.92 139.56 591.94 147.4" style="fill:#46c3d3"/><path d="M621.28,157.17c-.43,0-.86,0-1.29,0A24.28,24.28,0,0,1,602.22,148l20.7-11.48,9,18.14a24,24,0,0,1-10.62,2.5" style="fill:#fbaf34"/><polyline points="587.37 72.37 580.87 66.48 595.41 47.23 611.87 62.91 605.74 68.23 587.37 72.37" style="fill:#caeaee"/><path d="M649,138.55l-21.58-5.29,16-16.62A20.15,20.15,0,0,1,649,138.55" style="fill:#2d3481"/><path d="M653.88,124.24a21.64,21.64,0,0,0-2.32-5.48,23.86,23.86,0,0,0-4.78-5.86l5.39-17,10.23,17.6-8.52,10.74" style="fill:#46c3d3"/><path d="M619.85,100.71h-4.51l-3.23-18.38,13,3.5a23.56,23.56,0,0,0-5.29,14.88" style="fill:#46c3d3"/><polyline points="707.37 85.33 688.86 81.02 692.56 68.84 716.89 68.84 707.37 85.33" style="fill:#46c3d3"/><polyline points="574.48 130.57 559.39 120.51 566.76 108.12 584.27 125.05 574.48 130.57" style="fill:#be3526"/><polyline points="566.13 99.5 558.66 92.6 575.92 69.95 586.19 79.78 587.13 84.79 566.13 99.5" style="fill:#fbaf34"/><polyline points="647.73 180.35 635.23 159.89 655.33 166.99 647.73 180.35" style="fill:#46c3d3"/><path d="M641.16,188.87l-12.08-10.23,2.22-14.21c6.09,4.38,10.7,11.55,10.4,19.76a23.87,23.87,0,0,1-.54,4.68" style="fill:#caeaee"/><polyline points="587.27 170.13 565.25 157.6 572.56 140.74 601.3 157.7 587.27 170.13" style="fill:#caeaee"/><polyline points="522.97 89 507.96 68.6 532.26 68.6 532.77 80.92 522.97 89" style="fill:#2d3481"/><polyline points="513.92 96.31 492.31 94.45 507.25 76.34 518.33 92.67 513.92 96.31" style="fill:#fbaf34"/><polyline points="520.65 123.7 519.2 121.52 521.36 97.52 532.57 88.16 532.93 102.53 520.65 123.7" style="fill:#caeaee"/><polyline points="624.29 175.75 595.01 170.93 606.12 159.86 626.75 162.14 624.29 175.75" style="fill:#be3526"/><polyline points="661.49 85.67 650.58 85.53 641.87 68.74 666.78 68.77 661.49 85.67" style="fill:#fbaf34"/><path d="M645.07,101.86l-20.17-.24v-.07a20.23,20.23,0,0,1,18.35-20.12l5.34,9-3.52,11.38" style="fill:#be3526"/><path d="M630,82l-17.58-4.61-.94-5.65c9.33-7.85,18.18-15,18.18-15L641,77.05a23.74,23.74,0,0,0-8,2.9A20.56,20.56,0,0,0,630,82" style="fill:#2d3481"/><path d="M8.52,115.45A83.32,83.32,0,0,1,0,117.79V99.07H8.52Z" style="fill:#231f20"/><path d="M41.4,105H37v25.62l-8.52-.06V105H13.68V99.07H41.4Z" style="fill:#231f20"/><path d="M55.44,130.57H46.92V99.07h8.52Z" style="fill:#231f20"/><path d="M91.68,130.57H83.16v-18a7.24,7.24,0,0,0-2.64-6,11,11,0,0,0-7.14-2.13,42.44,42.44,0,0,0-10.44,1.32V99.61q3.9-1,13.56-1a19.44,19.44,0,0,1,10.08,2.52q5.1,3.06,5.1,8.52Zm-19.5,0H63.6V113.29q2.88-.54,8.58-1.68Z" style="fill:#231f20"/><path d="M107.4,115.45a83.32,83.32,0,0,1-8.52,2.34V99.07h8.52Z" style="fill:#231f20"/><path d="M143.34,130.57h-8.52v-18a7.24,7.24,0,0,0-2.64-6,11,11,0,0,0-7.14-2.13,42.44,42.44,0,0,0-10.44,1.32V99.61q3.9-1,13.56-1a19.44,19.44,0,0,1,10.08,2.52q5.1,3.06,5.1,8.52Zm-19.5,0h-8.58V113.29q2.88-.54,8.58-1.68Z" style="fill:#231f20"/><path d="M194.28,130.57H164.34V99.07H181.8a12.65,12.65,0,0,1,8.82,3.33,10.58,10.58,0,0,1,3.66,8.13Zm-8.58-5.88v-13a6.27,6.27,0,0,0-2.28-5A7.91,7.91,0,0,0,178.2,105h-5.34v19.74Z" style="fill:#231f20"/><path d="M229.62,108.73a35.94,35.94,0,0,1-1,9.66,13.43,13.43,0,0,1-4.2,6.12q-7.32,6.36-23.76,11.16v-6.12a65.28,65.28,0,0,0,8-2.52l-8.58-28h8.94q2.34,7.86,6.78,24.72a8.78,8.78,0,0,0,3.6-3.42,9.26,9.26,0,0,0,1.62-5V99.07h8.52Z" style="fill:#231f20"/><path d="M265.62,130.57H257.1v-18a7.24,7.24,0,0,0-2.64-6,11,11,0,0,0-7.14-2.13,42.44,42.44,0,0,0-10.44,1.32V99.61q3.9-1,13.56-1a19.44,19.44,0,0,1,10.08,2.52q5.1,3.06,5.1,8.52Zm-19.5,0h-8.58V113.29q2.88-.54,8.58-1.68Z" style="fill:#231f20"/><path d="M295.08,141.37h-8.46V99.07h8.46Z" style="fill:#231f20"/><path d="M311.4,130.57h-8.52V99.07h8.52Z" style="fill:#231f20"/><path d="M350.09,130.57H340c-1-1.88-2.88-4.68-5.52-8.4-2.37-3.44-4.2-6-5.52-7.62a6.62,6.62,0,0,0-2.1,5.16v10.86h-8.53v-8.76a11,11,0,0,1,2-5.94,14.93,14.93,0,0,1,5.7-5.16l-9.12-11.64h10.5l10.31,14.16c1.29-.52,1.92-2.58,1.92-6.18v-8h8.58v7a12.15,12.15,0,0,1-1.73,6.12,11.07,11.07,0,0,1-5.58,4.86C342.69,119.91,345.78,124.41,350.09,130.57Z" style="fill:#231f20"/><path d="M363.83,115.45a83.72,83.72,0,0,1-8.51,2.34V99.07h8.51Z" style="fill:#231f20"/><path d="M386.87,104.77a4.73,4.73,0,0,0-4.08,2.13,8.28,8.28,0,0,0-1.5,4.89v18.78h-8.58v-13.5q0-8.4,5.88-11.88l-.06-.24h-9.3V99.07h17.64Z" style="fill:#231f20"/><path d="M401.09,130.57h-8.52V99.07h8.52Z" style="fill:#231f20"/><path d="M442.91,114.58q0,7.13-2.94,11.5a10.83,10.83,0,0,1-9.66,5,13.25,13.25,0,0,1-6.42-1.31v-5.59a9,9,0,0,0,4.68,1q5.52,0,5.52-10.74,0-10.08-5.76-10.08-3.18,0-5.58,3.9a23.64,23.64,0,0,0-2.94,8.22l-2.52,14h-8.58l2.22-12.12a37.74,37.74,0,0,0,.72-6.12,21.57,21.57,0,0,0-1.8-7.8l-2.22-5.46h9.42a76.5,76.5,0,0,1,2.28,7.68h.18a14.36,14.36,0,0,1,3.84-5.7,9.18,9.18,0,0,1,6.36-2.58q6.54,0,10,4.37Q442.91,107,442.91,114.58Z" style="fill:#231f20"/><path d="M152.4,185.57h-4.26V165.83a8,8,0,0,0-2.4-6.24,9.42,9.42,0,0,0-6.54-2.16H131v22.38a5.81,5.81,0,0,1-2.07,4.83,8.26,8.26,0,0,1-5.31,1.65,7.91,7.91,0,0,1-4.08-.9v-3.54a7.47,7.47,0,0,0,3.12,1q4,0,4-4.08v-21.3H120.3v-3.36h20.52q5.46,0,8.52,2.91t3.06,8.37Z" style="fill:#231f20"/><path d="M164.88,185.57h-4.32v-31.5h4.32Z" style="fill:#231f20"/><path d="M196.92,185.57H172.38v-3.36l19.5.06q-3-3.9-9.36-13-7.5-10.62-10.86-15.24h5.16q3.48,4.74,11.1,15.72,4.68-3.42,4.68-7.8v-7.92h4.32v6.48a11.33,11.33,0,0,1-2,6.78,18.5,18.5,0,0,1-5.4,4.62l7.38,11Z" style="fill:#231f20"/><path d="M208.62,185.57H204.3v-31.5h4.32Z" style="fill:#231f20"/><path d="M243.78,169.79q0,7.74-4.65,12.21t-12.45,4.47a28.88,28.88,0,0,1-9.42-1.5v-3.6a28.67,28.67,0,0,0,8.7,1.8q13.26,0,13.26-13.38t-11-13.32a10.43,10.43,0,0,0-6,1.56,6.1,6.1,0,0,0-2.64,5.4,4.71,4.71,0,0,0,1.86,4,7.23,7.23,0,0,0,4.5,1.41,8.4,8.4,0,0,0,1.38-.12V172a15.58,15.58,0,0,1-2.16.24q-9.9,0-9.9-8.58a9.1,9.1,0,0,1,4.26-8.16,16.94,16.94,0,0,1,9.3-2.28q7.62,0,11.46,4.62Q243.78,162.05,243.78,169.79Z" style="fill:#231f20"/><path d="M281.4,185.57h-4.26V165.83a8,8,0,0,0-2.4-6.24,9.42,9.42,0,0,0-6.54-2.16H260v22.38a5.81,5.81,0,0,1-2.07,4.83,8.26,8.26,0,0,1-5.31,1.65,7.91,7.91,0,0,1-4.08-.9v-3.54a7.47,7.47,0,0,0,3.12,1q4,0,4-4.08v-21.3H249.3v-3.36h20.52q5.46,0,8.52,2.91t3.06,8.37Z" style="fill:#231f20"/><path d="M315.66,185.57h-4.32V166q0-9.18-10.8-9.18a52.84,52.84,0,0,0-11.28,1.14v-3.66a67.29,67.29,0,0,1,11.4-.78q15,0,15,12.18Zm-21.12,0h-4.32v-17.7l4.32-1.2Z" style="fill:#231f20"/><path d="M370.14,185.57h-4.26V165.83a8,8,0,0,0-2.4-6.24,9.42,9.42,0,0,0-6.54-2.16h-8.22v22.38a5.81,5.81,0,0,1-2.07,4.83,8.26,8.26,0,0,1-5.31,1.65,7.89,7.89,0,0,1-4.08-.9v-3.54a7.47,7.47,0,0,0,3.12,1c2.67,0,4-1.36,4-4.08v-21.3H338v-3.36h20.52q5.46,0,8.52,2.91t3.06,8.37Z" style="fill:#231f20"/><path d="M382.38,171.29l-4.33,1.5V154.07h4.33Z" style="fill:#231f20"/><path d="M414.42,185.57H388.19v-3.36H406v-17a7.57,7.57,0,0,0-2.88-6.18,10.15,10.15,0,0,0-6.6-2.28,27.33,27.33,0,0,0-7.8,1.08v-3.54a34.43,34.43,0,0,1,7.74-.78,15.67,15.67,0,0,1,9.72,2.82c2.77,2.08,4.14,5.06,4.14,8.94v17h4.09Z" style="fill:#231f20"/><path d="M444.05,185.57H417.83v-3.36h17.82v-17a7.57,7.57,0,0,0-2.88-6.18,10.15,10.15,0,0,0-6.6-2.28,27.33,27.33,0,0,0-7.8,1.08v-3.54a34.43,34.43,0,0,1,7.74-.78,15.67,15.67,0,0,1,9.72,2.82,10.52,10.52,0,0,1,4.14,8.94v17h4.08Z" style="fill:#231f20"/></g></g></svg>