<svg xmlns="http://www.w3.org/2000/svg" viewBox="0 0 722.91 277.93"><title>BH-Logo-Eng</title><g id="Layer_2" data-name="Layer 2"><g id="Layer_1-2" data-name="Layer 1"><path d="M108.86,256.77l12.31,21.16,12-21.18a24.41,24.41,0,0,0-24.34,0Z" style="fill:#fcb034"/><path d="M24.48,68.57H0l12.17,21.1a24.42,24.42,0,0,0,9-8.83,24.68,24.68,0,0,0,3.36-12.27Z" style="fill:#46c3d3"/><polygon points="45.51 190.72 31.69 194.44 28.86 210.31 48.27 210.35 45.51 190.72 45.51 190.72" style="fill:#bf311a"/><polygon points="18.32 100.24 39.24 102.16 36.44 131.59 18.32 100.24 18.32 100.24" style="fill:#bf311a"/><polygon points="11.42 190.78 0.18 210.35 22.66 210.32 25.35 195.03 11.42 190.78 11.42 190.78" style="fill:#fcb034"/><path d="M105.15,26.31s24-5,26.82-5.73c0,0-4-7.37-11.76-20.58L105.15,26.31Z" style="fill:#bf311a"/><polygon points="44.19 146.03 40.48 139.97 28.23 161.4 36.09 165.86 44.19 146.03 44.19 146.03" style="fill:#232f84"/><polygon points="203.47 108.25 210.33 86.67 228 90.69 216.37 111.01 203.47 108.25 203.47 108.25" style="fill:#232f84"/><polygon points="97.68 237.3 117.74 233.99 107.06 216.49 92.24 227.86 97.68 237.3 97.68 237.3" style="fill:#bf311a"/><path d="M89.92,223.74l16.68-13s-4.18,0-24.21,0l7.53,13Z" style="fill:#fcb034"/><polygon points="190.14 118.97 200.93 137.35 213.39 115.62 201.38 112.97 190.14 118.97 190.14 118.97" style="fill:#bf311a"/><polygon points="123.89 231.86 127.32 246.58 136.71 250.47 145.78 234.51 123.89 231.86 123.89 231.86" style="fill:#46c3d3"/><polygon points="229.43 188.76 242 210.47 222.6 210.47 229.43 188.76 229.43 188.76" style="fill:#bf311a"/><polygon points="119.77 29.43 101.28 33.4 90.28 52.82 109.45 52.4 119.77 29.43 119.77 29.43" style="fill:#46c3d3"/><path d="M211.56,186.75l15-2.51-8.86-15.12-23.64-.77s7.12,7.52,17.48,18.4Z" style="fill:#46c3d3"/><polygon points="140.6 59.27 150.08 51.2 136.13 26.91 127.63 28.67 121.66 41.65 140.6 59.27 140.6 59.27" style="fill:#fcb034"/><polygon points="190.19 85.69 204.26 85.89 209.74 68.75 195.43 68.74 190.19 85.69 190.19 85.69" style="fill:#bf311a"/><polygon points="190.31 196.49 191.8 173.84 209.45 192.52 198.33 198.54 190.31 196.49 190.31 196.49" style="fill:#cbeaee"/><polygon points="92.99 133.54 79.8 124.66 66.9 145.4 83.91 154.67 92.99 133.54 92.99 133.54" style="fill:#46c3d3"/><path d="M93,194.51,109,176.05l-9.45-5.89S87.63,177,81.85,180.71L93,194.51Z" style="fill:#46c3d3"/><path d="M74.89,179s17.45-10.6,19.81-11.95c0,0-14.53-8.42-16.92-9.6L74.89,179Z" style="fill:#fcb034"/><polygon points="57.79 110 67.38 135.59 52.56 148.41 43.91 133.82 57.79 110 57.79 110" style="fill:#bf311a"/><polygon points="93.02 103.41 105.42 115.68 117.19 111.93 112.29 90.1 93.02 103.41 93.02 103.41" style="fill:#cbeaee"/><polygon points="136.45 112.88 129.46 74.03 115.15 77.31 121.19 102.58 136.45 112.88 136.45 112.88" style="fill:#46c3d3"/><polygon points="166.55 106.78 140.45 106.47 148.65 128.67 166.55 106.78 166.55 106.78" style="fill:#cbeaee"/><polygon points="185 196.58 170.72 191.52 183.91 168.21 185 196.58 185 196.58" style="fill:#232f84"/><polygon points="185.56 121.92 197.43 142.53 178.88 139.97 185.56 121.92 185.56 121.92" style="fill:#fcb034"/><polygon points="189.25 147.97 156.78 140.02 164.89 156.46 181.16 162.28 189.25 147.97 189.25 147.97" style="fill:#cbeaee"/><polygon points="70.78 129.13 86.09 104.02 75.58 93.52 63.43 109.05 70.78 129.13 70.78 129.13" style="fill:#232f84"/><polygon points="60.58 68.57 67.43 68.57 76.9 82.28 61.49 102.25 60.58 68.57 60.58 68.57" style="fill:#46c3d3"/><polygon points="76.08 210.35 53.2 210.34 50.76 193.89 76.08 210.35 76.08 210.35" style="fill:#46c3d3"/><polygon points="76.75 76.22 83.73 82.1 102.26 58.48 86.91 58.59 76.75 76.22 76.75 76.22" style="fill:#bf311a"/><polygon points="57.47 168.35 51.72 187.72 63.07 195.01 71.3 176.64 57.47 168.35 57.47 168.35" style="fill:#bf311a"/><path d="M47.33,183.87s6.32-21.16,6.33-21.29l-6.29-11L32.73,187.84l14.6-4Z" style="fill:#cbeaee"/><path d="M105.25,250.37l15.81-3.63c-.89-3.75-1.79-7.63-1.79-7.63l-18.75,3.08,4.73,8.18Z" style="fill:#46c3d3"/><path d="M134.18,205.58,119.55,205a28.94,28.94,0,0,1-6.4,12l10.39,10.54c5.76-4.11,10.74-12.75,10.64-21.94Z" style="fill:#cbeaee"/><path d="M206,210.47h10.8l4.65-19.1-19.18,12,3.73,7.11Z" style="fill:#fcb034"/><path d="M215,164l-9.58-16.53-10.89,3.22s-5.93,10.19-6.77,12L215,164Z" style="fill:#bf311a"/><polygon points="199.75 210.47 196.02 203.44 173.45 197.66 164.44 210.35 199.75 210.47 199.75 210.47" style="fill:#46c3d3"/><polygon points="167.07 197.87 149.96 183.28 137.25 202.87 159.24 211.2 167.07 197.87 167.07 197.87" style="fill:#bf311a"/><path d="M122,200.21l14.36-6.94,7.08-13s-25.76-4.35-25.76-4.33l4.32,24.3Z" style="fill:#fcb034"/><path d="M110.26,182.15l-14.67,17.1,14.81,8.41c3.72-2.94,5.69-9.35,5.45-13.81,0-.15,0-.28,0-.43a17.14,17.14,0,0,0-5.57-11.27Z" style="fill:#bf311a"/><path d="M27.2,189.27l7.37-17.84-9.1-5s-11,19-10.93,19.08l12.66,3.79Z" style="fill:#46c3d3"/><path d="M133.61,227.81l14.93,2c.34-.52,8-14.12,8.14-14.4l-15.74-5.9a28.7,28.7,0,0,1-7.33,18.27Z" style="fill:#232f84"/><polygon points="77.16 183.26 95.24 205.39 78.98 205.33 67.65 197.93 77.16 183.26 77.16 183.26" style="fill:#232f84"/><path d="M60.17,162.86a15.21,15.21,0,0,0,10.73,7.23l2.21-15.25-9.74-5.39-3.46-1.91a15.27,15.27,0,0,0,.26,15.32Z" style="fill:#232f84"/><polygon points="189.9 110.02 196.69 111.42 203.25 91.81 179.36 91.5 189.9 110.02 189.9 110.02" style="fill:#cbeaee"/><polygon points="133.96 136.74 143.72 131.63 140.88 122.9 125.32 112.44 111.31 121.19 133.96 136.74 133.96 136.74" style="fill:#232f84"/><polygon points="99.05 136.32 115.61 147.35 129.57 139.5 112.98 128.75 99.05 136.32 99.05 136.32" style="fill:#46c3d3"/><path d="M125.89,148a24.28,24.28,0,0,0,29.67,6.66l-9-18.15L125.89,148Z" style="fill:#fcb034"/><polygon points="129.41 68.21 111.05 72.32 104.54 66.45 119.09 47.21 135.54 62.89 129.41 68.21 129.41 68.21" style="fill:#cbeaee"/><path d="M151.08,133.21l16-16.64a20.17,20.17,0,0,1,5.55,21.9l-21.58-5.26Z" style="fill:#232f84"/><path d="M175.21,118.69a23.83,23.83,0,0,1,2.33,5.49l8.51-10.71L175.82,95.86l-5.38,17a23.49,23.49,0,0,1,4.77,5.84Z" style="fill:#46c3d3"/><path d="M148.78,85.78l-13-3.47L139,100.68h4.5a23.79,23.79,0,0,1,5.27-14.9Z" style="fill:#46c3d3"/><polygon points="240.52 68.8 231 85.28 212.49 80.97 216.2 68.8 240.52 68.8 240.52 68.8" style="fill:#46c3d3"/><polygon points="107.95 125.01 98.15 130.5 83.09 120.46 90.44 108.08 107.95 125.01 107.95 125.01" style="fill:#bf311a"/><polygon points="99.61 69.92 82.33 92.57 89.79 99.46 110.81 84.75 109.88 79.73 99.61 69.92 99.61 69.92" style="fill:#fcb034"/><polygon points="178.97 166.92 171.37 180.26 158.9 159.83 178.97 166.92 178.97 166.92" style="fill:#46c3d3"/><path d="M164.8,188.8a24.15,24.15,0,0,0,.54-4.69c.31-8.21-4.3-15.37-10.38-19.74l-2.23,14.2L164.8,188.8Z" style="fill:#cbeaee"/><polyline points="96.25 140.67 88.95 157.52 110.93 170.05 124.96 157.65" style="fill:#cbeaee"/><polygon points="56.48 80.87 55.96 68.57 31.66 68.57 46.68 88.96 56.48 80.87 56.48 80.87" style="fill:#232f84"/><polygon points="16.02 94.4 37.61 96.28 42.04 92.62 30.97 76.32 16.02 94.4 16.02 94.4" style="fill:#fcb034"/><polygon points="44.35 123.65 56.63 102.48 56.27 88.1 45.07 97.49 42.9 121.48 44.35 123.65 44.35 123.65" style="fill:#cbeaee"/><polygon points="147.94 175.68 150.39 162.08 129.78 159.79 118.67 170.87 147.94 175.68 147.94 175.68" style="fill:#bf311a"/><polygon points="165.53 68.7 174.23 85.5 185.13 85.63 190.43 68.74 165.53 68.7 165.53 68.7" style="fill:#fcb034"/><path d="M148.57,101.56l20.14.26,3.54-11.39-5.34-9a20.2,20.2,0,0,0-18.34,20.12v0Z" style="fill:#bf311a"/><path d="M135.15,71.72l1,5.67L153.68,82a23.23,23.23,0,0,1,3-2.09,23.78,23.78,0,0,1,8-2.88L153.33,56.73s-8.83,7.16-18.18,15Z" style="fill:#232f84"/><path d="M215,88.37v2.34" style="fill:#231f20"/><path d="M275.43,68.77h12.33l5.53,21.42h.09l5.54-21.42h12.33V100.9h-7.88V76.51h-.09l-6.75,24.39h-6.39L283.4,76.51h-.1V100.9h-7.87Z" style="fill:#231f20"/><path d="M345.94,87.63c0,9.31-4.27,14-14,14s-14-4.64-14-14V68.77h8.36V88.12c0,4.14,1.54,6.26,5.63,6.26s5.62-2.12,5.62-6.26V68.77h8.37Z" style="fill:#231f20"/><path d="M359.17,90.1c.19,3.78,2.53,5,6.08,5,2.52,0,5.13-.9,5.13-3.29,0-2.83-4.59-3.37-9.22-4.68s-9.41-3.37-9.41-9.27c0-7,7.07-9.76,13.09-9.76,6.39,0,12.83,3.1,12.87,10.35h-8.37c.14-2.93-2.61-3.87-5.17-3.87-1.8,0-4.05.63-4.05,2.74,0,2.48,4.64,2.93,9.31,4.23s9.32,3.47,9.32,9.27c0,8.15-6.93,10.76-14,10.76-7.38,0-13.91-3.24-13.95-11.48Z" style="fill:#231f20"/><path d="M383.79,68.77h25.6v6.71H392.16V81.1h15.75v6.48H392.16V93.7h17.68v7.2h-26Z" style="fill:#231f20"/><path d="M443.5,87.63c0,9.31-4.27,14-14,14s-14-4.64-14-14V68.77h8.37V88.12c0,4.14,1.53,6.26,5.63,6.26s5.62-2.12,5.62-6.26V68.77h8.37Z" style="fill:#231f20"/><path d="M450.25,68.77h12.33l5.54,21.42h.09l5.53-21.42h12.33V100.9H478.2V76.51h-.09l-6.75,24.39H465l-6.75-24.39h-.09V100.9h-7.88Z" style="fill:#231f20"/><path d="M522.93,68.1c10.12,0,15.84,7.42,15.84,16.74s-5.72,16.74-15.84,16.74-15.84-7.43-15.84-16.74S512.8,68.1,522.93,68.1Zm0,26.28c5.4,0,7.47-4.77,7.47-9.54s-2.07-9.54-7.47-9.54-7.47,4.77-7.47,9.54S517.53,94.38,522.93,94.38Z" style="fill:#231f20"/><path d="M544.44,68.77h23.67v6.71h-15.3v6.57H566v6.48H552.81V100.9h-8.37Z" style="fill:#231f20"/><path d="M613.83,76h-9.59V100.9h-8.37V76h-9.58v-7.2h27.54Z" style="fill:#231f20"/><path d="M618.55,68.77h8.37v11.7h11V68.77h8.37V100.9H638V87.67h-11V100.9h-8.37Z" style="fill:#231f20"/><path d="M653.11,68.77h25.61v6.71H661.48V81.1h15.75v6.48H661.48V93.7h17.69v7.2H653.11Z" style="fill:#231f20"/><path d="M296.26,144.73c0,7.2-3.69,10.85-11.25,10.85-8.5,0-11.24-4.91-11.24-12.06v-1.4h7.87v3a3,3,0,0,0,3.24,3.29c1.94,0,3-1.08,3-4.19V122.77h8.37Z" style="fill:#231f20"/><path d="M303.19,122.77H328.8v6.71H311.56v5.62h15.75v6.48H311.56v6.12h17.69v7.2H303.19Z" style="fill:#231f20"/><path d="M366.73,154.9h-8.37L354,132.76h-.09l-4.41,22.14H341l-8.69-32.13h8.37l4.55,23.49h.09L350,122.77h7.88l4.72,23.49h.09l4.55-23.49h8.37Z" style="fill:#231f20"/><path d="M379.6,122.77H388V154.9H379.6Z" style="fill:#231f20"/><path d="M401.43,144.1c.18,3.78,2.52,5,6.07,5,2.52,0,5.13-.9,5.13-3.29,0-2.83-4.59-3.37-9.22-4.68s-9.41-3.37-9.41-9.27c0-7,7.07-9.76,13.1-9.76,6.39,0,12.82,3.1,12.87,10.35H411.6c.13-2.93-2.61-3.87-5.18-3.87-1.8,0-4.05.63-4.05,2.74,0,2.48,4.64,2.93,9.32,4.23S421,139,421,144.82c0,8.15-6.93,10.76-14,10.76-7.38,0-13.91-3.24-13.95-11.48Z" style="fill:#231f20"/><path d="M426,122.77h8.37v11.7h11v-11.7h8.37V154.9h-8.37V141.67h-11V154.9H426Z" style="fill:#231f20"/><path d="M475.81,122.77h15.26c6,0,11.61,2.75,11.61,10.35,0,8-4.55,11.07-11.61,11.07h-6.89V154.9h-8.37Zm8.37,14.94h5.63c2.61,0,4.5-1.08,4.5-4s-1.94-4.23-4.5-4.23h-5.63Z" style="fill:#231f20"/><path d="M507.76,122.77h25.61v6.71H516.13v5.62h15.75v6.48H516.13v6.12h17.69v7.2H507.76Z" style="fill:#231f20"/><path d="M554.34,122.1c10.12,0,15.84,7.42,15.84,16.74s-5.72,16.74-15.84,16.74-15.84-7.43-15.84-16.74S544.21,122.1,554.34,122.1Zm0,26.28c5.4,0,7.47-4.77,7.47-9.54s-2.07-9.54-7.47-9.54-7.47,4.77-7.47,9.54S548.94,148.38,554.34,148.38Z" style="fill:#231f20"/><path d="M575.85,122.77H591.1c6,0,11.61,2.75,11.61,10.35,0,8-4.54,11.07-11.61,11.07h-6.88V154.9h-8.37Zm8.37,14.94h5.62c2.61,0,4.5-1.08,4.5-4s-1.93-4.23-4.5-4.23h-5.62Z" style="fill:#231f20"/><path d="M607.8,122.77h8.37V147.7h15v7.2H607.8Z" style="fill:#231f20"/><path d="M636.42,122.77H662v6.71H644.79v5.62h15.75v6.48H644.79v6.12h17.68v7.2H636.42Z" style="fill:#231f20"/><path d="M285.26,178.66h4.62L302.14,210h-4.62l-3.43-9.45H280.83L277.31,210h-4.26Zm-3.12,18.41h10.64l-5.22-14.63h-.09Z" style="fill:#231f20"/><path d="M310.26,182.17H299.8v-3.51h25.08v3.51H314.42V210h-4.16Z" style="fill:#231f20"/><path d="M344.5,178.66h11.38c2.67,0,6.5,0,8.3,1.14a7.35,7.35,0,0,1,3.7,6.55,7.13,7.13,0,0,1-4.66,7v.09a7.2,7.2,0,0,1,6,7.55c0,4.58-3.34,9-9.53,9H344.5Zm4.17,13.49H357c4.74,0,6.68-1.67,6.68-5,0-4.39-3-5-6.68-5h-8.35Zm0,14.37h10.46c3.69,0,5.88-2.11,5.88-5.62,0-4.09-3.28-5.23-6.8-5.23h-9.54Z" style="fill:#231f20"/><path d="M376.55,178.66h21.67v3.51H380.73v10H397v3.52h-16.3v10.85h17.62V210h-21.8Z" style="fill:#231f20"/><path d="M405.54,178.66h4.17V210h-4.17Z" style="fill:#231f20"/><path d="M425.83,182.17H415.37v-3.51h25.09v3.51H430V210h-4.17Z" style="fill:#231f20"/><path d="M460.07,178.66h4.18v13.49h16.53V178.66H485V210h-4.17V195.67H464.25V210h-4.18Z" style="fill:#231f20"/><path d="M502.28,178.66h4.62L519.15,210h-4.61l-3.43-9.45H497.84L494.32,210h-4.25Zm-3.12,18.41h10.63l-5.22-14.63h-.09Z" style="fill:#231f20"/><path d="M527.27,182.17H516.81v-3.51H541.9v3.51H531.44V210h-4.17Z" style="fill:#231f20"/><path d="M547.33,178.66h20.61v3.51H551.51v10h14.41v3.52H551.51V210h-4.18Z" style="fill:#231f20"/><path d="M599.56,198.7c0,8-4.44,12-12.35,12-8.09,0-12.88-3.65-12.88-12v-20h4.18v20c0,5.62,3.07,8.57,8.7,8.57,5.32,0,8.17-3,8.17-8.57v-20h4.18Z" style="fill:#231f20"/><path d="M615.31,182.17H604.85v-3.51H630v3.51H619.49V210h-4.18Z" style="fill:#231f20"/><path d="M653.52,187.84c-.48-4.52-3.42-6.41-7.78-6.41-3.55,0-7,1.27-7,5.36,0,7.78,20.09,2.24,20.09,14.63,0,6.73-6.55,9.32-12.27,9.32-7,0-13-3.43-13-11h3.95c0,5.27,4.4,7.56,9.15,7.56,3.77,0,8-1.19,8-5.72,0-8.65-20.08-2.9-20.08-14.45,0-6.33,5.62-9.19,11.38-9.19,6.42,0,11.34,3,11.55,9.93Z" style="fill:#231f20"/><path d="M679.07,177.91c10,0,15,7.87,15,16.44s-5.06,16.39-15,16.39-15-7.78-15-16.39S669.1,177.91,679.07,177.91Zm0,29.36c7.65,0,10.86-6.6,10.86-12.92s-3.21-12.92-10.86-12.92-10.85,6.59-10.85,12.92S671.43,207.27,679.07,207.27Z" style="fill:#231f20"/><path d="M708.27,182.17H697.82v-3.51h25.09v3.51H712.45V210h-4.18Z" style="fill:#231f20"/></g></g></svg>