<svg xmlns="http://www.w3.org/2000/svg" viewBox="0 0 714.99 277.93"><title>Logo BH English</title><g id="Layer_2" data-name="Layer 2"><g id="Layer_1-2" data-name="Layer 1"><path d="M108.94,256.77l12.31,21.16,12-21.18a24.41,24.41,0,0,0-24.34,0Z" style="fill:#ffa400"/><path d="M24.56,68.57H.08l12.17,21.1a24.32,24.32,0,0,0,8.94-8.83,24.69,24.69,0,0,0,3.37-12.27Z" style="fill:#00bed6"/><polygon points="18.4 100.24 39.32 102.16 36.52 131.59 18.4 100.24 18.4 100.24" style="fill:#b2292e"/><path d="M105.23,26.31s24-5,26.82-5.73c0,0-4-7.37-11.76-20.58L105.23,26.31Z" style="fill:#b2292e"/><polygon points="203.55 108.26 210.41 86.67 228.07 90.69 216.44 111.01 203.55 108.26 203.55 108.26" style="fill:#230871"/><polygon points="97.76 237.3 117.82 233.99 107.13 216.48 92.31 227.85 97.76 237.3 97.76 237.3" style="fill:#b2292e"/><path d="M90,223.74l16.68-13s-4.17,0-24.21,0l7.53,13Z" style="fill:#ffa400"/><polygon points="190.22 118.97 201 137.35 213.46 115.62 201.45 112.97 190.22 118.97 190.22 118.97" style="fill:#b2292e"/><polygon points="123.97 231.86 127.39 246.58 136.79 250.47 145.86 234.51 123.97 231.86 123.97 231.86" style="fill:#00bed6"/><polygon points="229.5 188.76 242.08 210.47 222.67 210.47 229.5 188.76 229.5 188.76" style="fill:#b2292e"/><polygon points="119.84 29.43 101.36 33.41 90.36 52.82 109.53 52.4 119.84 29.43 119.84 29.43" style="fill:#00bed6"/><path d="M211.64,186.75l15-2.51-8.86-15.13-23.64-.76s7.11,7.52,17.48,18.4Z" style="fill:#00bed6"/><polygon points="140.68 59.27 150.16 51.2 136.21 26.91 127.7 28.67 121.74 41.65 140.68 59.27 140.68 59.27" style="fill:#ffa400"/><polygon points="190.26 85.69 204.34 85.89 209.82 68.75 195.5 68.74 190.26 85.69 190.26 85.69" style="fill:#b2292e"/><polygon points="190.39 196.49 191.87 173.84 209.53 192.52 198.41 198.54 190.39 196.49 190.39 196.49" style="fill:#c4ebf2"/><polygon points="93.07 133.54 79.88 124.66 66.97 145.39 83.98 154.67 93.07 133.54 93.07 133.54" style="fill:#00bed6"/><path d="M93.08,194.51,109,176l-9.45-5.88S87.71,177,81.92,180.71l11.16,13.8Z" style="fill:#00bed6"/><path d="M75,179s17.46-10.6,19.82-11.95c0,0-14.53-8.42-16.92-9.6L75,179Z" style="fill:#ffa400"/><polygon points="57.86 110 67.45 135.59 52.63 148.41 43.98 133.82 57.86 110 57.86 110" style="fill:#b2292e"/><polygon points="93.1 103.41 105.49 115.68 117.27 111.93 112.36 90.1 93.1 103.41 93.1 103.41" style="fill:#c4ebf2"/><polygon points="136.53 112.88 129.53 74.03 115.22 77.31 121.27 102.58 136.53 112.88 136.53 112.88" style="fill:#00bed6"/><polygon points="166.62 106.78 140.53 106.47 148.73 128.67 166.62 106.78 166.62 106.78" style="fill:#c4ebf2"/><polygon points="185.07 196.58 170.8 191.52 183.99 168.21 185.07 196.58 185.07 196.58" style="fill:#230871"/><polygon points="185.64 121.92 197.51 142.53 178.96 139.97 185.64 121.92 185.64 121.92" style="fill:#ffa400"/><polygon points="189.32 147.97 156.86 140.02 164.97 156.45 181.24 162.28 189.32 147.97 189.32 147.97" style="fill:#c4ebf2"/><polygon points="70.86 129.13 86.17 104.02 75.65 93.52 63.51 109.05 70.86 129.13 70.86 129.13" style="fill:#230871"/><polygon points="60.66 68.57 67.51 68.57 76.97 82.28 61.57 102.25 60.66 68.57 60.66 68.57" style="fill:#00bed6"/><polygon points="76.82 76.22 83.8 82.1 102.34 58.48 86.98 58.59 76.82 76.22 76.82 76.22" style="fill:#b2292e"/><polygon points="57.54 168.35 51.8 187.72 63.15 195.01 71.37 176.64 57.54 168.35 57.54 168.35" style="fill:#b2292e"/><path d="M47.47,183.69s6.36-21.31,6.37-21.43l-6.33-11.11L32.77,187.68l14.7-4Z" style="fill:#c4ebf2"/><path d="M105.33,250.37l15.81-3.64c-.9-3.75-1.79-7.62-1.79-7.62l-18.76,3.08,4.74,8.18Z" style="fill:#00bed6"/><path d="M134.26,205.58,119.63,205a28.88,28.88,0,0,1-6.4,12l10.39,10.54c5.75-4.11,10.74-12.75,10.64-21.94Z" style="fill:#c4ebf2"/><path d="M206.08,210.47h10.79l4.65-19.1-19.17,12,3.73,7.11Z" style="fill:#ffa400"/><path d="M215.05,164l-9.59-16.53-10.88,3.22s-5.93,10.19-6.78,12l27.25,1.3Z" style="fill:#b2292e"/><polygon points="199.83 210.47 196.1 203.44 173.53 197.66 164.52 210.35 199.83 210.47 199.83 210.47" style="fill:#00bed6"/><polygon points="167.14 197.87 150.03 183.28 137.32 202.86 159.31 211.2 167.14 197.87 167.14 197.87" style="fill:#b2292e"/><path d="M122.09,200.21l14.36-6.94,7.08-13s-25.75-4.35-25.76-4.33l4.32,24.3Z" style="fill:#ffa400"/><path d="M110.34,182.15l-14.68,17.1,14.82,8.41c3.72-2.94,5.68-9.35,5.45-13.81,0-.15,0-.28,0-.43a17.13,17.13,0,0,0-5.56-11.27Z" style="fill:#b2292e"/><path d="M133.69,227.81c5.29.73,14.93,2,14.93,2,.33-.52,8-14.12,8.13-14.4L141,209.54a28.75,28.75,0,0,1-7.33,18.27Z" style="fill:#230871"/><polygon points="77.24 183.26 95.31 205.39 79.06 205.33 67.73 197.93 77.24 183.26 77.24 183.26" style="fill:#230871"/><path d="M60.24,162.86A15.23,15.23,0,0,0,71,170.09l2.21-15.25-9.74-5.39L60,147.54a15.29,15.29,0,0,0,.25,15.32Z" style="fill:#230871"/><polygon points="189.98 110.02 196.76 111.42 203.33 91.81 179.44 91.5 189.98 110.02 189.98 110.02" style="fill:#c4ebf2"/><polygon points="134.04 136.74 143.8 131.63 140.95 122.91 125.4 112.44 111.38 121.19 134.04 136.74 134.04 136.74" style="fill:#230871"/><polygon points="99.12 136.32 115.69 147.35 129.65 139.5 113.06 128.75 99.12 136.32 99.12 136.32" style="fill:#00bed6"/><path d="M126,148a24.28,24.28,0,0,0,29.67,6.66l-9-18.15L126,148Z" style="fill:#ffa400"/><polygon points="129.49 68.21 111.13 72.32 104.62 66.45 119.17 47.22 135.62 62.89 129.49 68.21 129.49 68.21" style="fill:#c4ebf2"/><path d="M151.15,133.21l16-16.64a20.2,20.2,0,0,1,5.56,21.9l-21.59-5.26Z" style="fill:#230871"/><path d="M175.29,118.69a24.24,24.24,0,0,1,2.32,5.49l8.51-10.71L175.89,95.86l-5.37,17a23.49,23.49,0,0,1,4.77,5.84Z" style="fill:#00bed6"/><path d="M148.86,85.78l-13-3.47,3.23,18.37h4.51a23.79,23.79,0,0,1,5.27-14.9Z" style="fill:#00bed6"/><polygon points="240.6 68.8 231.08 85.28 212.56 80.97 216.27 68.8 240.6 68.8 240.6 68.8" style="fill:#00bed6"/><polygon points="108.03 125.01 98.23 130.5 83.17 120.46 90.52 108.08 108.03 125.01 108.03 125.01" style="fill:#b2292e"/><polygon points="99.68 69.92 82.4 92.57 89.87 99.46 110.89 84.75 109.95 79.73 99.68 69.92 99.68 69.92" style="fill:#ffa400"/><polygon points="179.04 166.92 171.44 180.26 158.98 159.83 179.04 166.92 179.04 166.92" style="fill:#00bed6"/><path d="M164.88,188.8a24.06,24.06,0,0,0,.53-4.69c.32-8.21-4.3-15.37-10.37-19.74l-2.23,14.2,12.07,10.23Z" style="fill:#c4ebf2"/><polyline points="96.32 140.67 89.03 157.52 111 170.05 125.04 157.65" style="fill:#c4ebf2"/><polygon points="56.56 80.87 56.04 68.57 31.74 68.57 46.76 88.96 56.56 80.87 56.56 80.87" style="fill:#230871"/><polygon points="16.1 94.4 37.69 96.28 42.12 92.62 31.05 76.32 16.1 94.4 16.1 94.4" style="fill:#ffa400"/><polygon points="44.43 123.65 56.71 102.48 56.34 88.1 45.15 97.49 42.98 121.48 44.43 123.65 44.43 123.65" style="fill:#c4ebf2"/><polygon points="148.01 175.68 150.47 162.08 129.85 159.79 118.74 170.87 148.01 175.68 148.01 175.68" style="fill:#b2292e"/><polygon points="165.6 68.7 174.31 85.5 185.2 85.63 190.5 68.74 165.6 68.7 165.6 68.7" style="fill:#ffa400"/><path d="M148.65,101.56l20.14.26,3.54-11.39-5.35-9a20.21,20.21,0,0,0-18.33,20.12v0Z" style="fill:#b2292e"/><path d="M135.23,71.72l1,5.67L153.75,82a24,24,0,0,1,3-2.09,23.73,23.73,0,0,1,8-2.88L153.4,56.73s-8.82,7.16-18.17,15Z" style="fill:#230871"/><path d="M283.1,75h-8.77V69.57h24V75h-8.77V98.84H283.1Z" style="fill:#231f20"/><path d="M301.67,69.57h6.44V80.8H320V69.57h6.44V98.84H320V86.21H308.11V98.84h-6.44Z" style="fill:#231f20"/><path d="M332.06,69.57H354V75H338.49v6.27h14.19v5H338.49v7.18h15.79v5.41H332.06Z" style="fill:#231f20"/><path d="M370,69.57h9.06l6.85,20.13H386l6.48-20.13h9.06V98.84h-6V78.1h-.08l-7.17,20.74h-5L376.13,78.3h-.08V98.84h-6Z" style="fill:#231f20"/><path d="M432.05,87.77c0,7.91-4.67,11.77-12.5,11.77s-12.46-3.81-12.46-11.77V69.57h6.43v18.2c0,3.2.82,6.36,6,6.36,4.59,0,6.07-2,6.07-6.36V69.57h6.43Z" style="fill:#231f20"/><path d="M442,89.12c0,3.9,3,5.42,6.47,5.42,2.26,0,5.7-.66,5.7-3.65,0-3.16-4.38-3.69-8.69-4.84s-8.73-2.83-8.73-8.32c0-6,5.66-8.86,10.94-8.86,6.11,0,11.73,2.66,11.73,9.43h-6.23c-.21-3.53-2.71-4.43-5.78-4.43-2.05,0-4.43.86-4.43,3.32,0,2.26,1.39,2.54,8.73,4.43,2.14.53,8.69,1.89,8.69,8.53,0,5.37-4.22,9.39-12.17,9.39-6.48,0-12.55-3.2-12.47-10.42Z" style="fill:#231f20"/><path d="M464.2,69.57h21.89V75H470.63v6.27h14.19v5H470.63v7.18h15.79v5.41H464.2Z" style="fill:#231f20"/><path d="M515.61,87.77c0,7.91-4.67,11.77-12.5,11.77s-12.47-3.81-12.47-11.77V69.57h6.44v18.2c0,3.2.82,6.36,6,6.36,4.59,0,6.06-2,6.06-6.36V69.57h6.44Z" style="fill:#231f20"/><path d="M521.15,69.57h9.06l6.84,20.13h.09l6.47-20.13h9.07V98.84h-6V78.1h-.08l-7.18,20.74h-5L527.26,78.3h-.09V98.84h-6Z" style="fill:#231f20"/><path d="M582.85,68.87c9.06,0,14.39,6.77,14.39,15.46,0,8.44-5.33,15.21-14.39,15.21s-14.39-6.77-14.39-15.21C568.46,75.64,573.79,68.87,582.85,68.87Zm0,25.26c5.78,0,8-4.92,8-9.8,0-5.13-2.18-10-8-10s-8,4.92-8,10C574.9,89.21,577.07,94.13,582.85,94.13Z" style="fill:#231f20"/><path d="M601.63,69.57h20.58V75H608.07v6.76h12.26v5H608.07V98.84h-6.44Z" style="fill:#231f20"/><path d="M643.82,75H635V69.57h24V75h-8.78V98.84h-6.43Z" style="fill:#231f20"/><path d="M662.39,69.57h6.44V80.8h11.85V69.57h6.43V98.84h-6.43V86.21H668.83V98.84h-6.44Z" style="fill:#231f20"/><path d="M692.77,69.57h21.9V75H699.21v6.27h14.18v5H699.21v7.18H715v5.41H692.77Z" style="fill:#231f20"/><path d="M293.76,143.62c0,3.77-1,9.92-9.76,9.92-4.87,0-9.63-2.67-9.63-9.06v-2.54h5.82v1.31c0,2.83.7,4.88,3.73,4.88,3.41,0,3.41-2.75,3.41-4.8V123.57h6.43Z" style="fill:#231f20"/><path d="M299.42,123.57h21.89V129H305.86v6.27H320v5H305.86v7.18h15.78v5.41H299.42Z" style="fill:#231f20"/><path d="M353.87,152.84h-6.4l-5-19.93h-.08l-4.88,19.93H331l-7.75-29.27h6.44l4.63,19.92h.08l5.09-19.92h6l5,20.17h.08l4.8-20.17h6.31Z" style="fill:#231f20"/><path d="M364.69,123.57h6.44v29.27h-6.44Z" style="fill:#231f20"/><path d="M381.17,143.12c0,3.9,3,5.42,6.48,5.42,2.26,0,5.7-.66,5.7-3.65,0-3.16-4.39-3.69-8.69-4.84s-8.74-2.83-8.74-8.32c0-6,5.66-8.86,10.95-8.86,6.11,0,11.73,2.66,11.73,9.43h-6.23c-.21-3.53-2.71-4.43-5.78-4.43-2,0-4.43.86-4.43,3.32,0,2.26,1.39,2.54,8.73,4.43,2.13.53,8.69,1.89,8.69,8.53,0,5.37-4.22,9.39-12.17,9.39-6.48,0-12.55-3.2-12.47-10.42Z" style="fill:#231f20"/><path d="M403.39,123.57h6.44V134.8h11.85V123.57h6.44v29.27h-6.44V140.21H409.83v12.63h-6.44Z" style="fill:#231f20"/><path d="M445.17,123.57h13.21c7.29,0,10.12,4.63,10.12,9.39s-2.83,9.39-10.12,9.39h-6.77v10.49h-6.44Zm6.44,13.77h5c3,0,5.66-.65,5.66-4.38s-2.66-4.39-5.66-4.39h-5Z" style="fill:#231f20"/><path d="M472.52,123.57h21.9V129H479v6.27h14.18v5H479v7.18h15.78v5.41H472.52Z" style="fill:#231f20"/><path d="M512.21,122.87c9.06,0,14.39,6.77,14.39,15.46,0,8.44-5.33,15.21-14.39,15.21s-14.39-6.77-14.39-15.21C497.82,129.64,503.15,122.87,512.21,122.87Zm0,25.26c5.78,0,7.95-4.92,7.95-9.8,0-5.13-2.17-10.05-7.95-10.05s-8,4.92-8,10.05C504.25,143.21,506.43,148.13,512.21,148.13Z" style="fill:#231f20"/><path d="M531,123.57h13.2c7.3,0,10.13,4.63,10.13,9.39s-2.83,9.39-10.13,9.39h-6.77v10.49H531Zm6.43,13.77h5c3,0,5.65-.65,5.65-4.38s-2.66-4.39-5.65-4.39h-5Z" style="fill:#231f20"/><path d="M558.33,123.57h6.44v23.86H579v5.41H558.33Z" style="fill:#231f20"/><path d="M582.65,123.57h21.89V129H589.08v6.27h14.19v5H589.08v7.18h15.79v5.41H582.65Z" style="fill:#231f20"/><path d="M285,177.57h4.3l11.44,29.27h-4.3l-3.2-8.81H280.81l-3.28,8.81h-4ZM282,194.75H292l-4.88-13.66H287Z" style="fill:#231f20"/><path d="M306.43,180.85h-9.76v-3.28h23.41v3.28h-9.75v26h-3.9Z" style="fill:#231f20"/><path d="M334.72,177.57h10.62c2.58,0,6,0,7.75,1.06a6.94,6.94,0,0,1,3.44,6.11,6.76,6.76,0,0,1-4.34,6.56v.08c3.61.74,5.57,3.45,5.57,7.06,0,4.3-3.07,8.4-8.89,8.4H334.72Zm3.9,12.58h7.79c4.42,0,6.23-1.59,6.23-4.67,0-4.06-2.87-4.63-6.23-4.63h-7.79Zm0,13.41h9.75c3.37,0,5.5-2.05,5.5-5.25,0-3.81-3.08-4.88-6.36-4.88h-8.89Z" style="fill:#231f20"/><path d="M362.81,177.57H383v3.28H366.7v9.3h15.21v3.28H366.7v10.13h16.44v3.28H362.81Z" style="fill:#231f20"/><path d="M388,177.57h3.9v29.27H388Z" style="fill:#231f20"/><path d="M405.12,180.85h-9.76v-3.28h23.41v3.28H409v26h-3.89Z" style="fill:#231f20"/><path d="M433.41,177.57h3.89v12.58h15.42V177.57h3.89v29.27h-3.89V193.43H437.3v13.41h-3.89Z" style="fill:#231f20"/><path d="M471,177.57h4.31l11.44,29.27H482.4L479.2,198H466.82l-3.28,8.81h-4Zm-2.91,17.18H478l-4.88-13.66H473Z" style="fill:#231f20"/><path d="M492.45,180.85h-9.76v-3.28H506.1v3.28h-9.76v26h-3.89Z" style="fill:#231f20"/><path d="M509.34,177.57h19.23v3.28H513.23v9.3h13.45v3.28H513.23v13.41h-3.89Z" style="fill:#231f20"/><path d="M556.24,196.26c0,7.38-4.22,11.28-11.52,11.28-7.54,0-12-3.49-12-11.28V177.57h3.89v18.69c0,5.17,2.95,8,8.12,8,4.92,0,7.63-2.83,7.63-8V177.57h3.89Z" style="fill:#231f20"/><path d="M569.11,180.85h-9.75v-3.28h23.41v3.28H573v26h-3.9Z" style="fill:#231f20"/><path d="M602.94,186.14c-.45-4.19-3.24-6-7.26-6-3.28,0-6.56,1.19-6.56,5,0,3.61,4.68,4.14,9.39,5.21s9.35,2.71,9.35,8.45c0,6.23-6.11,8.73-11.44,8.73-6.56,0-12.1-3.2-12.1-10.33H588c0,4.92,4.1,7,8.53,7,3.53,0,7.42-1.11,7.42-5.33,0-4-4.67-4.72-9.34-5.74s-9.39-2.38-9.39-7.75c0-5.95,5.29-8.57,10.62-8.57,6,0,10.53,2.83,10.78,9.27Z" style="fill:#231f20"/><path d="M625,176.87c9.3,0,14,7.38,14,15.33s-4.72,15.34-14,15.34-14-7.38-14-15.34S615.65,176.87,625,176.87Zm0,27.39c7.13,0,10.12-6.15,10.12-12.06s-3-12-10.12-12-10.13,6.15-10.13,12S617.82,204.26,625,204.26Z" style="fill:#231f20"/><path d="M650.38,180.85h-9.76v-3.28H664v3.28h-9.76v26h-3.89Z" style="fill:#231f20"/><polygon points="45.63 190.59 31.72 194.34 28.87 210.31 48.41 210.35 45.63 190.59 45.63 190.59" style="fill:#b2292e"/><polygon points="11.31 190.65 0 210.35 22.63 210.32 25.34 194.93 11.31 190.65 11.31 190.65" style="fill:#ffa400"/><polygon points="44.27 146.03 40.56 139.97 28.31 161.4 36.17 165.85 44.27 146.03 44.27 146.03" style="fill:#230871"/><polygon points="76.41 210.35 53.38 210.34 50.93 193.78 76.41 210.35 76.41 210.35" style="fill:#00bed6"/><path d="M27.2,189.13l7.42-18-9.16-5.06s-11,19.09-11,19.21l12.74,3.82Z" style="fill:#00bed6"/></g></g></svg>