<svg xmlns="http://www.w3.org/2000/svg" viewBox="0 0 459.57 127.56"><title>BH-Logo4070-Heb-Update</title><g id="Layer_2" data-name="Layer 2"><g id="Layer_1-2" data-name="Layer 1"><path d="M438.66,38.71a13.88,13.88,0,1,1,13.88-13.88,13.88,13.88,0,0,1-13.88,13.88m0-34.78a20.91,20.91,0,1,0,20.91,20.9,20.93,20.93,0,0,0-20.91-20.9" style="fill:#46c3d3"/><path d="M277.32,39.3a13.87,13.87,0,1,1,10.92-13.55,14.08,14.08,0,0,1-.11,1.67h7.05c0-.55.09-1.11.09-1.68a21,21,0,1,0-14.33,19.83Z" style="fill:#fbaf33"/><path d="M329.56,117.84l5.65,9.71,5.52-9.72a11.23,11.23,0,0,0-11.17,0" style="fill:#fbaf33"/><path d="M290.84,31.47H279.6l5.59,9.69a11.19,11.19,0,0,0,4.11-4.06,11.32,11.32,0,0,0,1.55-5.63" style="fill:#46c3d3"/><polygon points="300.49 87.53 294.14 89.24 292.85 96.53 301.75 96.54 300.49 87.53" style="fill:#be3527"/><polygon points="288.01 46.01 297.61 46.89 296.32 60.39 288.01 46.01" style="fill:#be3527"/><polygon points="284.84 87.56 279.69 96.54 290 96.53 291.24 89.51 284.84 87.56" style="fill:#fbaf33"/><path d="M334.77,0l-6.91,12.08s11-2.32,12.31-2.63c0,0-1.84-3.38-5.4-9.45" style="fill:#be3527"/><polygon points="299.88 67.02 298.18 64.24 292.56 74.08 296.17 76.12 299.88 67.02" style="fill:#2d3380"/><polygon points="372.99 49.69 376.13 39.78 384.24 41.62 378.9 50.95 372.99 49.69" style="fill:#2d3380"/><polygon points="324.43 108.91 333.64 107.39 328.74 99.36 321.93 104.58 324.43 108.91" style="fill:#be3527"/><path d="M320.87,102.69l7.65-6s-1.91,0-11.11,0Z" style="fill:#fbaf33"/><polygon points="366.87 54.6 371.82 63.04 377.54 53.06 372.02 51.85 366.87 54.6" style="fill:#be3527"/><polygon points="336.46 106.41 338.04 113.17 342.34 114.95 346.51 107.63 336.46 106.41" style="fill:#46c3d3"/><polygon points="384.9 86.64 390.67 96.6 381.76 96.6 384.9 86.64" style="fill:#be3527"/><polygon points="334.57 13.51 326.08 15.33 321.04 24.24 329.84 24.05 334.57 13.51" style="fill:#46c3d3"/><path d="M376.7,85.71l6.89-1.15-4.07-6.94-10.85-.35s3.27,3.45,8,8.44" style="fill:#46c3d3"/><polygon points="344.13 27.2 348.48 23.5 342.08 12.35 338.18 13.16 335.44 19.11 344.13 27.2" style="fill:#fbaf33"/><polygon points="366.89 39.33 373.35 39.42 375.86 31.55 369.29 31.55 366.89 39.33" style="fill:#be3527"/><polygon points="366.95 90.18 367.63 79.78 375.73 88.36 370.63 91.12 366.95 90.18" style="fill:#cbeaf0"/><polygon points="322.28 61.29 316.23 57.21 310.3 66.73 318.11 70.99 322.28 61.29" style="fill:#46c3d3"/><path d="M322.29,89.27l7.32-8.48-4.34-2.7s-5.45,3.13-8.11,4.85Z" style="fill:#46c3d3"/><path d="M314,82.15s8-4.87,9.09-5.49c0,0-6.67-3.86-7.77-4.41Z" style="fill:#fbaf33"/><polygon points="306.12 50.49 310.52 62.23 303.72 68.12 299.75 61.42 306.12 50.49" style="fill:#be3527"/><polygon points="322.29 47.46 327.98 53.09 333.39 51.37 331.13 41.35 322.29 47.46" style="fill:#cbeaf0"/><polygon points="342.23 51.81 339.01 33.98 332.45 35.48 335.22 47.08 342.23 51.81" style="fill:#46c3d3"/><polygon points="356.04 49.01 344.06 48.86 347.83 59.05 356.04 49.01" style="fill:#cbeaf0"/><polygon points="364.51 90.22 357.95 87.9 364.01 77.2 364.51 90.22" style="fill:#2d3380"/><polygon points="364.77 55.95 370.21 65.42 361.7 64.24 364.77 55.95" style="fill:#fbaf33"/><polygon points="366.46 67.91 351.56 64.27 355.28 71.8 362.74 74.48 366.46 67.91" style="fill:#cbeaf0"/><polygon points="312.09 59.26 319.11 47.74 314.29 42.92 308.71 50.05 312.09 59.26" style="fill:#2d3380"/><polygon points="307.4 31.47 310.55 31.47 314.89 37.77 307.82 46.93 307.4 31.47" style="fill:#46c3d3"/><polygon points="314.52 96.54 304.02 96.54 302.9 88.99 314.52 96.54" style="fill:#46c3d3"/><polygon points="314.82 34.98 318.03 37.68 326.54 26.84 319.49 26.89 314.82 34.98" style="fill:#be3527"/><polygon points="305.97 77.27 303.34 86.15 308.55 89.5 312.32 81.07 305.97 77.27" style="fill:#be3527"/><path d="M301.33,84.39s2.9-9.71,2.9-9.77l-2.89-5.06-6.72,16.65Z" style="fill:#cbeaf0"/><path d="M327.91,114.91l7.26-1.67c-.41-1.72-.82-3.5-.82-3.5l-8.61,1.42Z" style="fill:#46c3d3"/><path d="M341.19,94.35l-6.72-.25a13.26,13.26,0,0,1-2.94,5.48l4.77,4.84a12.75,12.75,0,0,0,4.89-10.07" style="fill:#cbeaf0"/><path d="M374.15,96.6h5l2.14-8.77-8.8,5.5Z" style="fill:#fbaf33"/><path d="M378.26,75.25l-4.4-7.59-5,1.48s-2.72,4.68-3.11,5.51Z" style="fill:#be3527"/><polygon points="371.28 96.6 369.57 93.38 359.21 90.72 355.07 96.54 371.28 96.6" style="fill:#46c3d3"/><polygon points="356.28 90.81 348.42 84.12 342.59 93.11 352.68 96.93 356.28 90.81" style="fill:#be3527"/><path d="M335.6,91.89l6.59-3.18,3.25-6s-11.82-2-11.82-2Z" style="fill:#fbaf33"/><path d="M330.21,83.6l-6.74,7.84,6.8,3.87C332,94,332.88,91,332.77,89c0-.07,0-.13,0-.19a7.86,7.86,0,0,0-2.55-5.17" style="fill:#be3527"/><path d="M292.09,86.87l3.38-8.19-4.18-2.31s-5,8.7-5,8.75Z" style="fill:#46c3d3"/><path d="M340.92,104.56l6.85.93c.15-.24,3.66-6.48,3.73-6.61l-7.22-2.71a13.16,13.16,0,0,1-3.36,8.38" style="fill:#2d3380"/><polygon points="315.01 84.11 323.31 94.27 315.85 94.23 310.65 90.84 315.01 84.11" style="fill:#2d3380"/><path d="M307.21,74.75a7,7,0,0,0,4.93,3.32l1-7-4.47-2.48-1.59-.87a7,7,0,0,0,.12,7" style="fill:#2d3380"/><polygon points="366.76 50.49 369.87 51.14 372.88 42.13 361.92 42 366.76 50.49" style="fill:#cbeaf0"/><polygon points="341.08 62.76 345.56 60.41 344.26 56.41 337.12 51.6 330.69 55.62 341.08 62.76" style="fill:#2d3380"/><polygon points="325.06 62.57 332.66 67.63 339.07 64.02 331.45 59.09 325.06 62.57" style="fill:#46c3d3"/><path d="M337.38,67.9A11.13,11.13,0,0,0,351,71l-4.12-8.32Z" style="fill:#fbaf33"/><polygon points="339 31.31 330.57 33.19 327.58 30.5 334.26 21.67 341.81 28.86 339 31.31" style="fill:#cbeaf0"/><path d="M348.94,61.14l7.36-7.64a9.27,9.27,0,0,1,2.55,10.05Z" style="fill:#2d3380"/><path d="M360,54.47A11.16,11.16,0,0,1,361.08,57l3.9-4.92L360.29,44l-2.47,7.79A10.89,10.89,0,0,1,360,54.47" style="fill:#46c3d3"/><path d="M347.89,39.37l-6-1.59,1.48,8.43h2.07a10.93,10.93,0,0,1,2.42-6.84" style="fill:#46c3d3"/><polygon points="389.99 31.57 385.62 39.14 377.12 37.16 378.82 31.57 389.99 31.57" style="fill:#46c3d3"/><polygon points="329.15 57.38 324.65 59.89 317.74 55.29 321.11 49.61 329.15 57.38" style="fill:#be3527"/><polygon points="325.31 32.09 317.38 42.49 320.81 45.65 330.46 38.9 330.03 36.59 325.31 32.09" style="fill:#fbaf33"/><polygon points="361.74 76.61 358.25 82.73 352.53 73.36 361.74 76.61" style="fill:#46c3d3"/><path d="M355.24,86.65a11.28,11.28,0,0,0,.24-2.15,10.86,10.86,0,0,0-4.76-9.06l-1,6.52Z" style="fill:#cbeaf0"/><polyline points="323.77 64.56 320.42 72.3 330.51 78.05 336.95 72.35" style="fill:#cbeaf0"/><polygon points="305.52 37.12 305.29 31.47 294.13 31.47 301.03 40.83 305.52 37.12" style="fill:#2d3380"/><polygon points="286.95 43.33 296.86 44.19 298.9 42.51 293.81 35.03 286.95 43.33" style="fill:#fbaf33"/><polygon points="299.96 56.75 305.59 47.03 305.43 40.43 300.29 44.74 299.29 55.75 299.96 56.75" style="fill:#cbeaf0"/><polygon points="347.5 80.63 348.63 74.39 339.16 73.34 334.06 78.42 347.5 80.63" style="fill:#be3527"/><polygon points="355.57 31.53 359.56 39.24 364.57 39.3 367 31.55 355.57 31.53" style="fill:#fbaf33"/><path d="M347.79,46.61l9.24.12,1.63-5.23-2.45-4.15a9.28,9.28,0,0,0-8.42,9.24Z" style="fill:#be3527"/><path d="M341.63,32.92l.44,2.6,8.06,2.11a11.13,11.13,0,0,1,1.39-1,10.76,10.76,0,0,1,3.65-1.32L350,26s-4.05,3.29-8.34,6.88" style="fill:#2d3380"/><path d="M359.91,26.84H358l1.91-3.9A10.38,10.38,0,0,0,361.27,19c0-.79-.42-1.19-1.27-1.19h-3.93V12.91h1.73v3.35h2.56a2.4,2.4,0,0,1,2.6,2.64,4.77,4.77,0,0,1-.42,1.9Z" style="fill:#46c3d3"/><path d="M370.79,26.86c-1.15-2.08-2.33-4-3.51-5.69a3.11,3.11,0,0,0-1.09,2.38v3.31h-1.73V24a5.13,5.13,0,0,1,2.05-3.92c-.78-1.23-1.64-2.5-2.6-3.79H366c.94,1.35,2.09,3.07,3.45,5.13a3,3,0,0,0,1-2.1v-3h1.73l0,2.46a4.27,4.27,0,0,1-2,3.73c.89,1.39,1.76,2.87,2.62,4.4Z" style="fill:#46c3d3"/><path d="M379.89,26.86h-1.73V19.91a2.15,2.15,0,0,0-.71-1.68,2.32,2.32,0,0,0-1.64-.65,9.72,9.72,0,0,0-2.33.26V16.32a10.47,10.47,0,0,1,2.53-.26,3.83,3.83,0,0,1,2.69,1,3.66,3.66,0,0,1,1.18,2.81Z" style="fill:#46c3d3"/><path d="M392.21,16.26,391.39,23a4.39,4.39,0,0,1-1.73,3,4.84,4.84,0,0,1-3.13,1.11,4.76,4.76,0,0,1-3.16-1A4.68,4.68,0,0,1,381.85,23l-.75-6.72h1.78c.18,1.88.38,3.79.58,5.71a2.8,2.8,0,0,0,2.07-2.6l.27-3.11h1.78l-.45,3.94a2.9,2.9,0,0,1-1.33,2.08,5.39,5.39,0,0,1-2.24.89c.53,1.72,1.51,2.56,3,2.56a2.82,2.82,0,0,0,2.25-1.05,4.37,4.37,0,0,0,1-2.52l.58-5.89Z" style="fill:#46c3d3"/><polygon points="395.58 22.03 393.84 22.68 393.84 16.26 395.58 16.26 395.58 22.03" style="fill:#46c3d3"/><polygon points="243.67 35.68 243.67 45.83 237.55 45.83 237.55 35.68 214.56 35.68 234.68 5.03 241.53 5.03 227.09 29.91 237.55 29.91 237.55 16.77 243.67 17.66 243.67 29.91 247.58 29.91 247.58 35.68 243.67 35.68" style="fill:#fbaf33"/><path d="M397.71,45.28h6.93c.85-17.08,7.11-27.33,14.23-34.94L424.49,5H389l-.15,6.46h20.9c-5.61,7.57-11,17.55-12.06,33.87" style="fill:#46c3d3"/><path d="M179.77,124.12H177V96.52h2.8v27.61m-58.67-4.78v-2.55l5-1.78c-3.16-10.25-6-18.5-6-18.5h3.28c1.22,4.2,3.66,12.26,5.11,17.58,4.5-2,6.13-5.32,6.13-10.35V96.52h2.8v6.26c0,6.21-1.83,9.36-4.78,11.5a28,28,0,0,1-5.39,2.75c-1.86.74-3.92,1.42-6.13,2.32m135.4-2a11.66,11.66,0,0,1-3.61-.51v-2.26a8.86,8.86,0,0,0,3.48.51c3.89,0,5.67-3.49,5.67-9.13,0-2.39-1.32-7.71-5.72-7.71-4.91,0-7.1,7.56-7.53,10.86,0,.2-.54,4.48-1,7.76h-2.83c.74-4.76,1.17-8,1.17-8a23.21,23.21,0,0,0,.25-3.56,20.51,20.51,0,0,0-1-4.81c-.43-1.45-.76-2.93-1.12-4h3c.43,1.71,1,4.33,1.55,6.84,2.09-6.39,4.7-7.22,7.81-7.22,5.19,0,8.34,4.65,8.34,9.69,0,6.61-2.8,11.55-8.5,11.55m-17.17-.48h-2.8V96.52h2.8v20.38m-11,0h-2.8V105.65A8.44,8.44,0,0,1,229,98.7l-6.11-.05V96.57h9.92V98.7h-2.14c-1.09.56-2.34,3-2.34,5.11v13.08m-16.87,0h-3.1a141.87,141.87,0,0,0-8.5-11.8,7.05,7.05,0,0,0-3.15,5.65v6.16h-2.77v-5.67a8.63,8.63,0,0,1,4.89-7.48c-1.6-2.27-3.38-4.15-5.88-7.23h3.28c1.63,2.06,4.66,5.62,7.94,10.13a5.36,5.36,0,0,0,3.31-4.53v-5.6h2.8v4.43a7.76,7.76,0,0,1-5,7.25c2.16,2.85,4,5.29,6.23,8.7m-23,0h-2.8V96.52h2.8v20.38m-29.18,0h-2.8V104.2c0-3.64-1.81-5.93-7-5.93a32,32,0,0,0-7.3.74V96.64a52.75,52.75,0,0,1,7.38-.51c5.62,0,9.69,2,9.69,7.89v12.87m-13.66,0h-2.8V105.45l2.8-.76v12.21m-29,0H98.71V96.52h10.43a7.28,7.28,0,0,1,7.5,7.43v12.95M101.51,98.65v16.08h12.34V104.25c0-3.59-2.16-5.6-5.7-5.6h-6.64M81,116.89h-2.8V104.2c0-3.64-1.81-5.93-7-5.93a31.87,31.87,0,0,0-7.3.74V96.64a52.46,52.46,0,0,1,7.38-.51c5.62,0,9.69,2,9.69,7.89v12.87m-13.66,0h-2.8V105.45l2.8-.76v12.21m-16.23,0h-2.8V104.2c0-3.64-1.83-5.93-7-5.93A31.8,31.8,0,0,0,34,99V96.64a52.1,52.1,0,0,1,7.35-.51c5.65,0,9.72,2,9.72,7.89v12.87m-13.66,0h-2.8V105.45l2.8-.76v12.21m-8.9,0h-2.8V96.52h2.8v20.38m-9.82,0h-2.8V98.7H6.28V96.52H21.58V98.7H18.72v18.19m197.12-8.27V96.52h2.8v11.14l-2.8,1m-160,0V96.52h2.8v11.14l-2.8,1M0,108.63V96.52H2.8v11.14l-2.8,1" style="fill:#333"/><path d="M65.79,85H59.84V72.23a5.31,5.31,0,0,0-1.3-3.62A4.43,4.43,0,0,0,55,67.12H51.76v13a5.06,5.06,0,0,1-1.65,4.08,6.61,6.61,0,0,1-4.42,1.4,8.59,8.59,0,0,1-4.48-.84V80.85a4.68,4.68,0,0,0,2.1.55q2.51,0,2.51-2.68v-9.8l.63-1.8H41.58V63H56.66a9,9,0,0,1,6.74,2.43,8.75,8.75,0,0,1,2.39,6.41Z" style="fill:#333"/><path d="M76.89,85H70.94V63h5.95Z" style="fill:#333"/><path d="M101.64,65.86a16.8,16.8,0,0,1-.59,5.28,7.45,7.45,0,0,1-4.52,4.36q4.77,6.28,4.77,6.37l0,3.14H81.66V80.9h9.47l2.35.17L80.41,63h7.16q2.3,3.27,6.87,9.68a.71.71,0,0,0,.21,0q1.09-.09,1.09-4.73V63h5.91Z" style="fill:#333"/><path d="M112.62,85h-5.95V63h5.95Z" style="fill:#333"/><path d="M138.92,74.11q0,11.43-12.4,11.44-3.39,0-4.61-.13a10.28,10.28,0,0,1-3.65-1.13V80q2.39,1.42,7.92,1.42,6.66,0,6.66-7.29,0-7.75-5.24-7.75a5.08,5.08,0,0,0-3,.84A3.17,3.17,0,0,0,123.21,70q0,3.1,2.85,3.1A5.53,5.53,0,0,0,127,73v3.39a12,12,0,0,1-2.05.17,9.47,9.47,0,0,1-5-1.17A5.73,5.73,0,0,1,117.22,70,6.4,6.4,0,0,1,120,64.54a12.93,12.93,0,0,1,7.64-2q5.44,0,8.36,3T138.92,74.11Z" style="fill:#333"/><path d="M166.94,85H161V72.23a5.31,5.31,0,0,0-1.3-3.62,4.43,4.43,0,0,0-3.52-1.49h-3.27v13a5.06,5.06,0,0,1-1.65,4.08,6.61,6.61,0,0,1-4.42,1.4,8.59,8.59,0,0,1-4.48-.84V80.85a4.68,4.68,0,0,0,2.1.55q2.51,0,2.51-2.68v-9.8l.63-1.8h-4.86V63h15.08a9,9,0,0,1,6.74,2.43,8.75,8.75,0,0,1,2.39,6.41Z" style="fill:#333"/><path d="M191.95,85H186V72.43a5.06,5.06,0,0,0-1.85-4.17,7.71,7.71,0,0,0-5-1.49,29.55,29.55,0,0,0-7.29.92V63.39a42.75,42.75,0,0,1,9.47-.71,13.58,13.58,0,0,1,7,1.76,6.62,6.62,0,0,1,3.56,5.95Zm-13.61,0h-6V72.94q2-.38,6-1.17Z" style="fill:#333"/><path d="M230.23,85h-5.95V72.23A5.31,5.31,0,0,0,223,68.6a4.43,4.43,0,0,0-3.52-1.49H216.2v13a5.06,5.06,0,0,1-1.65,4.08,6.61,6.61,0,0,1-4.42,1.4,8.59,8.59,0,0,1-4.48-.84V80.85a4.68,4.68,0,0,0,2.1.55q2.51,0,2.51-2.68v-9.8l.63-1.8H206V63H221.1a9,9,0,0,1,6.74,2.43,8.75,8.75,0,0,1,2.39,6.41Z" style="fill:#333"/><path d="M241.12,74.45a58.2,58.2,0,0,1-5.95,1.63V63h5.95Z" style="fill:#333"/><path d="M265,85H245.27l0-4.1h10.76V71.51a4.18,4.18,0,0,0-2.39-3.9,8.23,8.23,0,0,0-4-1,16.75,16.75,0,0,0-4.4.71v-4a32.86,32.86,0,0,1,7.2-.67,10,10,0,0,1,6.7,2.26,7.71,7.71,0,0,1,2.85,6.2V80.9h3Z" style="fill:#333"/></g></g></svg>