<svg xmlns="http://www.w3.org/2000/svg" viewBox="0 0 881.75 278.08"><title>Logo Bh-Web-Eng</title><g id="Layer_2" data-name="Layer 2"><g id="Page_4" data-name="Page 4"><g id="Page_2" data-name="Page 2"><path d="M836.17,84.38a30.26,30.26,0,1,1,30.26-30.25,30.26,30.26,0,0,1-30.26,30.25m0-75.83a45.58,45.58,0,1,0,45.58,45.57A45.63,45.63,0,0,0,836.17,8.55" style="fill:#47c3d3"/><polygon points="407.42 77.78 407.42 99.9 394.08 99.9 394.08 77.78 343.97 77.78 387.82 10.96 402.75 10.96 371.27 65.22 394.08 65.22 394.08 36.55 407.42 38.51 407.42 65.22 415.94 65.22 415.94 77.78 407.42 77.78" style="fill:#fbb034"/><path d="M746.9,98.71H762c1.86-37.23,15.49-59.58,31-76.16l12.24-11.76H728l-.32,14.09h45.56C761,41.39,749.13,63.13,746.9,98.71" style="fill:#47c3d3"/><path d="M478.55,86.05a31,31,0,0,1-4.23.33,30.26,30.26,0,1,1,30.26-30.25,31.36,31.36,0,0,1-.24,3.65h15.38c.09-1.21.18-2.42.18-3.66A45.76,45.76,0,1,0,486.57,100Z" style="fill:#fbb034"/><path d="M592.22,256.9l12.32,21.18,12-21.2a24.5,24.5,0,0,0-24.35,0" style="fill:#fbb034"/><path d="M507.8,68.61H483.3l12.18,21.11a24.37,24.37,0,0,0,8.95-8.84,24.79,24.79,0,0,0,3.37-12.27" style="fill:#47c3d3"/><polygon points="528.83 190.82 515 194.55 512.17 210.43 531.59 210.46 528.83 190.82" style="fill:#bf311a"/><polygon points="501.63 100.3 522.57 102.22 519.76 131.66 501.63 100.3" style="fill:#bf311a"/><polygon points="494.73 190.88 483.49 210.46 505.98 210.43 508.67 195.14 494.73 190.88" style="fill:#fbb034"/><path d="M603.58,0,588.51,26.33s24-5.06,26.83-5.74c0,0-4-7.37-11.76-20.59" style="fill:#bf311a"/><polygon points="527.52 146.11 523.81 140.03 511.55 161.49 519.41 165.95 527.52 146.11" style="fill:#232f84"/><polygon points="686.88 108.32 693.75 86.72 711.42 90.74 699.78 111.07 686.88 108.32" style="fill:#232f84"/><polygon points="581.04 237.43 601.11 234.12 590.41 216.6 575.59 227.98 581.04 237.43" style="fill:#bf311a"/><path d="M573.26,223.86l16.69-13s-4.17,0-24.22,0Z" style="fill:#fbb034"/><polygon points="673.54 119.04 684.33 137.42 696.8 115.68 684.78 113.03 673.54 119.04" style="fill:#bf311a"/><polygon points="607.26 231.98 610.69 246.71 620.08 250.6 629.17 234.63 607.26 231.98" style="fill:#47c3d3"/><polygon points="712.85 188.87 725.43 210.58 706.02 210.58 712.85 188.87" style="fill:#bf311a"/><polygon points="603.13 29.45 584.63 33.43 573.63 52.85 592.81 52.43 603.13 29.45" style="fill:#47c3d3"/><path d="M695,186.84l15-2.5-8.86-15.13-23.65-.77s7.12,7.52,17.49,18.4" style="fill:#47c3d3"/><polygon points="623.98 59.3 633.46 51.23 619.5 26.92 611 28.69 605.02 41.67 623.98 59.3" style="fill:#fbb034"/><polygon points="673.59 85.74 687.67 85.93 693.15 68.78 678.84 68.78 673.59 85.74" style="fill:#bf311a"/><polygon points="673.72 196.6 675.2 173.93 692.87 192.62 681.74 198.64 673.72 196.6" style="fill:#cbeaef"/><polygon points="576.34 133.61 563.15 124.73 550.24 145.47 567.26 154.76 576.34 133.61" style="fill:#47c3d3"/><path d="M576.36,194.61l16-18.47-9.46-5.89s-11.88,6.81-17.67,10.56Z" style="fill:#47c3d3"/><path d="M558.23,179.1s17.47-10.61,19.82-12c0,0-14.53-8.41-16.93-9.6Z" style="fill:#fbb034"/><polygon points="541.12 110.06 550.71 135.66 535.88 148.49 527.23 133.89 541.12 110.06" style="fill:#bf311a"/><polygon points="576.37 103.47 588.77 115.75 600.56 111.99 595.65 90.14 576.37 103.47" style="fill:#cbeaef"/><polygon points="619.83 112.94 612.83 74.07 598.51 77.35 604.56 102.64 619.83 112.94" style="fill:#47c3d3"/><polygon points="649.93 106.84 623.83 106.52 632.03 128.74 649.93 106.84" style="fill:#cbeaef"/><polygon points="668.4 196.69 654.11 191.63 667.31 168.3 668.4 196.69" style="fill:#232f84"/><polygon points="668.96 121.98 680.84 142.61 662.28 140.04 668.96 121.98" style="fill:#fbb034"/><polygon points="672.65 148.05 640.17 140.1 648.28 156.54 664.56 162.37 672.65 148.05" style="fill:#cbeaef"/><polygon points="554.12 129.19 569.44 104.08 558.92 93.57 546.76 109.1 554.12 129.19" style="fill:#232f84"/><polygon points="543.91 68.61 550.77 68.61 560.24 82.33 544.82 102.31 543.91 68.61" style="fill:#47c3d3"/><polygon points="559.42 210.46 536.53 210.45 534.09 194 559.42 210.46" style="fill:#47c3d3"/><polygon points="560.08 76.27 567.07 82.14 585.62 58.51 570.25 58.63 560.08 76.27" style="fill:#bf311a"/><polygon points="540.8 168.44 535.05 187.82 546.41 195.12 554.63 176.74 540.8 168.44" style="fill:#bf311a"/><path d="M530.66,184s6.31-21.18,6.33-21.3l-6.3-11L516,187.93Z" style="fill:#cbeaef"/><path d="M588.61,250.5l15.81-3.63-1.79-7.63-18.76,3.09Z" style="fill:#47c3d3"/><path d="M617.56,205.69l-14.64-.55c-.92,4.23-4.21,9.86-6.41,12l10.39,10.55c5.77-4.11,10.76-12.75,10.66-21.95" style="fill:#cbeaef"/><path d="M689.41,210.58h10.81l4.65-19.11-19.19,12Z" style="fill:#fbb034"/><path d="M698.39,164.05,688.8,147.5l-10.89,3.23s-5.94,10.2-6.78,12Z" style="fill:#bf311a"/><polygon points="683.16 210.58 679.43 203.56 656.85 197.77 647.83 210.47 683.16 210.58" style="fill:#47c3d3"/><polygon points="650.46 197.97 633.34 183.38 620.62 202.97 642.62 211.31 650.46 197.97" style="fill:#bf311a"/><path d="M605.39,200.31l14.36-6.94,7.08-13S601.07,176,601.06,176Z" style="fill:#fbb034"/><path d="M593.63,182.25l-14.69,17.1,14.83,8.43c3.71-2.95,5.68-9.37,5.44-13.83a3.1,3.1,0,0,0,0-.43,17.13,17.13,0,0,0-5.56-11.27" style="fill:#bf311a"/><path d="M510.52,189.37l7.37-17.85-9.11-5s-11,19-10.93,19.09Z" style="fill:#47c3d3"/><path d="M617,227.93l14.94,2c.33-.51,8-14.12,8.14-14.4l-15.74-5.9A28.7,28.7,0,0,1,617,227.93" style="fill:#232f84"/><polygon points="560.5 183.36 578.59 205.5 562.32 205.44 550.99 198.04 560.5 183.36" style="fill:#232f84"/><path d="M543.5,163a15.24,15.24,0,0,0,10.74,7.23l2.21-15.26-9.74-5.39-3.46-1.91A15.26,15.26,0,0,0,543.5,163" style="fill:#232f84"/><polygon points="673.3 110.08 680.09 111.48 686.66 91.85 662.76 91.55 673.3 110.08" style="fill:#cbeaef"/><polygon points="617.33 136.82 627.1 131.7 624.25 122.97 608.69 112.49 594.66 121.25 617.33 136.82" style="fill:#232f84"/><polygon points="582.4 136.4 598.97 147.43 612.94 139.57 596.35 128.82 582.4 136.4" style="fill:#47c3d3"/><path d="M609.26,148A24.13,24.13,0,0,0,627,157.14a23.84,23.84,0,0,0,11.9-2.45l-9-18.15Z" style="fill:#fbb034"/><polygon points="612.78 68.25 594.41 72.36 587.9 66.49 602.46 47.24 618.92 62.93 612.78 68.25" style="fill:#cbeaef"/><path d="M634.46,133.28l16-16.65a20.22,20.22,0,0,1,5.56,21.92Z" style="fill:#232f84"/><path d="M658.61,118.75a24.69,24.69,0,0,1,2.33,5.51l8.5-10.73L659.21,95.92l-5.38,17a23.75,23.75,0,0,1,4.78,5.84" style="fill:#47c3d3"/><path d="M632.16,85.83l-13-3.48,3.24,18.38h4.51a23.81,23.81,0,0,1,5.27-14.9" style="fill:#47c3d3"/><polygon points="723.95 68.83 714.43 85.32 695.9 81.01 699.61 68.83 723.95 68.83" style="fill:#47c3d3"/><polygon points="591.31 125.08 581.5 130.57 566.43 120.53 573.79 108.14 591.31 125.08" style="fill:#bf311a"/><polygon points="582.96 69.96 565.67 92.63 573.14 99.51 594.17 84.79 593.23 79.77 582.96 69.96" style="fill:#fbb034"/><polygon points="662.36 167.01 654.76 180.36 642.28 159.92 662.36 167.01" style="fill:#47c3d3"/><path d="M648.19,188.9a23.32,23.32,0,0,0,.53-4.69c.32-8.21-4.29-15.38-10.37-19.75l-2.24,14.21Z" style="fill:#cbeaef"/><polyline points="579.6 140.75 572.3 157.6 594.29 170.14 608.33 157.73" style="fill:#cbeaef"/><polygon points="539.81 80.92 539.29 68.6 514.98 68.6 530.01 89.01 539.81 80.92" style="fill:#232f84"/><polygon points="499.33 94.45 520.93 96.33 525.36 92.67 514.29 76.36 499.33 94.45" style="fill:#fbb034"/><polygon points="527.68 123.72 539.97 102.53 539.6 88.15 528.4 97.54 526.23 121.54 527.68 123.72" style="fill:#cbeaef"/><polygon points="631.32 175.77 633.78 162.17 613.15 159.88 602.03 170.96 631.32 175.77" style="fill:#bf311a"/><polygon points="648.92 68.74 657.62 85.55 668.53 85.67 673.83 68.78 648.92 68.74" style="fill:#fbb034"/><path d="M632,101.61l20.16.26,3.54-11.39-5.35-9A20.23,20.23,0,0,0,632,101.58Z" style="fill:#bf311a"/><path d="M618.52,71.76l1,5.67L637.06,82a23.1,23.1,0,0,1,3-2.1,23.33,23.33,0,0,1,8-2.87L636.71,56.75s-8.83,7.17-18.19,15" style="fill:#232f84"/><rect x="650.1" y="37.59" width="2.88" height="22.24" style="fill:#47c3d3"/><path d="M656.42,54.8,659,53.74a5.52,5.52,0,0,0,5.54,3.78c2.56,0,4.7-1.25,4.7-3.65,0-2.12-1.35-3-3.11-3.59l-3.82-1.09c-2.87-.85-4.75-2.37-4.75-5.8,0-3.84,3-6.21,6.89-6.21,3.32,0,6.2,1.37,7.22,4.4l-2.49,1.06a4.87,4.87,0,0,0-4.78-2.87c-2,0-4,1-4,3.37,0,1.68,1.14,2.74,3.34,3.4l3.85,1.12c2.46.68,4.48,2.28,4.48,6,0,3.9-3.11,6.57-7.62,6.57-3.82,0-7.05-1.8-8-5.39" style="fill:#47c3d3"/><path d="M683,48.5c2.87,0,4.61-1.37,4.61-4.21s-1.88-4.15-4.67-4.15h-4.26V48.5Zm-7.19-10.91h7.69c4,0,6.92,2.4,6.92,6.73a6.27,6.27,0,0,1-4.78,6.43l5.78,9.07h-3.17l-5.58-8.76h-4v8.76h-2.87Z" style="fill:#47c3d3"/><path d="M705.52,51.34l-3.31-10.1h0l-3.38,10.1Zm-4.6-13.78h2.67l7.71,22.26h-3l-1.93-5.89H698l-2,5.89h-2.88Z" style="fill:#47c3d3"/><polygon points="714.48 37.55 728.27 37.55 728.27 40.27 717.36 40.27 717.36 47.03 726.69 47.03 726.69 49.72 717.36 49.72 717.36 57.11 728.36 57.11 728.36 59.82 714.48 59.82 714.48 37.55" style="fill:#47c3d3"/><polygon points="732.54 37.59 735.41 37.59 735.41 57.11 746 57.11 746 59.82 732.54 59.82 732.54 37.59" style="fill:#47c3d3"/></g><path d="M7.81,139.31H0v-7.15H24.23v7.15H16.41v20.75H7.81Z" style="fill:#231f20"/><path d="M28.56,132.16h8.6v9.69h8.05v-9.69h8.6v27.9h-8.6V149H37.16v11.06h-8.6Z" style="fill:#231f20"/><path d="M59.39,132.16h23.1v7.15H68v3.48H81.16v6.64H68v3.48H82.92v7.15H59.39Z" style="fill:#231f20"/><path d="M102.26,132.16h12.23l4,16.41h.08l4-16.41h12.23v27.9h-8.13v-17.9h-.08l-4.84,17.9h-6.41l-4.85-17.9h-.07v17.9h-8.13Z" style="fill:#231f20"/><path d="M165.68,149.28c0,7.73-4.19,11.44-12.7,11.44s-12.74-3.71-12.74-11.44V132.16h8.59v15.2c0,2.85,0,6.41,4.19,6.41s4.06-3.56,4.06-6.41v-15.2h8.6Z" style="fill:#231f20"/><path d="M178,150.68a5.32,5.32,0,0,0,.31,1.84c.63,1.68,2.51,2,4.11,2,1.4,0,3.55-.47,3.55-2.54,0-1.45-1.21-1.84-6-3.2-4.42-1.25-9.46-2.47-9.46-8.09,0-6.45,5.51-9.23,11.25-9.23,6.06,0,11.41,2.31,11.65,9.11h-8.13a2.12,2.12,0,0,0-1-2.23,4.43,4.43,0,0,0-2.54-.7c-1.17,0-3.08.31-3.08,1.87.15,2,4.14,2.43,8.09,3.52s7.85,2.93,7.85,8.05c0,7.27-6.68,9.61-12.9,9.61-3.16,0-12.19-1.13-12.26-10Z" style="fill:#231f20"/><path d="M198.42,132.16h23.09v7.15H207v3.48h13.17v6.64H207v3.48h14.93v7.15H198.42Z" style="fill:#231f20"/><path d="M252.42,149.28c0,7.73-4.18,11.44-12.7,11.44S227,157,227,149.28V132.16h8.6v15.2c0,2.85,0,6.41,4.18,6.41s4.06-3.56,4.06-6.41v-15.2h8.6Z" style="fill:#231f20"/><path d="M257.89,132.16h12.23l4,16.41h.08l4-16.41H290.4v27.9h-8.13v-17.9h-.08l-4.84,17.9h-6.41l-4.85-17.9H266v17.9h-8.13Z" style="fill:#231f20"/><path d="M323.53,131.49c8.48,0,14.15,6.1,14.15,14.62s-5.67,14.61-14.15,14.61-14.14-6.09-14.14-14.61S315.05,131.49,323.53,131.49Zm0,22.28c2.19,0,5.55-1.45,5.55-7.66s-3.36-7.66-5.55-7.66S318,139.9,318,146.11,321.34,153.77,323.53,153.77Z" style="fill:#231f20"/><path d="M342.48,132.16h21.57v7.15h-13v3.48h11.14v6.64H351.08v10.63h-8.6Z" style="fill:#231f20"/><path d="M389,139.31h-7.81v-7.15h24.22v7.15h-7.81v20.75H389Z" style="fill:#231f20"/><path d="M409.77,132.16h8.6v9.69h8.05v-9.69H435v27.9h-8.59V149h-8.05v11.06h-8.6Z" style="fill:#231f20"/><path d="M440.6,132.16h23.09v7.15H449.2v3.48h13.16v6.64H449.2v3.48h14.92v7.15H440.6Z" style="fill:#231f20"/><path d="M137,200.48c0,7.7-3.48,10.71-10.48,10.71s-10.23-3.95-10.23-10V198.8H124v1.6c0,2.15,0,4.15,2.31,4.15s2.07-2.7,2.07-4v-18H137Z" style="fill:#231f20"/><path d="M142.54,182.62h23.1v7.16h-14.5v3.47h13.17v6.65H151.14v3.47h14.93v7.15H142.54Z" style="fill:#231f20"/><path d="M199.08,210.52h-8.36l-3-17h-.08l-2.93,17h-8.4l-7.58-27.9h8.44l3.4,17.24h.08L184,182.62h7.58l3.28,17.47h.08l3.48-17.47h8.48Z" style="fill:#231f20"/><path d="M210,182.62h8.6v27.9H210Z" style="fill:#231f20"/><path d="M231.05,201.15a5,5,0,0,0,.31,1.83c.62,1.68,2.5,2,4.1,2,1.41,0,3.56-.46,3.56-2.53,0-1.45-1.21-1.84-6-3.21-4.41-1.25-9.46-2.46-9.46-8.09,0-6.45,5.51-9.22,11.26-9.22,6,0,11.41,2.31,11.64,9.1h-8.13a2.13,2.13,0,0,0-1-2.22,4.46,4.46,0,0,0-2.54-.71c-1.17,0-3.09.32-3.09,1.88.16,2,4.14,2.42,8.09,3.52s7.85,2.93,7.85,8.05c0,7.26-6.68,9.61-12.89,9.61-3.17,0-12.19-1.13-12.27-10Z" style="fill:#231f20"/><path d="M251.44,182.62H260v9.7h8v-9.7h8.6v27.9h-8.6V199.47h-8v11.05h-8.6Z" style="fill:#231f20"/><path d="M296.49,182.62h14.38c7.59,0,10.24,5.55,10.24,9.54,0,6.76-4.53,9.93-10.94,9.93h-5.08v8.43h-8.6Zm8.6,12.82h3.32c2.23,0,4.57-.15,4.57-3,0-2.54-2-2.69-4.06-2.69h-3.83Z" style="fill:#231f20"/><path d="M325.18,182.62h23.09v7.16h-14.5v3.47h13.17v6.65H333.77v3.47H348.7v7.15H325.18Z" style="fill:#231f20"/><path d="M367.18,182c8.48,0,14.15,6.1,14.15,14.62s-5.67,14.61-14.15,14.61S353,205.09,353,196.58,358.7,182,367.18,182Zm0,22.27c2.19,0,5.55-1.44,5.55-7.65s-3.36-7.67-5.55-7.67-5.55,1.45-5.55,7.67S365,204.23,367.18,204.23Z" style="fill:#231f20"/><path d="M386.13,182.62h14.38c7.58,0,10.24,5.55,10.24,9.54,0,6.76-4.53,9.93-10.94,9.93h-5.08v8.43h-8.6Zm8.6,12.82h3.32c2.23,0,4.57-.15,4.57-3,0-2.54-1.95-2.69-4.06-2.69h-3.83Z" style="fill:#231f20"/><path d="M414.81,182.62h8.6v20.75h12.35v7.15H414.81Z" style="fill:#231f20"/><path d="M440.6,182.62h23.1v7.16H449.2v3.47h13.17v6.65H449.2v3.47h14.92v7.15H440.6Z" style="fill:#231f20"/><path d="M85.81,233.09h4.1l10.9,27.9h-4.1l-3-8.4H81.86L78.74,261H75ZM83,249.46h9.46l-4.65-13h-.08Z" style="fill:#231f20"/><path d="M107.46,236.21h-9.3v-3.12h22.31v3.12h-9.3V261h-3.71Z" style="fill:#231f20"/><path d="M136.76,233.09h10.12c2.39,0,5.78,0,7.39,1a6.52,6.52,0,0,1,3.28,5.82,6.33,6.33,0,0,1-4.14,6.25v.08a6.41,6.41,0,0,1,5.31,6.72c0,4.06-3,8-8.48,8H136.76Zm3.71,12h7.43c4.22,0,5.94-1.49,5.94-4.46,0-3.91-2.7-4.42-5.94-4.42h-7.43Zm0,12.77h9.3c3.29,0,5.24-1.87,5.24-5,0-3.63-2.93-4.65-6.06-4.65h-8.48Z" style="fill:#231f20"/><path d="M164.7,233.09H184v3.12H168.41v8.88h14.5v3.12h-14.5v9.65h15.67V261H164.7Z" style="fill:#231f20"/><path d="M189.9,233.09h3.71V261H189.9Z" style="fill:#231f20"/><path d="M207.37,236.21h-9.3v-3.12h22.31v3.12h-9.3V261h-3.71Z" style="fill:#231f20"/><path d="M236.67,233.09h3.72v12h14.69v-12h3.71V261h-3.71V248.21H240.39V261h-3.72Z" style="fill:#231f20"/><path d="M273.64,233.09h4.1l10.9,27.9h-4.1l-3.05-8.4h-11.8l-3.12,8.4h-3.79Zm-2.78,16.37h9.46l-4.65-13h-.08Z" style="fill:#231f20"/><path d="M295.28,236.21H286v-3.12H308.3v3.12H299V261h-3.72Z" style="fill:#231f20"/><path d="M312.56,233.09h18.32v3.12H316.27v8.88h12.81v3.12H316.27V261h-3.71Z" style="fill:#231f20"/><path d="M358.43,250.91c0,7.15-3.95,10.71-11,10.71-7.19,0-11.45-3.25-11.45-10.71V233.09h3.71v17.82c0,5,2.74,7.62,7.74,7.62,4.73,0,7.27-2.62,7.27-7.62V233.09h3.71Z" style="fill:#231f20"/><path d="M371.87,236.21h-9.3v-3.12h22.31v3.12h-9.3V261h-3.71Z" style="fill:#231f20"/><path d="M405.28,241.26c-.43-4-3-5.71-6.92-5.71-3.16,0-6.25,1.13-6.25,4.77,0,6.92,17.86,2,17.86,13,0,6-5.82,8.29-10.9,8.29-6.26,0-11.53-3.05-11.53-9.81h3.51c0,4.69,3.91,6.72,8.13,6.72,3.36,0,7.08-1.06,7.08-5.08,0-7.7-17.86-2.58-17.86-12.86,0-5.63,5-8.17,10.12-8.17,5.7,0,10.08,2.7,10.27,8.84Z" style="fill:#231f20"/><path d="M427.43,232.42c8.87,0,13.37,7,13.37,14.62s-4.5,14.58-13.37,14.58S414.07,254.7,414.07,247,418.56,232.42,427.43,232.42Zm0,26.11c6.8,0,9.65-5.86,9.65-11.49s-2.85-11.49-9.65-11.49-9.65,5.86-9.65,11.49S420.63,258.53,427.43,258.53Z" style="fill:#231f20"/><path d="M452.83,236.21h-9.3v-3.12h22.31v3.12h-9.3V261h-3.71Z" style="fill:#231f20"/></g></g></svg>