<svg xmlns="http://www.w3.org/2000/svg" viewBox="0 0 864.03 278.23"><title>Logo BH-Web-Heb</title><g id="Layer_2" data-name="Layer 2"><g id="Page_4" data-name="Page 4"><g id="Page_1" data-name="Page 1"><path d="M818.42,84.42A30.27,30.27,0,1,1,848.7,54.15a30.27,30.27,0,0,1-30.28,30.27m0-75.86A45.6,45.6,0,1,0,864,54.15,45.65,45.65,0,0,0,818.42,8.56" style="fill:#47c3d3"/><path d="M466.51,85.72a30.59,30.59,0,0,1-6.46.71,30.27,30.27,0,1,1,30.27-30.27,29.31,29.31,0,0,1-.24,3.65h15.39c.1-1.21.19-2.42.19-3.66a45.74,45.74,0,1,0-31.27,43.26Z" style="fill:#fbb034"/><path d="M580.46,257l12.32,21.19,12-21.21a24.51,24.51,0,0,0-24.36,0" style="fill:#fbb034"/><path d="M496,68.65H471.48l12.18,21.12a24.35,24.35,0,0,0,9-8.85A24.69,24.69,0,0,0,496,68.65" style="fill:#47c3d3"/><polygon points="517.03 190.93 503.2 194.65 500.37 210.54 519.79 210.57 517.03 190.93" style="fill:#bf311a"/><polygon points="489.82 100.35 510.76 102.28 507.96 131.73 489.82 100.35" style="fill:#bf311a"/><polygon points="482.91 190.98 471.66 210.57 494.16 210.55 496.86 195.24 482.91 190.98" style="fill:#fbb034"/><path d="M591.82,0,576.74,26.34s24-5.06,26.85-5.74c0,0-4-7.37-11.77-20.6" style="fill:#bf311a"/><polygon points="515.72 146.19 512.01 140.11 499.74 161.58 507.61 166.03 515.72 146.19" style="fill:#232f84"/><polygon points="675.17 108.37 682.04 86.76 699.72 90.79 688.08 111.13 675.17 108.37" style="fill:#232f84"/><polygon points="569.27 237.56 589.35 234.25 578.65 216.72 563.81 228.1 569.27 237.56" style="fill:#bf311a"/><path d="M561.49,224l16.7-13S574,211,554,211Z" style="fill:#fbb034"/><polygon points="661.82 119.1 672.62 137.49 685.1 115.74 673.07 113.09 661.82 119.1" style="fill:#bf311a"/><polygon points="595.51 232.11 598.94 246.85 608.34 250.74 617.42 234.76 595.51 232.11" style="fill:#47c3d3"/><polygon points="701.15 188.97 713.74 210.7 694.32 210.7 701.15 188.97" style="fill:#bf311a"/><polygon points="591.38 29.46 572.87 33.44 561.86 52.88 581.05 52.45 591.38 29.46" style="fill:#47c3d3"/><path d="M683.27,187l15-2.51-8.86-15.14-23.67-.77s7.12,7.52,17.5,18.42" style="fill:#47c3d3"/><polygon points="612.23 59.33 621.72 51.26 607.76 26.94 599.24 28.7 593.27 41.69 612.23 59.33" style="fill:#fbb034"/><polygon points="661.88 85.78 675.96 85.98 681.45 68.82 667.12 68.82 661.88 85.78" style="fill:#bf311a"/><polygon points="662 196.71 663.48 174.03 681.16 192.73 670.03 198.75 662 196.71" style="fill:#cbeaef"/><polygon points="564.57 133.68 551.37 124.8 538.45 145.55 555.48 154.84 564.57 133.68" style="fill:#47c3d3"/><path d="M564.59,194.72l16-18.49-9.47-5.89s-11.89,6.82-17.68,10.57Z" style="fill:#47c3d3"/><path d="M546.45,179.19s17.47-10.61,19.83-12c0,0-14.54-8.42-16.94-9.61Z" style="fill:#fbb034"/><polygon points="529.33 110.12 538.93 135.74 524.09 148.58 515.43 133.97 529.33 110.12" style="fill:#bf311a"/><polygon points="564.6 103.53 577.01 115.81 588.8 112.05 583.88 90.2 564.6 103.53" style="fill:#cbeaef"/><polygon points="608.08 113 601.07 74.11 586.75 77.39 592.8 102.7 608.08 113" style="fill:#47c3d3"/><polygon points="638.2 106.9 612.08 106.58 620.29 128.81 638.2 106.9" style="fill:#cbeaef"/><polygon points="656.67 196.79 642.38 191.73 655.59 168.39 656.67 196.79" style="fill:#232f84"/><polygon points="657.24 122.05 669.12 142.69 650.55 140.12 657.24 122.05" style="fill:#fbb034"/><polygon points="660.93 148.13 628.43 140.18 636.55 156.62 652.83 162.46 660.93 148.13" style="fill:#cbeaef"/><polygon points="542.34 129.26 557.66 104.14 547.14 93.62 534.98 109.17 542.34 129.26" style="fill:#232f84"/><polygon points="532.12 68.65 538.98 68.65 548.46 82.37 533.03 102.37 532.12 68.65" style="fill:#47c3d3"/><polygon points="547.64 210.57 524.74 210.57 522.3 194.1 547.64 210.57" style="fill:#47c3d3"/><polygon points="548.3 76.31 555.3 82.19 573.85 58.55 558.48 58.66 548.3 76.31" style="fill:#bf311a"/><polygon points="529 168.53 523.25 187.92 534.62 195.22 542.85 176.84 529 168.53" style="fill:#bf311a"/><path d="M518.86,184.07s6.32-21.19,6.33-21.31l-6.29-11L504.24,188Z" style="fill:#cbeaef"/><path d="M576.84,250.64,592.67,247c-.89-3.75-1.79-7.63-1.79-7.63l-18.78,3.09Z" style="fill:#47c3d3"/><path d="M605.81,205.8l-14.65-.55a29,29,0,0,1-6.41,12l10.4,10.55c5.76-4.1,10.75-12.75,10.66-22" style="fill:#cbeaef"/><path d="M677.7,210.7h10.81l4.66-19.12-19.2,12Z" style="fill:#fbb034"/><path d="M686.68,164.14l-9.59-16.55-10.9,3.22s-5.94,10.21-6.78,12Z" style="fill:#bf311a"/><polygon points="671.44 210.7 667.71 203.67 645.12 197.88 636.1 210.58 671.44 210.7" style="fill:#47c3d3"/><polygon points="638.73 198.08 621.6 183.48 608.87 203.08 630.89 211.43 638.73 198.08" style="fill:#bf311a"/><path d="M593.63,200.42,608,193.48l7.09-13s-25.78-4.36-25.78-4.33Z" style="fill:#fbb034"/><path d="M581.87,182.35l-14.7,17.11L582,207.89c3.72-2.95,5.69-9.37,5.45-13.84a3,3,0,0,0,0-.42,17.13,17.13,0,0,0-5.56-11.28" style="fill:#bf311a"/><path d="M498.71,189.48l7.38-17.87-9.12-5s-11,19-10.93,19.1Z" style="fill:#47c3d3"/><path d="M605.23,228.06l14.95,2c.33-.52,8-14.14,8.14-14.42l-15.75-5.9a28.71,28.71,0,0,1-7.34,18.29" style="fill:#232f84"/><polygon points="548.72 183.46 566.82 205.61 550.54 205.55 539.2 198.15 548.72 183.46" style="fill:#232f84"/><path d="M531.71,163a15.24,15.24,0,0,0,10.74,7.23L544.67,155l-9.75-5.4-3.47-1.91a15.31,15.31,0,0,0,.26,15.34" style="fill:#232f84"/><polygon points="661.58 110.14 668.38 111.54 674.95 91.9 651.04 91.6 661.58 110.14" style="fill:#cbeaef"/><polygon points="605.58 136.89 615.36 131.77 612.51 123.04 596.94 112.56 582.9 121.32 605.58 136.89" style="fill:#232f84"/><polygon points="570.63 136.47 587.21 147.51 601.19 139.65 584.58 128.89 570.63 136.47" style="fill:#47c3d3"/><path d="M597.5,148.11a24.28,24.28,0,0,0,29.7,6.66l-9-18.16Z" style="fill:#fbb034"/><polygon points="601.03 68.29 582.65 72.4 576.13 66.52 590.7 47.26 607.17 62.96 601.03 68.29" style="fill:#cbeaef"/><path d="M622.72,133.35l16-16.66a20.24,20.24,0,0,1,5.56,21.93Z" style="fill:#232f84"/><path d="M646.88,118.82a23.72,23.72,0,0,1,2.33,5.5l8.51-10.73L647.49,96l-5.39,17a23.62,23.62,0,0,1,4.78,5.85" style="fill:#47c3d3"/><path d="M620.42,85.87l-13-3.47,3.24,18.39h4.52a23.87,23.87,0,0,1,5.27-14.92" style="fill:#47c3d3"/><polygon points="712.26 68.87 702.73 85.37 684.2 81.05 687.91 68.87 712.26 68.87" style="fill:#47c3d3"/><polygon points="579.55 125.15 569.73 130.64 554.66 120.59 562.02 108.2 579.55 125.15" style="fill:#bf311a"/><polygon points="571.19 70 553.89 92.68 561.37 99.57 582.41 84.84 581.47 79.81 571.19 70" style="fill:#fbb034"/><polygon points="650.64 167.1 643.03 180.46 630.55 160 650.64 167.1" style="fill:#47c3d3"/><path d="M636.46,189a24.86,24.86,0,0,0,.53-4.69c.32-8.21-4.3-15.39-10.38-19.76l-2.24,14.21Z" style="fill:#cbeaef"/><polyline points="567.83 140.82 560.52 157.69 582.53 170.23 596.58 157.82" style="fill:#cbeaef"/><polygon points="528.02 80.96 527.5 68.64 503.17 68.64 518.21 89.06 528.02 80.96" style="fill:#232f84"/><polygon points="487.51 94.5 509.13 96.38 513.57 92.72 502.48 76.4 487.51 94.5" style="fill:#fbb034"/><polygon points="515.88 123.79 528.17 102.59 527.81 88.19 516.6 97.6 514.43 121.61 515.88 123.79" style="fill:#cbeaef"/><polygon points="619.58 175.87 622.04 162.26 601.4 159.96 590.27 171.06 619.58 175.87" style="fill:#bf311a"/><polygon points="637.18 68.78 645.89 85.59 656.81 85.72 662.11 68.81 637.18 68.78" style="fill:#fbb034"/><path d="M620.21,101.67l20.17.26,3.54-11.4-5.35-9a20.25,20.25,0,0,0-18.36,20.15Z" style="fill:#bf311a"/><path d="M606.78,71.79l1,5.68,17.58,4.61a25.19,25.19,0,0,1,3-2.1,23.54,23.54,0,0,1,8-2.87L625,56.79s-8.83,7.17-18.19,15" style="fill:#232f84"/><path d="M646.64,58.54h-4.08l4.16-8.5c1.94-3.92,2.9-6.78,2.9-8.58s-.92-2.6-2.78-2.6h-8.57V28.15H642v7.32h5.59c3.45,0,5.67,2,5.67,5.77a10.28,10.28,0,0,1-.91,4.13Z" style="fill:#47c3d3"/><path d="M670.38,58.58c-2.5-4.53-5.07-8.67-7.65-12.41a6.77,6.77,0,0,0-2.38,5.19v7.22h-3.77V52.29c0-3.13,1.51-6,4.48-8.54-1.7-2.69-3.57-5.47-5.67-8.28H660c2.06,3,4.56,6.69,7.54,11.18a6.45,6.45,0,0,0,2.18-4.58v-6.6h3.77l0,5.37A9.3,9.3,0,0,1,669,49c2,3.05,3.85,6.26,5.72,9.6Z" style="fill:#47c3d3"/><path d="M690.24,58.58h-3.77V43.44a4.68,4.68,0,0,0-1.55-3.66,5.08,5.08,0,0,0-3.56-1.41,21,21,0,0,0-5.08.58V35.6a22.65,22.65,0,0,1,5.51-.57,8.33,8.33,0,0,1,5.87,2.24,8,8,0,0,1,2.58,6.12Z" style="fill:#47c3d3"/><path d="M717.1,35.47l-1.78,14.79a9.56,9.56,0,0,1-3.77,6.61,10.53,10.53,0,0,1-6.82,2.42,10.34,10.34,0,0,1-6.9-2.25,10.13,10.13,0,0,1-3.33-6.91l-1.63-14.66h3.89c.4,4.09.83,8.28,1.27,12.46a6.11,6.11,0,0,0,4.52-5.68l.59-6.78H707l-1,8.58a6.31,6.31,0,0,1-2.9,4.54,11.72,11.72,0,0,1-4.87,1.94c1.14,3.74,3.29,5.59,6.5,5.59a6.16,6.16,0,0,0,4.92-2.29,9.56,9.56,0,0,0,2.18-5.51l1.27-12.85Z" style="fill:#47c3d3"/><polygon points="724.47 48.06 720.66 49.47 720.66 35.47 724.47 35.47 724.47 48.06" style="fill:#47c3d3"/><polygon points="393.11 77.82 393.11 99.96 379.76 99.96 379.76 77.82 329.62 77.82 373.5 10.97 388.44 10.97 356.94 65.25 379.76 65.25 379.76 36.57 393.11 38.53 393.11 65.25 401.63 65.25 401.63 77.82 393.11 77.82" style="fill:#fbb034"/><path d="M729.1,98.76h15.12c1.86-37.24,15.5-59.61,31-76.2L787.5,10.8H710.14l-.32,14.09h45.59c-12.22,16.52-24.07,38.28-26.31,73.87" style="fill:#47c3d3"/></g><path d="M8.44,141.14A83.87,83.87,0,0,1,0,143.46V124.92H8.44Z" style="fill:#231f20"/><path d="M41,130.8H36.66v25.37l-8.43-.06V130.8H13.55v-5.88H41Z" style="fill:#231f20"/><path d="M54.91,156.11H46.47V124.92h8.44Z" style="fill:#231f20"/><path d="M90.8,156.11H82.36V138.29a7.16,7.16,0,0,0-2.61-5.91,10.94,10.94,0,0,0-7.08-2.11,42.16,42.16,0,0,0-10.34,1.3v-6.12q3.87-1,13.43-1a19.22,19.22,0,0,1,10,2.5q5,3,5,8.44Zm-19.31,0H63V139q2.85-.54,8.5-1.66Z" style="fill:#231f20"/><path d="M106.37,141.14a83.87,83.87,0,0,1-8.44,2.32V124.92h8.44Z" style="fill:#231f20"/><path d="M142,156.11h-8.44V138.29a7.16,7.16,0,0,0-2.61-5.91,10.93,10.93,0,0,0-7.07-2.11,42,42,0,0,0-10.34,1.3v-6.12q3.85-1,13.43-1a19.18,19.18,0,0,1,10,2.5q5.06,3,5.05,8.44Zm-19.31,0h-8.5V139q2.85-.54,8.5-1.66Z" style="fill:#231f20"/><path d="M192.41,156.11H162.76V124.92h17.29a12.53,12.53,0,0,1,8.74,3.3,10.48,10.48,0,0,1,3.62,8.05Zm-8.5-5.82V137.46a6.24,6.24,0,0,0-2.25-5,7.88,7.88,0,0,0-5.17-1.72H171.2v19.55Z" style="fill:#231f20"/><path d="M227.41,134.48a35.78,35.78,0,0,1-.95,9.57,13.25,13.25,0,0,1-4.16,6.06q-7.25,6.3-23.53,11.06V155.1a63.92,63.92,0,0,0,8-2.49l-8.5-27.69h8.86q2.31,7.79,6.71,24.48a8.63,8.63,0,0,0,3.57-3.39,9.13,9.13,0,0,0,1.6-5v-16.1h8.44Z" style="fill:#231f20"/><path d="M263.06,156.11h-8.43V138.29a7.16,7.16,0,0,0-2.62-5.91,10.91,10.91,0,0,0-7.07-2.11,42.1,42.1,0,0,0-10.34,1.3v-6.12q3.87-1,13.43-1a19.18,19.18,0,0,1,10,2.5q5.06,3,5.05,8.44Zm-19.31,0h-8.5V139q2.87-.54,8.5-1.66Z" style="fill:#231f20"/><path d="M292.24,166.81h-8.38V124.92h8.38Z" style="fill:#231f20"/><path d="M308.4,156.11H300V124.92h8.44Z" style="fill:#231f20"/><path d="M346.73,156.11h-10a97.54,97.54,0,0,0-5.47-8.31q-3.51-5.12-5.47-7.55a6.61,6.61,0,0,0-2.08,5.11v10.75h-8.43v-8.67a10.81,10.81,0,0,1,2-5.88,14.78,14.78,0,0,1,5.64-5.11l-9-11.53h10.4l10.22,14q1.9-.76,1.9-6.12v-7.9h8.5v7a12,12,0,0,1-1.72,6.06,10.91,10.91,0,0,1-5.53,4.81Q340.31,147,346.73,156.11Z" style="fill:#231f20"/><path d="M360.34,141.14a83.1,83.1,0,0,1-8.44,2.32V124.92h8.44Z" style="fill:#231f20"/><path d="M383.16,130.56a4.69,4.69,0,0,0-4,2.11,8.22,8.22,0,0,0-1.49,4.85v18.59h-8.5V142.74q0-8.31,5.83-11.76l-.06-.24h-9.21v-5.82h17.47Z" style="fill:#231f20"/><path d="M397.24,156.11H388.8V124.92h8.44Z" style="fill:#231f20"/><path d="M438.66,140.28q0,7-2.92,11.39a10.71,10.71,0,0,1-9.56,5,13,13,0,0,1-6.36-1.3v-5.53a9,9,0,0,0,4.63,1q5.48,0,5.47-10.64,0-10-5.7-10c-2.1,0-4,1.28-5.53,3.86a23.26,23.26,0,0,0-2.91,8.14l-2.5,13.9h-8.5l2.2-12a36.94,36.94,0,0,0,.72-6.06,21.33,21.33,0,0,0-1.79-7.72l-2.2-5.41H413a74.28,74.28,0,0,1,2.26,7.6h.18a14.23,14.23,0,0,1,3.8-5.64,9.14,9.14,0,0,1,6.3-2.56q6.48,0,9.87,4.33Q438.66,132.75,438.66,140.28Z" style="fill:#231f20"/><path d="M147.78,212.84h-5.7V193.52a7.14,7.14,0,0,0-2-5.43,7.67,7.67,0,0,0-5.53-1.93H127.7V206.6a6.14,6.14,0,0,1-2.17,5.08,8.66,8.66,0,0,1-5.62,1.75,16.15,16.15,0,0,1-4.69-1v-4.16a21.19,21.19,0,0,0,3,.42c2.54,0,3.8-1.05,3.8-3.15V186.16h-6v-4.52h20.09a11.52,11.52,0,0,1,8.26,3.3,10.81,10.81,0,0,1,3.44,8.11Z" style="fill:#231f20"/><path d="M161.57,212.84h-5.7v-31.2h5.7Z" style="fill:#231f20"/><path d="M193.3,212.84H168.88v-4.58l17.94.06q-3-3.91-19.37-26.68h6.78q3.5,4.81,10.4,14.74a8.24,8.24,0,0,0,3-6.48v-8.26h5.64v6.89q0,6.9-6.48,11l6.48,9.8Z" style="fill:#231f20"/><path d="M206.32,212.84h-5.71v-31.2h5.71Z" style="fill:#231f20"/><path d="M241.14,197.21q0,7.6-4.55,12.06t-12.21,4.46a27,27,0,0,1-9.63-1.67v-4.57a32.27,32.27,0,0,0,8.92,2.08q11.46.12,11.46-12.36,0-12.24-9.38-12.24a8,8,0,0,0-5.06,1.54,5.62,5.62,0,0,0-2.13,4.7,4.48,4.48,0,0,0,2.37,4,9.16,9.16,0,0,0,4.82,1.19v3.68c-1.71.12-2.46.18-2.26.18a11.86,11.86,0,0,1-7.37-2.2,7.9,7.9,0,0,1-3.27-6.71,9.27,9.27,0,0,1,4.16-8.21,16.34,16.34,0,0,1,9.27-2.43q7.49,0,11.29,4.57Q241.14,189.61,241.14,197.21Z" style="fill:#231f20"/><path d="M278.39,212.84h-5.7V193.52a7.14,7.14,0,0,0-2-5.43,7.67,7.67,0,0,0-5.53-1.93h-6.83V206.6a6.14,6.14,0,0,1-2.17,5.08,8.66,8.66,0,0,1-5.62,1.75,16.15,16.15,0,0,1-4.69-1v-4.16a21.19,21.19,0,0,0,3,.42c2.54,0,3.8-1.05,3.8-3.15V186.16h-6v-4.52h20.09a11.52,11.52,0,0,1,8.26,3.3,10.81,10.81,0,0,1,3.44,8.11Z" style="fill:#231f20"/><path d="M312.92,212.84h-5.65V193.58q0-8.07-9.8-8.08A48.13,48.13,0,0,0,286.18,187v-5.11a71.4,71.4,0,0,1,11.41-.83q15.33,0,15.33,12.3Zm-20,0h-5.82V194.77l5.82-1.54Z" style="fill:#231f20"/><path d="M365.09,212.84h-5.7V193.52a7.17,7.17,0,0,0-2-5.43,7.67,7.67,0,0,0-5.53-1.93H345V206.6a6.17,6.17,0,0,1-2.17,5.08,8.66,8.66,0,0,1-5.62,1.75,16.08,16.08,0,0,1-4.69-1v-4.16a20.8,20.8,0,0,0,3,.42q3.79,0,3.8-3.15V186.16h-6v-4.52h20.09a11.5,11.5,0,0,1,8.25,3.3,10.78,10.78,0,0,1,3.45,8.11Z" style="fill:#231f20"/><path d="M378.64,198.63l-5.7,1.91v-18.9h5.7Z" style="fill:#231f20"/><path d="M410.43,212.84h-26v-4.52H401V192.63a6.36,6.36,0,0,0-2.29-5.17,8.85,8.85,0,0,0-5.67-2,27.32,27.32,0,0,0-8,1.31v-4.87a32.13,32.13,0,0,1,8-.89,15.1,15.1,0,0,1,9.63,2.91,10.65,10.65,0,0,1,4,8.91v15.45h3.8Z" style="fill:#231f20"/><path d="M439.79,212.84h-26v-4.52h16.52V192.63a6.39,6.39,0,0,0-2.29-5.17,8.89,8.89,0,0,0-5.67-2,27.38,27.38,0,0,0-8,1.31v-4.87a32.16,32.16,0,0,1,8-.89,15,15,0,0,1,9.62,2.91,10.62,10.62,0,0,1,4,8.91v15.45h3.81Z" style="fill:#231f20"/></g></g></svg>