<svg xmlns="http://www.w3.org/2000/svg" viewBox="0 0 178.5 55.76"><title>logo-en</title><g id="Layer_2" data-name="Layer 2"><g id="Open"><g id="_Group_" data-name="&lt;Group&gt;"><path d="M55.45,10.11h4.68c1.72,0,3.61.42,3.61,2.51a2.25,2.25,0,0,1-1.32,2A2.37,2.37,0,0,1,64.15,17c0,2.38-1.75,3.11-3.89,3.11h-4.8ZM58.05,14h2a1,1,0,0,0,1.06-1c0-.73-.52-1-1.06-1h-2Zm0,4h2.09c.83,0,1.4-.29,1.4-1.12s-.62-1.18-1.4-1.18H58.05Z" style="fill:#333"/><path d="M65.56,10.11h8V12.2H68.16v1.75h4.9v2h-4.9v1.91h5.5v2.24H65.56Z" style="fill:#333"/><path d="M75.15,10.11h2.61v10H75.15Z" style="fill:#333"/><path d="M87.49,12.35h-3v7.76H81.9V12.35h-3V10.11h8.57Z" style="fill:#333"/><path d="M93,10.11h2.61v3.64H99V10.11h2.61v10H99V16H95.62v4.12H93Z" style="fill:#333"/><path d="M106.13,10.11h2.65l3.74,10H109.8l-.62-1.79H105.7l-.63,1.79h-2.68Zm.17,6.28h2.27l-1.11-3.5h0Z" style="fill:#333"/><path d="M121.2,12.35h-3v7.76h-2.61V12.35h-3V10.11h8.57Z" style="fill:#333"/><path d="M122.34,10.11h7.37V12.2h-4.76v2h4.12v2h-4.12v3.85h-2.61Z" style="fill:#333"/><path d="M139.54,16c0,2.9-1.33,4.34-4.36,4.34s-4.36-1.44-4.36-4.34V10.11h2.6v6c0,1.29.48,1.95,1.75,1.95s1.75-.66,1.75-1.95v-6h2.61Z" style="fill:#333"/><path d="M149.2,12.35h-3v7.76h-2.61V12.35h-3V10.11h8.57Z" style="fill:#333"/><path d="M152.37,16.75c.05,1.18.78,1.55,1.89,1.55.78,0,1.6-.28,1.6-1s-1.43-1.05-2.87-1.46-2.93-1.05-2.93-2.89c0-2.19,2.2-3,4.08-3s4,1,4,3.22h-2.61c0-.91-.81-1.21-1.61-1.21-.56,0-1.26.2-1.26.85s1.44.91,2.9,1.32,2.9,1.08,2.9,2.89c0,2.54-2.16,3.35-4.36,3.35s-4.33-1-4.34-3.57Z" style="fill:#333"/><path d="M164.23,9.9c3.15,0,4.93,2.31,4.93,5.21s-1.78,5.21-4.93,5.21S159.3,18,159.3,15.11,161.08,9.9,164.23,9.9Zm0,8.18c1.68,0,2.33-1.48,2.33-3s-.64-3-2.33-3-2.33,1.48-2.33,3S162.55,18.08,164.23,18.08Z" style="fill:#333"/><path d="M178.5,12.35h-3v7.76h-2.61V12.35h-3V10.11h8.57Z" style="fill:#333"/><path d="M57.43,26.51H54.58v-1h6.85v1H58.57v7.6H57.43Z" style="fill:#333"/><path d="M62.21,25.55h1v3.27h0a2.1,2.1,0,0,1,2-1.05c1.63,0,2.13.94,2.13,2.27v4.08h-1v-4.2a1.17,1.17,0,0,0-1.26-1.25,1.74,1.74,0,0,0-1.83,1.94v3.5h-1Z" style="fill:#333"/><path d="M74.17,32.14a2.5,2.5,0,0,1-2.65,2.11c-2,0-2.91-1.37-3-3.26a3,3,0,0,1,2.92-3.23c2.19,0,2.87,2.05,2.81,3.55H69.62a1.83,1.83,0,0,0,1.93,2,1.49,1.49,0,0,0,1.61-1.21Zm-1-1.73a1.79,1.79,0,0,0-1.79-1.75,1.77,1.77,0,0,0-1.78,1.75Z" style="fill:#333"/><path d="M78.85,25.55h1.56l2.7,7.2,2.71-7.2h1.56v8.56H86.3V27h0L83.6,34.11h-1L80,27h0v7.12H78.85Z" style="fill:#333"/><path d="M94.25,34.11h-1v-1h0a2.16,2.16,0,0,1-2,1.13c-1.63,0-2.13-.94-2.13-2.27V27.91h1v4.2a1.17,1.17,0,0,0,1.26,1.25,1.74,1.74,0,0,0,1.83-1.94v-3.5h1Z" style="fill:#333"/><path d="M96.41,32.15c0,.91.83,1.2,1.67,1.2.64,0,1.5-.14,1.5-.92s-1-.92-2-1.15-2-.56-2-1.75,1.23-1.76,2.31-1.76c1.37,0,2.46.43,2.54,1.94h-1c-.07-.79-.77-1-1.44-1s-1.32.17-1.32.79,1.08.85,2,1.08,2,.56,2,1.76c0,1.47-1.38,2-2.64,2s-2.57-.56-2.63-2.1Z" style="fill:#333"/><path d="M107.07,32.14a2.5,2.5,0,0,1-2.65,2.11c-2,0-2.92-1.37-3-3.26a3,3,0,0,1,2.91-3.23c2.2,0,2.87,2.05,2.81,3.55h-4.64a1.83,1.83,0,0,0,1.93,2,1.49,1.49,0,0,0,1.61-1.21Zm-1-1.73a1.78,1.78,0,0,0-3.56,0Z" style="fill:#333"/><path d="M113.36,34.11h-1v-1h0a2.16,2.16,0,0,1-2,1.13c-1.63,0-2.13-.94-2.13-2.27V27.91h1v4.2a1.17,1.17,0,0,0,1.26,1.25,1.74,1.74,0,0,0,1.83-1.94v-3.5h1Z" style="fill:#333"/><path d="M114.9,27.91h1v.91h0a2.28,2.28,0,0,1,2-1.05,1.64,1.64,0,0,1,1.7,1.05,2.3,2.3,0,0,1,1.94-1.05c1.24,0,2.06.52,2.06,1.8v4.54h-1V30c0-.77-.2-1.38-1.2-1.38a1.5,1.5,0,0,0-1.62,1.58v3.86h-1V30c0-.8-.25-1.38-1.16-1.38a1.67,1.67,0,0,0-1.66,1.58v3.86h-1Z" style="fill:#333"/><path d="M131.15,27.77a2.94,2.94,0,0,1,3,3.25,3,3,0,1,1-6,0A2.94,2.94,0,0,1,131.15,27.77Zm0,5.59c1.07,0,1.93-.84,1.93-2.34s-.86-2.35-1.93-2.35-1.93.84-1.93,2.35S130.08,33.35,131.15,33.35Z" style="fill:#333"/><path d="M135.78,28.81h-1v-.9h1V27c0-1,.6-1.54,1.71-1.54a2.48,2.48,0,0,1,.66.1v.89a1.92,1.92,0,0,0-.58-.08c-.49,0-.78.16-.78.7v.86H138v.9h-1.2v5.3h-1Z" style="fill:#333"/><path d="M143.66,27.91h1.23v.9h-1.23v3.85c0,.47.13.55.77.55h.47v.9h-.78c-1.05,0-1.47-.22-1.47-1.36V28.81h-1.06v-.9h1.06V26h1Z" style="fill:#333"/><path d="M146,25.55h1v3.27h0a2.1,2.1,0,0,1,2-1.05c1.63,0,2.13.94,2.13,2.27v4.08h-1v-4.2a1.17,1.17,0,0,0-1.26-1.25A1.74,1.74,0,0,0,147,30.61v3.5h-1Z" style="fill:#333"/><path d="M158,32.14a2.5,2.5,0,0,1-2.65,2.11c-2,0-2.92-1.37-3-3.26a3,3,0,0,1,2.92-3.23c2.19,0,2.87,2.05,2.81,3.55h-4.64a1.83,1.83,0,0,0,1.93,2A1.49,1.49,0,0,0,157,32.14Zm-1-1.73a1.78,1.78,0,0,0-3.56,0Z" style="fill:#333"/><path d="M59.84,44a2.22,2.22,0,0,1-2.53,2.34,2.26,2.26,0,0,1-2.5-2.5v-.53H56v.36c0,1,.26,1.7,1.38,1.7s1.37-.6,1.37-1.55V37.55h1.14Z" style="fill:#333"/><path d="M66.84,44.14a2.5,2.5,0,0,1-2.65,2.11c-2,0-2.91-1.37-3-3.26a3,3,0,0,1,2.92-3.23c2.19,0,2.87,2.05,2.81,3.55H62.29a1.83,1.83,0,0,0,1.93,2,1.49,1.49,0,0,0,1.61-1.21Zm-1-1.73a1.79,1.79,0,0,0-1.79-1.75,1.77,1.77,0,0,0-1.78,1.75Z" style="fill:#333"/><path d="M74.13,46.11H73.05l-1.26-4.93h0l-1.25,4.93h-1.1l-2-6.2h1.13L70,45h0l1.25-5.07h1.12L73.64,45h0l1.39-5.07h1.06Z" style="fill:#333"/><path d="M78.17,38.79h-1V37.55h1Zm-1,1.12h1v6.2h-1Z" style="fill:#333"/><path d="M80.38,44.15c0,.91.83,1.2,1.67,1.2.64,0,1.5-.14,1.5-.92s-1-.92-2-1.15-2-.56-2-1.75,1.24-1.76,2.31-1.76c1.37,0,2.46.43,2.54,1.94h-1c-.07-.79-.77-1-1.44-1s-1.32.17-1.32.79,1.08.85,2,1.08,2,.56,2,1.76c0,1.47-1.38,2-2.64,2s-2.57-.56-2.63-2.1Z" style="fill:#333"/><path d="M85.75,37.55h1v3.27h0a2.1,2.1,0,0,1,2-1.05c1.63,0,2.13.94,2.13,2.27v4.08h-1v-4.2a1.17,1.17,0,0,0-1.26-1.25,1.74,1.74,0,0,0-1.83,1.94v3.5h-1Z" style="fill:#333"/><path d="M95.93,37.55h3.75a2.34,2.34,0,0,1,2.63,2.53,2.34,2.34,0,0,1-2.63,2.53H97.07v3.5H95.93Zm1.14,4.1H99.3c1.28,0,1.87-.55,1.87-1.57s-.59-1.57-1.87-1.57H97.07Z" style="fill:#333"/><path d="M108.83,44.14a2.5,2.5,0,0,1-2.65,2.11c-2,0-2.92-1.37-3-3.26a3,3,0,0,1,2.91-3.23c2.2,0,2.87,2.05,2.81,3.55h-4.64a1.83,1.83,0,0,0,1.93,2,1.49,1.49,0,0,0,1.61-1.21Zm-1-1.73a1.78,1.78,0,0,0-3.56,0Z" style="fill:#333"/><path d="M112.65,39.77a2.94,2.94,0,0,1,3,3.25,3,3,0,1,1-6,0A2.94,2.94,0,0,1,112.65,39.77Zm0,5.59c1.07,0,1.93-.84,1.93-2.34s-.86-2.35-1.93-2.35-1.93.84-1.93,2.35S111.59,45.35,112.65,45.35Z" style="fill:#333"/><path d="M116.9,39.91h1v.84h0a2.08,2.08,0,0,1,2-1c1.91,0,2.85,1.51,2.85,3.26s-.94,3.23-2.83,3.23a2.38,2.38,0,0,1-2-1h0v3.2h-1Zm2.88.75c-1.37,0-1.89,1.18-1.89,2.34s.55,2.35,2,2.35,1.86-1.19,1.86-2.4S121.1,40.66,119.78,40.66Z" style="fill:#333"/><path d="M124,37.55h1v8.56h-1Z" style="fill:#333"/><path d="M131.94,44.14a2.5,2.5,0,0,1-2.65,2.11c-2,0-2.92-1.37-3-3.26a3,3,0,0,1,2.91-3.23c2.2,0,2.87,2.05,2.81,3.55h-4.64a1.83,1.83,0,0,0,1.93,2,1.49,1.49,0,0,0,1.61-1.21Zm-1-1.73a1.78,1.78,0,0,0-3.56,0Z" style="fill:#333"/></g><path d="M24.31,55.76l-2.47-4.25a4.93,4.93,0,0,1,4.89,0l-2.42,4.25" style="fill:#f5a934"/><path d="M2.44,18,0,13.76H4.91a5,5,0,0,1-.68,2.46A4.87,4.87,0,0,1,2.44,18" style="fill:#46bccc"/><polyline points="9.68 42.2 5.79 42.2 6.36 39.01 9.13 38.26 9.68 42.2" style="fill:#b8311a"/><polyline points="7.31 26.4 3.67 20.11 7.87 20.49 7.31 26.4" style="fill:#b8311a"/><polyline points="0.03 42.2 2.29 38.27 5.08 39.13 4.54 42.2 0.03 42.2" style="fill:#f5a934"/><path d="M21.09,5.28l3-5.28c1.56,2.65,2.36,4.13,2.36,4.13-.57.14-5.38,1.15-5.38,1.15" style="fill:#b8311a"/><polyline points="7.24 33.27 5.66 32.38 8.12 28.08 8.86 29.3 7.24 33.27" style="fill:#232f80"/><polyline points="43.4 22.27 40.82 21.72 42.2 17.39 45.74 18.2 43.4 22.27" style="fill:#232f80"/><polyline points="19.6 47.61 18.5 45.71 21.48 43.43 23.62 46.94 19.6 47.61" style="fill:#b8311a"/><path d="M18,44.89l-1.51-2.61h4.86L18,44.89" style="fill:#f5a934"/><polyline points="40.3 27.55 38.15 23.87 40.4 22.67 42.81 23.19 40.3 27.55" style="fill:#b8311a"/><polyline points="27.43 50.25 25.54 49.47 24.85 46.52 29.25 47.05 27.43 50.25" style="fill:#46bccc"/><polyline points="48.55 42.22 44.66 42.22 46.02 37.87 48.55 42.22" style="fill:#b8311a"/><polyline points="18.11 10.6 20.32 6.7 24.02 5.91 21.96 10.51 18.11 10.6" style="fill:#46bccc"/><path d="M42.44,37.46l-3.51-3.69,4.74.15,1.78,3-3,.5" style="fill:#46bccc"/><polyline points="28.21 11.89 24.41 8.36 25.6 5.75 27.31 5.4 30.11 10.27 28.21 11.89" style="fill:#f5a934"/><polyline points="40.97 17.23 38.15 17.19 39.2 13.79 42.07 13.79 40.97 17.23" style="fill:#b8311a"/><polyline points="39.79 39.83 38.18 39.42 38.48 34.88 42.02 38.62 39.79 39.83" style="fill:#c4e3e7"/><polyline points="16.83 31.03 13.42 29.17 16.01 25.01 18.66 26.79 16.83 31.03" style="fill:#46bccc"/><path d="M18.66,39l-2.24-2.77c1.16-.75,3.54-2.12,3.54-2.12l1.9,1.18L18.66,39" style="fill:#46bccc"/><path d="M15,35.91l.59-4.32c.48.24,3.39,1.92,3.39,1.92-.47.27-4,2.4-4,2.4" style="fill:#f5a934"/><polyline points="10.54 29.77 8.81 26.84 11.59 22.07 13.51 27.2 10.54 29.77" style="fill:#b8311a"/><polyline points="21.15 23.21 18.66 20.75 22.52 18.08 23.51 22.46 21.15 23.21" style="fill:#c4e3e7"/><polyline points="27.37 22.65 24.31 20.58 23.1 15.51 25.97 14.85 27.37 22.65" style="fill:#46bccc"/><polyline points="29.82 25.81 28.18 21.36 33.41 21.43 29.82 25.81" style="fill:#c4e3e7"/><polyline points="37.11 39.44 34.25 38.42 36.9 33.74 37.11 39.44" style="fill:#232f80"/><polyline points="39.61 28.59 35.88 28.08 37.23 24.46 39.61 28.59" style="fill:#f5a934"/><polyline points="36.34 32.56 33.08 31.39 31.45 28.09 37.96 29.69 36.34 32.56" style="fill:#c4e3e7"/><polyline points="14.2 25.91 12.72 21.88 15.16 18.76 17.27 20.87 14.2 25.91" style="fill:#232f80"/><polyline points="12.33 20.51 12.15 13.76 13.53 13.76 15.42 16.51 12.33 20.51" style="fill:#46bccc"/><polyline points="15.26 42.2 10.67 42.2 10.19 38.9 15.26 42.2" style="fill:#46bccc"/><polyline points="16.8 16.47 15.4 15.3 17.44 11.76 20.51 11.73 16.8 16.47" style="fill:#b8311a"/><polyline points="12.65 39.12 10.38 37.66 11.53 33.77 14.3 35.44 12.65 39.12" style="fill:#b8311a"/><polyline points="6.57 37.69 9.5 30.4 10.77 32.62 9.5 36.89 6.57 37.69" style="fill:#c4e3e7"/><path d="M21.11,50.23l-1-1.64L23.93,48s.18.78.36,1.53l-3.17.73" style="fill:#46bccc"/><path d="M24.78,45.64,22.7,43.53A5.81,5.81,0,0,0,24,41.13l2.94.11a5.55,5.55,0,0,1-2.14,4.4" style="fill:#c4e3e7"/><polyline points="43.49 42.22 41.32 42.22 40.58 40.8 44.42 38.39 43.49 42.22" style="fill:#f5a934"/><path d="M43.13,32.89l-5.47-.26c.17-.37,1.36-2.42,1.36-2.42l2.18-.64,1.92,3.31" style="fill:#b8311a"/><polyline points="40.07 42.22 32.99 42.2 34.8 39.66 39.33 40.82 40.07 42.22" style="fill:#46bccc"/><polyline points="31.94 42.37 27.53 40.7 30.09 36.77 33.52 39.7 31.94 42.37" style="fill:#b8311a"/><polyline points="24.48 40.16 23.61 35.29 28.78 36.16 27.36 38.77 24.48 40.16" style="fill:#f5a934"/><path d="M22.15,41.66l-3-1.69,2.94-3.43a3.42,3.42,0,0,1,1.11,2.26v.08a3.64,3.64,0,0,1-1.09,2.77" style="fill:#b8311a"/><polyline points="5.45 37.97 2.92 37.21 5.11 33.39 6.93 34.39 5.45 37.97" style="fill:#46bccc"/><path d="M29.8,46.11l-3-.41A5.79,5.79,0,0,0,28.28,42l3.15,1.18L29.8,46.11" style="fill:#232f80"/><polyline points="19.1 41.2 15.84 41.2 13.57 39.71 15.48 36.77 19.1 41.2" style="fill:#232f80"/><path d="M14.22,34.12A3.07,3.07,0,0,1,12,29.6l.7.38,2,1.08-.45,3.06" style="fill:#232f80"/><polyline points="39.45 22.36 38.1 22.07 35.98 18.36 40.78 18.42 39.45 22.36" style="fill:#c4e3e7"/><polyline points="26.87 27.43 22.33 24.31 25.14 22.56 28.26 24.66 28.83 26.41 26.87 27.43" style="fill:#232f80"/><polyline points="23.19 29.56 19.86 27.35 22.67 25.83 26 27.99 23.19 29.56" style="fill:#46bccc"/><path d="M29.08,31.52h-.26a4.87,4.87,0,0,1-3.56-1.83l4.15-2.3L31.21,31a4.83,4.83,0,0,1-2.13.5" style="fill:#f5a934"/><polyline points="22.28 14.51 20.97 13.33 23.89 9.47 27.19 12.62 25.96 13.68 22.28 14.51" style="fill:#c4e3e7"/><path d="M34.64,27.78l-4.33-1.06,3.21-3.33a4,4,0,0,1,1.11,4.39" style="fill:#232f80"/><path d="M35.61,24.91a4.33,4.33,0,0,0-.47-1.1,4.82,4.82,0,0,0-1-1.17l1.08-3.41,2.05,3.53-1.71,2.15" style="fill:#46bccc"/><path d="M28.79,20.2h-.9l-.65-3.69,2.61.7a4.73,4.73,0,0,0-1.06,3" style="fill:#46bccc"/><polyline points="46.34 17.11 42.63 16.25 43.37 13.8 48.25 13.8 46.34 17.11" style="fill:#46bccc"/><polyline points="19.69 26.18 16.67 24.16 18.14 21.68 21.66 25.08 19.69 26.18" style="fill:#b8311a"/><polyline points="18.02 19.95 16.52 18.57 19.98 14.03 22.04 16 22.23 17 18.02 19.95" style="fill:#f5a934"/><polyline points="34.38 36.17 31.87 32.06 35.9 33.49 34.38 36.17" style="fill:#46bccc"/><path d="M33.06,37.87l-2.42-2.05L31.08,33a4.76,4.76,0,0,1,2.09,4,4.7,4.7,0,0,1-.11.94" style="fill:#c4e3e7"/><polyline points="22.26 34.12 17.84 31.6 19.31 28.22 25.07 31.62 22.26 34.12" style="fill:#c4e3e7"/><polyline points="9.36 17.85 6.35 13.76 11.22 13.76 11.33 16.23 9.36 17.85" style="fill:#232f80"/><polyline points="7.55 19.31 3.21 18.94 6.21 15.31 8.43 18.58 7.55 19.31" style="fill:#f5a934"/><polyline points="8.9 24.81 8.61 24.37 9.04 19.55 11.29 17.68 11.36 20.56 8.9 24.81" style="fill:#c4e3e7"/><polyline points="29.68 35.24 23.81 34.28 26.04 32.06 30.17 32.52 29.68 35.24" style="fill:#b8311a"/><polyline points="37.14 17.18 34.95 17.15 33.2 13.78 38.2 13.79 37.14 17.18" style="fill:#f5a934"/><path d="M33.85,20.43l-4,0h0a4.06,4.06,0,0,1,3.68-4l1.07,1.82-.71,2.28" style="fill:#b8311a"/><path d="M30.83,16.45l-3.52-.92-.19-1.13c1.87-1.57,3.65-3,3.65-3L33,15.45a4.81,4.81,0,0,0-1.6.58,4.17,4.17,0,0,0-.61.42" style="fill:#232f80"/></g></g></svg>