<svg xmlns="http://www.w3.org/2000/svg" xmlns:xlink="http://www.w3.org/1999/xlink" viewBox="0 0 28.33 27.02"><defs><symbol id="mobile-menu-he" data-name="mobile-menu-he" viewBox="0 0 68 64.42"><rect x="0.76" width="67" height="9" style="fill:#666766"/><rect x="0.76" y="16" width="67" height="9" style="fill:#666766"/><rect x="0.76" y="31" width="67" height="9" style="fill:#666766"/><path d="M9.33,48.18a5.65,5.65,0,0,1,3.07.73q2.37,1.48,2.37,7.39a9.14,9.14,0,0,1-1.75,6,6.19,6.19,0,0,1-5,2.09A6,6,0,0,1,3.4,62.34,7.21,7.21,0,0,1,2,59.78a11.28,11.28,0,0,1-.5-3.48V48.45H5.27V56.3A8.34,8.34,0,0,0,6,60.15a2.29,2.29,0,0,0,2.15,1.28,2.37,2.37,0,0,0,2.18-1.21A8,8,0,0,0,11,56.3a13.06,13.06,0,0,0-.4-3.81,1.74,1.74,0,0,0-1.32-1.26,4.9,4.9,0,0,0-1.09-.1l-.78.06V48.45A6.6,6.6,0,0,1,9.33,48.18Z" style="fill:#666766"/><path d="M17.69,58.85V48.43h3.73V55.7l-2.48,3.15Z" style="fill:#666766"/><path d="M23.66,48.44a36.61,36.61,0,0,1,4.05-.26,17.83,17.83,0,0,1,2.79.17,6,6,0,0,1,1.72.53,4.27,4.27,0,0,1,1.14.81,3.11,3.11,0,0,1,.69,1.14,6.42,6.42,0,0,1,.33,1.38,14.11,14.11,0,0,1,.08,1.67V64.17H30.73V53.87q0-2.82-3.1-2.82a38.92,38.92,0,0,0-4,.26Z" style="fill:#666766"/><path d="M37.48,53.76a5.81,5.81,0,0,1,.41-2.25A4.49,4.49,0,0,1,39,49.92a5.72,5.72,0,0,1,1.53-1,8.72,8.72,0,0,1,3.63-.72,9,9,0,0,1,1.85.18,5.83,5.83,0,0,1,1.77.73,5.32,5.32,0,0,1,1.55,1.41,7.16,7.16,0,0,1,1.05,2.35A11.84,11.84,0,0,1,50.74,56a18.78,18.78,0,0,1-.18,2.85,9.7,9.7,0,0,1-.51,2,5.9,5.9,0,0,1-.81,1.46,4.92,4.92,0,0,1-1,1A5,5,0,0,1,47,64a8.45,8.45,0,0,1-2.82.43q-1.61,0-3-.09T39,64.16l-.64-.09V61.34q2.81.22,5.71.22A2.53,2.53,0,0,0,45.87,61a3.27,3.27,0,0,0,.82-1.57,6.77,6.77,0,0,0,.23-1.61q0-.86,0-1.48t0-1q0-.42-.07-1a5.92,5.92,0,0,0-.17-1,5.14,5.14,0,0,0-.32-.82,2,2,0,0,0-.5-.68,2.59,2.59,0,0,0-1.75-.6,3.62,3.62,0,0,0-1.34.23,2.33,2.33,0,0,0-.84.52,2.41,2.41,0,0,0-.45.68,3,3,0,0,0-.22,1.1,2.35,2.35,0,0,0,.24,1,2.06,2.06,0,0,0,.59.76,3.11,3.11,0,0,0,1.24.62l.46.08L43.18,59l-.65-.08A9.17,9.17,0,0,1,40,58.26Q37.48,57.13,37.48,53.76Z" style="fill:#666766"/><path d="M56.42,64.17a6.53,6.53,0,0,1-1.86.25,4.8,4.8,0,0,1-1.83-.33V61.26a5.32,5.32,0,0,0,1.28.22,1.52,1.52,0,0,0,.76-.17,1.07,1.07,0,0,0,.45-.48,3.23,3.23,0,0,0,.24-1.32V51.36l-1.77.17V48.71a53.91,53.91,0,0,1,7.47-.52,9.42,9.42,0,0,1,4.12.7,4.25,4.25,0,0,1,1.14.81,3.1,3.1,0,0,1,.69,1.14,6.48,6.48,0,0,1,.33,1.38,14.11,14.11,0,0,1,.08,1.67V64.17H63.78V53.87q0-2.82-3.09-2.82-.68,0-1.49,0v8.42q0,2.83-1.41,4A3.92,3.92,0,0,1,56.42,64.17Z" style="fill:#666766"/></symbol></defs><title>mobile-menu-he</title><g id="Layer_2" data-name="Layer 2"><g id="Open"><use width="68" height="64.42" transform="scale(0.42 0.42)" xlink:href="#mobile-menu-he"/></g></g></svg>