<svg xmlns="http://www.w3.org/2000/svg" xmlns:xlink="http://www.w3.org/1999/xlink" viewBox="0 0 27.83 26.81"><defs><symbol id="mobile-menu-en" data-name="mobile-menu-en" viewBox="0 0 67 64.55"><rect width="67" height="9" style="fill:#666766"/><rect y="16" width="67" height="9" style="fill:#666766"/><rect y="31" width="67" height="9" style="fill:#666766"/><path d="M17.53,64.33h-3.2V56.69q0-.77,0-1.23t.16-3.78h-.1L10.23,64.33H7.09L3.2,51.66H3.1q.21,3.77.21,5.16v7.51H.24V48.18H4.91L8.74,60.53H8.8l4.06-12.35h4.67Z" style="fill:#666766"/><path d="M30.91,51H25v3.55h5.46v2.81H25V61.5h5.88v2.83H21.6V48.18h9.31Z" style="fill:#666766"/><path d="M48.63,64.33H44.28l-7-12.22h-.1q.21,3.15.21,4.62v7.6H34.29V48.18h4.33l7,12.09h.08q-.17-3.15-.17-4.45V48.18h3.09Z" style="fill:#666766"/><path d="M65.87,48.18V58.7a5.43,5.43,0,0,1-1.79,4.25,6.92,6.92,0,0,1-4.79,1.6h-.12a6.85,6.85,0,0,1-4.84-1.6,5.66,5.66,0,0,1-1.73-4.36V48.18H56v9.89a4.09,4.09,0,0,0,.76,2.75,3.9,3.9,0,0,0,4.91,0A4.13,4.13,0,0,0,62.45,58V48.18Z" style="fill:#666766"/></symbol></defs><title>mobile-menu-en</title><g id="Layer_2" data-name="Layer 2"><g id="Open"><use width="67" height="64.55" transform="scale(0.42)" xlink:href="#mobile-menu-en"/></g></g></svg>