<svg xmlns="http://www.w3.org/2000/svg"><defs><style>.cls-1{fill:#2814ff;}.cls-2{fill:#fff;}</style><symbol id="mobile-menu-en-mobile-menu-en" data-name="mobile-menu-en" viewBox="0 0 67 64.55"><rect width="67" height="9" style="fill:#666766"/><rect y="16" width="67" height="9" style="fill:#666766"/><rect y="31" width="67" height="9" style="fill:#666766"/><path d="M17.53,64.33h-3.2V56.69q0-.77,0-1.23t.16-3.78h-.1L10.23,64.33H7.09L3.2,51.66H3.1q.21,3.77.21,5.16v7.51H.24V48.18H4.91L8.74,60.53H8.8l4.06-12.35h4.67Z" style="fill:#666766"/><path d="M30.91,51H25v3.55h5.46v2.81H25V61.5h5.88v2.83H21.6V48.18h9.31Z" style="fill:#666766"/><path d="M48.63,64.33H44.28l-7-12.22h-.1q.21,3.15.21,4.62v7.6H34.29V48.18h4.33l7,12.09h.08q-.17-3.15-.17-4.45V48.18h3.09Z" style="fill:#666766"/><path d="M65.87,48.18V58.7a5.43,5.43,0,0,1-1.79,4.25,6.92,6.92,0,0,1-4.79,1.6h-.12a6.85,6.85,0,0,1-4.84-1.6,5.66,5.66,0,0,1-1.73-4.36V48.18H56v9.89a4.09,4.09,0,0,0,.76,2.75,3.9,3.9,0,0,0,4.91,0A4.13,4.13,0,0,0,62.45,58V48.18Z" style="fill:#666766"/></symbol><symbol id="mobile-menu-he-mobile-menu-he" data-name="mobile-menu-he" viewBox="0 0 68 64.42"><rect x="0.76" width="67" height="9" style="fill:#666766"/><rect x="0.76" y="16" width="67" height="9" style="fill:#666766"/><rect x="0.76" y="31" width="67" height="9" style="fill:#666766"/><path d="M9.33,48.18a5.65,5.65,0,0,1,3.07.73q2.37,1.48,2.37,7.39a9.14,9.14,0,0,1-1.75,6,6.19,6.19,0,0,1-5,2.09A6,6,0,0,1,3.4,62.34,7.21,7.21,0,0,1,2,59.78a11.28,11.28,0,0,1-.5-3.48V48.45H5.27V56.3A8.34,8.34,0,0,0,6,60.15a2.29,2.29,0,0,0,2.15,1.28,2.37,2.37,0,0,0,2.18-1.21A8,8,0,0,0,11,56.3a13.06,13.06,0,0,0-.4-3.81,1.74,1.74,0,0,0-1.32-1.26,4.9,4.9,0,0,0-1.09-.1l-.78.06V48.45A6.6,6.6,0,0,1,9.33,48.18Z" style="fill:#666766"/><path d="M17.69,58.85V48.43h3.73V55.7l-2.48,3.15Z" style="fill:#666766"/><path d="M23.66,48.44a36.61,36.61,0,0,1,4.05-.26,17.83,17.83,0,0,1,2.79.17,6,6,0,0,1,1.72.53,4.27,4.27,0,0,1,1.14.81,3.11,3.11,0,0,1,.69,1.14,6.42,6.42,0,0,1,.33,1.38,14.11,14.11,0,0,1,.08,1.67V64.17H30.73V53.87q0-2.82-3.1-2.82a38.92,38.92,0,0,0-4,.26Z" style="fill:#666766"/><path d="M37.48,53.76a5.81,5.81,0,0,1,.41-2.25A4.49,4.49,0,0,1,39,49.92a5.72,5.72,0,0,1,1.53-1,8.72,8.72,0,0,1,3.63-.72,9,9,0,0,1,1.85.18,5.83,5.83,0,0,1,1.77.73,5.32,5.32,0,0,1,1.55,1.41,7.16,7.16,0,0,1,1.05,2.35A11.84,11.84,0,0,1,50.74,56a18.78,18.78,0,0,1-.18,2.85,9.7,9.7,0,0,1-.51,2,5.9,5.9,0,0,1-.81,1.46,4.92,4.92,0,0,1-1,1A5,5,0,0,1,47,64a8.45,8.45,0,0,1-2.82.43q-1.61,0-3-.09T39,64.16l-.64-.09V61.34q2.81.22,5.71.22A2.53,2.53,0,0,0,45.87,61a3.27,3.27,0,0,0,.82-1.57,6.77,6.77,0,0,0,.23-1.61q0-.86,0-1.48t0-1q0-.42-.07-1a5.92,5.92,0,0,0-.17-1,5.14,5.14,0,0,0-.32-.82,2,2,0,0,0-.5-.68,2.59,2.59,0,0,0-1.75-.6,3.62,3.62,0,0,0-1.34.23,2.33,2.33,0,0,0-.84.52,2.41,2.41,0,0,0-.45.68,3,3,0,0,0-.22,1.1,2.35,2.35,0,0,0,.24,1,2.06,2.06,0,0,0,.59.76,3.11,3.11,0,0,0,1.24.62l.46.08L43.18,59l-.65-.08A9.17,9.17,0,0,1,40,58.26Q37.48,57.13,37.48,53.76Z" style="fill:#666766"/><path d="M56.42,64.17a6.53,6.53,0,0,1-1.86.25,4.8,4.8,0,0,1-1.83-.33V61.26a5.32,5.32,0,0,0,1.28.22,1.52,1.52,0,0,0,.76-.17,1.07,1.07,0,0,0,.45-.48,3.23,3.23,0,0,0,.24-1.32V51.36l-1.77.17V48.71a53.91,53.91,0,0,1,7.47-.52,9.42,9.42,0,0,1,4.12.7,4.25,4.25,0,0,1,1.14.81,3.1,3.1,0,0,1,.69,1.14,6.48,6.48,0,0,1,.33,1.38,14.11,14.11,0,0,1,.08,1.67V64.17H63.78V53.87q0-2.82-3.09-2.82-.68,0-1.49,0v8.42q0,2.83-1.41,4A3.92,3.92,0,0,1,56.42,64.17Z" style="fill:#666766"/></symbol></defs><symbol viewBox="0 0 23.42 25.35" id="shape-anu-calendar"><g id="anu-calendar-Layer_2" data-name="Layer 2"><g id="anu-calendar-Layer_1-2" data-name="Layer 1"><rect x="1" y="2.93" width="21.42" height="21.42" style="fill:none;stroke-miterlimit:10;stroke-width:2px"/><line x1="5.8" x2="5.8" y2="5.46" style="fill:none;stroke-linejoin:round;stroke-width:2px"/><line x1="11.71" x2="11.71" y2="5.46" style="fill:none;stroke-linejoin:round;stroke-width:2px"/><line x1="17.51" x2="17.51" y2="5.46" style="fill:none;stroke-linejoin:round;stroke-width:2px"/><line x1="5.09" y1="11.31" x2="5.09" y2="12.33" style="fill:none;stroke-linejoin:round;stroke-width:2px"/><line x1="9.45" y1="11.31" x2="9.45" y2="12.33" style="fill:none;stroke-linejoin:round;stroke-width:2px"/><line x1="13.81" y1="11.31" x2="13.81" y2="12.33" style="fill:none;stroke-linejoin:round;stroke-width:2px"/><line x1="18.18" y1="11.31" x2="18.18" y2="12.33" style="fill:none;stroke-linejoin:round;stroke-width:2px"/><line x1="5.09" y1="14.44" x2="5.09" y2="15.46" style="fill:none;stroke-linejoin:round;stroke-width:2px"/><line x1="9.45" y1="14.44" x2="9.45" y2="15.46" style="fill:none;stroke-linejoin:round;stroke-width:2px"/><line x1="13.81" y1="14.44" x2="13.81" y2="15.46" style="fill:none;stroke-linejoin:round;stroke-width:2px"/><line x1="18.18" y1="14.44" x2="18.18" y2="15.46" style="fill:none;stroke-linejoin:round;stroke-width:2px"/><line x1="5.09" y1="17.57" x2="5.09" y2="18.59" style="fill:none;stroke-linejoin:round;stroke-width:2px"/><line x1="9.45" y1="17.57" x2="9.45" y2="18.59" style="fill:none;stroke-linejoin:round;stroke-width:2px"/><line x1="13.81" y1="17.57" x2="13.81" y2="18.59" style="fill:none;stroke-linejoin:round;stroke-width:2px"/><line x1="18.18" y1="17.57" x2="18.18" y2="18.59" style="fill:none;stroke-linejoin:round;stroke-width:2px"/><line x1="5.09" y1="20.7" x2="5.09" y2="21.73" style="fill:none;stroke-linejoin:round;stroke-width:2px"/><line x1="9.45" y1="20.7" x2="9.45" y2="21.73" style="fill:none;stroke-linejoin:round;stroke-width:2px"/><line x1="13.81" y1="20.7" x2="13.81" y2="21.73" style="fill:none;stroke-linejoin:round;stroke-width:2px"/><line x1="18.18" y1="20.7" x2="18.18" y2="21.73" style="fill:none;stroke-linejoin:round;stroke-width:2px"/><line x1="1" y1="8.69" x2="21.91" y2="8.69" style="fill:none;stroke-linejoin:round;stroke-width:2px"/></g></g></symbol><symbol viewBox="0 0 37.37 24.83" id="shape-anu-car"><g id="anu-car-Layer_2" data-name="Layer 2"><g id="anu-car-Layer_1-2" data-name="Layer 1"><path d="M30.8,21h5.57V10.17L29.4,1H8v9.17H1V21H6.58" style="fill:none;stroke-miterlimit:10;stroke-width:2px"/><line x1="13.21" y1="20.97" x2="23.53" y2="20.97" style="fill:none;stroke-miterlimit:10;stroke-width:2px"/><rect x="11.08" y="4.05" width="8.07" height="6.03" style="fill:none;stroke-miterlimit:10"/><path d="M31.6,10.08H22.45v-6h5Z" style="fill:none;stroke-miterlimit:10"/><circle cx="9.95" cy="20.72" r="3.11" style="fill:none;stroke-miterlimit:10;stroke-width:2px"/><circle cx="27.41" cy="20.72" r="3.11" style="fill:none;stroke-miterlimit:10;stroke-width:2px"/></g></g></symbol><symbol viewBox="0 0 29.98 29.98" id="shape-anu-email"><g id="anu-email-Layer_2" data-name="Layer 2"><g id="anu-email-Isolation_Mode" data-name="Isolation Mode"><g id="anu-email-Exclusion_1" data-name="Exclusion 1"><path class="cls-1" d="M15,30a15,15,0,1,1,10.59-4.4A15,15,0,0,1,15,30Z"/></g><path class="cls-2" d="M22.22,8.73H7.76a1.63,1.63,0,0,0-1.63,1.63v9.26a1.63,1.63,0,0,0,1.63,1.63H22.22a1.64,1.64,0,0,0,1.64-1.63V10.36A1.64,1.64,0,0,0,22.22,8.73Zm-.71,1.5a.71.71,0,0,0-.26.13L15,15.29,8.72,10.35a.68.68,0,0,0-.24-.12Zm.71,9.52H7.76a.13.13,0,0,1-.13-.13V11.34a.7.7,0,0,0,.16.19l6.75,5.3A.74.74,0,0,0,15,17a.72.72,0,0,0,.46-.16l6.71-5.29a.72.72,0,0,0,.18-.21v8.29A.14.14,0,0,1,22.22,19.75Z"/></g></g></symbol><symbol viewBox="0 0 29.982 29.982" id="shape-anu-facebook"><g><path d="M15,29.982a15,15,0,1,1,10.594-4.406A14.982,14.982,0,0,1,15,29.982Z" fill="#2814ff"/><path d="M11.531,12.357v2.625h1.5v7.5h3.094v-7.5h2.063l.375-2.625H16.219V10.763c0-.5.214-.75.656-.75h1.688V7.482H16.219A2.989,2.989,0,0,0,13.64,8.619a3.564,3.564,0,0,0-.609,2.051v1.687Z" fill="#fff"/></g></symbol><symbol viewBox="0 0 29.982 29.982" id="shape-anu-instagram"><g><path d="M15,29.982a15,15,0,1,1,10.594-4.406A14.982,14.982,0,0,1,15,29.982Z" fill="#2814ff"/><path d="M18.768,5.925H10.832a4.894,4.894,0,0,0-4.888,4.888v7.936a4.893,4.893,0,0,0,4.888,4.888h7.936a4.892,4.892,0,0,0,4.888-4.888V10.813A4.892,4.892,0,0,0,18.768,5.925Zm3.317,12.824a3.32,3.32,0,0,1-3.318,3.317H10.832a3.32,3.32,0,0,1-3.316-3.316V10.813A3.32,3.32,0,0,1,10.832,7.5h7.936a3.321,3.321,0,0,1,3.317,3.316Z" fill="#fff"/><path d="M19.555,8.882a1.152,1.152,0,1,0,.136,0C19.646,8.88,19.6,8.88,19.555,8.882Z" fill="#fff"/><path d="M14.8,10.217a4.564,4.564,0,1,0,4.564,4.565A4.565,4.565,0,0,0,14.8,10.217Zm0,7.557a2.992,2.992,0,1,1,2.992-2.992A2.992,2.992,0,0,1,14.8,17.774Z" fill="#fff"/></g></symbol><symbol viewBox="0 0 343.22 66.25" id="shape-anu-logo-en"><g id="anu-logo-en-Layer_2" data-name="Layer 2"><g id="anu-logo-en-Layer_1-2" data-name="Layer 1"><polygon points="221.24 10.56 221.3 10.56 221.3 23.28 218.83 23.28 218.83 16.07 215.06 19.58 211.27 16.07 211.27 23.28 208.81 23.28 208.81 10.56 208.87 10.56 215.06 16.34 221.24 10.56"/><path d="M234,11v7.87c0,2.77-2.11,4.73-5.07,4.73a4.76,4.76,0,0,1-5.09-4.73V11h2.52v7.73a2.54,2.54,0,0,0,5.08,0V11Z"/><path d="M237.71,19A2.42,2.42,0,0,0,240,21.31c1.17,0,2.12-.52,2.12-1.69s-1-1.52-2.43-2c-1.76-.68-3.41-1.5-3.41-3.6s1.65-3.28,3.8-3.28a3.64,3.64,0,0,1,3.95,3.12l-2.39.45a1.52,1.52,0,0,0-1.47-1.42,1.19,1.19,0,0,0-1.33,1,.86.86,0,0,0,0,.16c0,1,1.23,1.38,2.63,1.92,1.66.61,3.27,1.51,3.27,3.65,0,2.57-2,4-4.75,4a4.39,4.39,0,0,1-4.72-4.09Z"/><polygon points="254.74 13.27 249.47 13.27 249.47 15.8 254.74 15.8 254.74 18.02 249.47 18.02 249.47 20.96 254.74 20.96 254.74 23.28 246.93 23.28 246.93 10.95 254.74 10.95 254.74 13.27"/><path d="M267.86,11v7.87c0,2.77-2.12,4.73-5.08,4.73a4.76,4.76,0,0,1-5.09-4.73V11h2.62v7.73a2.54,2.54,0,0,0,5.08,0V11Z"/><polygon points="282.86 10.56 282.92 10.56 282.92 23.28 280.46 23.28 280.46 16.07 276.68 19.58 272.9 16.07 272.9 23.28 270.43 23.28 270.43 10.56 270.49 10.56 276.68 16.34 282.86 10.56"/><path d="M217.93,43V51.4h-6.62v3.82h-2.5V43Zm-2.53,2.31h-4.09v3.81h4.06Z"/><polygon points="228.26 45.28 223.02 45.28 223.02 47.79 228.26 47.79 228.26 49.99 223.02 49.99 223.02 52.91 228.26 52.91 228.26 55.22 220.49 55.22 220.49 42.97 228.26 42.97 228.26 45.28"/><polygon points="273.51 45.28 268.27 45.28 268.27 47.79 273.51 47.79 273.51 49.99 268.27 49.99 268.27 52.91 273.51 52.91 273.51 55.22 265.74 55.22 265.74 42.97 273.51 42.97 273.51 45.28"/><path d="M230.23,49.09a6.44,6.44,0,1,1,0,.1v-.1m10.43,0a4.07,4.07,0,1,0,0,.13v-.13"/><path d="M254.31,43V51.4h-6.59v3.82h-2.54V43Zm-2.53,2.31h-4.06v3.81h4.06Z"/><polygon points="256.97 55.22 256.97 42.97 259.5 42.97 259.5 52.91 264.4 52.91 264.4 55.22 256.97 55.22"/><polygon points="233.39 29.35 227.33 29.35 227.33 32.41 231.76 32.41 231.76 34.71 227.33 34.71 227.33 39.28 224.81 39.28 224.81 34.71 223.62 34.71 223.62 32.41 224.81 32.41 224.81 27.05 233.39 27.05 233.39 29.35"/><polygon points="247.45 27.05 247.45 29.35 244.39 29.35 244.39 39.28 241.86 39.28 241.86 29.35 238.78 29.35 238.78 27.05 247.45 27.05"/><polygon points="257.49 27.05 260.02 27.05 260.02 39.28 257.49 39.28 257.49 33.02 252.01 33.02 252.01 39.28 249.48 39.28 249.48 27.05 252.01 27.05 252.01 30.72 257.49 30.72 257.49 27.05"/><polygon points="279.94 34.69 279.94 36.98 283.04 36.98 283.04 27.05 285.57 27.05 285.57 39.28 277.58 39.28 277.58 34.69 279.94 34.69"/><polygon points="313.48 26.76 315.7 27.88 309.61 39.67 309.53 39.67 306.73 34.22 303.94 39.67 303.86 39.67 297.77 27.88 299.99 26.76 303.92 34.49 305.39 31.62 303.45 27.85 305.53 26.76 306.73 29.21 307.94 26.76 310.02 27.85 308.08 31.63 309.55 34.49 313.48 26.76"/><rect x="317.42" y="27.05" width="2.53" height="12.23"/><path d="M323.82,35a2.38,2.38,0,0,0,2.3,2.3c1.16,0,2.1-.51,2.1-1.67s-1-1.51-2.41-2c-1.75-.67-3.38-1.49-3.38-3.56s1.63-3.27,3.77-3.27a3.6,3.6,0,0,1,3.91,3.1l-2.36.45a1.49,1.49,0,0,0-1.47-1.4A1.17,1.17,0,0,0,325,30a1,1,0,0,0,0,.17c0,1,1.22,1.36,2.61,1.89,1.65.61,3.24,1.51,3.24,3.63,0,2.55-2,3.93-4.71,3.91a4.36,4.36,0,0,1-4.69-4Z"/><polygon points="340.69 27.05 343.22 27.05 343.22 39.28 340.69 39.28 340.69 33.02 335.21 33.02 335.21 39.28 332.68 39.28 332.68 27.05 335.21 27.05 335.21 30.72 340.69 30.72 340.69 27.05"/><polygon points="270.5 29.35 265.28 29.35 265.28 31.86 270.5 31.86 270.5 34.06 265.28 34.06 265.28 36.98 270.5 36.98 270.5 39.28 262.75 39.28 262.75 27.05 270.5 27.05 270.5 29.35"/><polygon points="296.05 29.35 290.82 29.35 290.82 31.86 296.05 31.86 296.05 34.06 290.82 34.06 290.82 36.98 296.05 36.98 296.05 39.28 288.3 39.28 288.3 27.05 296.05 27.05 296.05 29.35"/><polygon points="111.52 42.32 70.87 0 70.56 0 70.56 64.31 80.77 64.31 80.77 23.77 121.43 66.09 121.74 66.09 121.74 1.77 111.52 1.77 111.52 42.32"/><path d="M182.61,1.77h-10.3V41.28c0,8.44-6.15,14.28-14.7,14.28-8.76,0-14.8-5.84-14.8-14.28V1.77H132.47l-.1,39.82c0,14.07,10.42,23.77,25.22,23.77s25.12-9.7,25.12-23.77Z"/><path d="M0,58.54l7.19,7.71L20.77,52.92H49.83V64.31H60.25V0h-.31Zm31.31-16,18.48-18.2v18.2Z"/><path d="M208.34,33a6.44,6.44,0,1,1,0,.1V33m10.43,0a4.07,4.07,0,1,0,0,.13V33"/></g></g></symbol><symbol viewBox="0 0 206.73 66.51" id="shape-anu-logo-he"><g id="anu-logo-he-Layer_2" data-name="Layer 2"><g id="anu-logo-he-Layer_1-2" data-name="Layer 1"><path d="M54.65,55.65V45.45H46.14V43.08H57.26V55.65Zm-5.79,0h-2.6V48.38h2.6Z"/><rect y="11.15" width="2.6" height="15.72"/><rect x="5.41" y="11.15" width="2.6" height="12.57"/><polygon points="23.22 12.31 18.51 18.01 23.01 22.28 21.23 24.21 13.42 16.64 13.42 23.73 10.82 23.73 10.82 10.76 10.88 10.76 16.68 16.27 21.17 10.71 23.22 12.31"/><rect x="24.98" y="11.15" width="2.6" height="6.79"/><polygon points="37.21 11.15 37.21 13.52 34.72 13.52 34.72 23.73 32.12 23.73 32.12 13.52 29.61 13.52 29.61 11.15 37.21 11.15"/><rect x="39.33" y="11.15" width="2.6" height="12.57"/><path d="M47.21,23.73H44.65V17.44a6.64,6.64,0,0,1,13.28,0h0c0,5.18-4.21,8-8.92,5.85l.81-2.16c2.83,1.47,5.52-.29,5.52-3.69a4,4,0,1,0-8.09,0Z"/><path d="M17.5,27H29.65V39.65H17.5Zm2.6,10.21H27V29.41H20.1Z"/><polygon points="40.88 27.04 43.48 27.04 43.48 39.62 31.62 39.62 31.62 37.25 34.24 37.25 34.24 27.04 36.84 27.04 36.84 37.25 40.88 37.25 40.88 27.04"/><path d="M54.65,39.65V29.41H46.14V27H57.26V39.65Zm-5.79,0h-2.6v-7.3h2.6Z"/><rect x="3.82" y="42.94" width="2.6" height="6.79"/><polygon points="14.9 55.51 14.9 45.3 8.55 45.3 8.55 42.93 19.72 42.93 19.72 45.3 17.5 45.3 17.5 55.51 14.9 55.51"/><rect x="21.81" y="42.94" width="2.6" height="12.57"/><path d="M35.65,55.51V45.3H27.07V42.94H38.2V55.51Zm-5.78,0h-2.6V48.24h2.6Z"/><rect x="40.94" y="42.94" width="2.6" height="6.79"/><path d="M124.07,2v39.5c0,8.44-6.14,14.28-14.69,14.28H105.1v9.8h4.28c14.69,0,25.12-9.69,25.12-23.77L134.39,2Z"/><rect x="84.05" y="1.99" width="10.42" height="62.54"/><polygon points="198.6 0 174.94 28.98 145.44 0.21 145.13 0.21 145.13 64.53 155.55 64.53 155.55 24.5 198.18 66.51 205.38 58.79 182.13 36.07 206.73 6.36 198.6 0"/></g></g></symbol><symbol viewBox="0 0 122.88 122.88" id="shape-anu-menu-close"><g id="anu-menu-close-Layer_2" data-name="Layer 2"><g id="anu-menu-close-Layer_1-2" data-name="Layer 1"><path d="M1.43,8.31A4.86,4.86,0,0,1,8.31,1.43L61.44,54.55,114.57,1.43a4.86,4.86,0,0,1,6.88,6.88L68.32,61.44l53.13,53.13a4.87,4.87,0,0,1-6.89,6.88L61.44,68.33,8.31,121.45a4.86,4.86,0,0,1-6.88-6.88L54.55,61.44,1.43,8.31Z"/></g></g></symbol><symbol viewBox="0 0 122.88 103.61" id="shape-anu-menu-hamburger"><g id="anu-menu-hamburger-Layer_2" data-name="Layer 2"><g id="anu-menu-hamburger-Layer_1-2" data-name="Layer 1"><path d="M10.37,0H112.51a10.4,10.4,0,0,1,10.37,10.37h0a10.41,10.41,0,0,1-10.37,10.37H10.37A10.41,10.41,0,0,1,0,10.37H0A10.4,10.4,0,0,1,10.37,0Zm0,82.88H112.51a10.4,10.4,0,0,1,10.37,10.36h0a10.41,10.41,0,0,1-10.37,10.37H10.37A10.41,10.41,0,0,1,0,93.24H0A10.4,10.4,0,0,1,10.37,82.88Zm0-41.44H112.51a10.4,10.4,0,0,1,10.37,10.37h0a10.4,10.4,0,0,1-10.37,10.36H10.37A10.4,10.4,0,0,1,0,51.81H0A10.4,10.4,0,0,1,10.37,41.44Z" style="fill-rule:evenodd"/></g></g></symbol><symbol viewBox="0 0 23.42 23.42" id="shape-anu-pay"><g id="anu-pay-Layer_2" data-name="Layer 2"><g id="anu-pay-Layer_1-2" data-name="Layer 1"><rect x="1" y="1" width="21.42" height="21.42" style="fill:none;stroke-miterlimit:10;stroke-width:2px"/><path style="stroke:none;stroke-miterlimit:10;stroke-width:2px" d="M12.12,16.39v1.16H11.06V16.44a7.07,7.07,0,0,1-2.71-.67V13.7a5.19,5.19,0,0,0,2.71,1.05V12l-.43-.13C9,11.3,8.09,10.47,8.09,8.92A3,3,0,0,1,11,5.85h.09v-1h1.06v1a6.3,6.3,0,0,1,2.35.65v2a4.58,4.58,0,0,0-2.35-1v2.74l.4.13c1.78.58,2.55,1.37,2.55,2.84A3.1,3.1,0,0,1,12.12,16.39ZM11.06,9.93V7.56a1.15,1.15,0,0,0-1,1.18C10,9.41,10.44,9.71,11.06,9.93Zm2.07,3.56c0-.68-.42-1-1-1.21V14.7A1.2,1.2,0,0,0,13.13,13.49Z"/></g></g></symbol><symbol viewBox="0 0 30 30" id="shape-anu-tripadvisor"><g><path d="M15,0A15,15,0,1,0,30,15,15,15,0,0,0,15,0Z" fill="#2814ff"/><path d="M22.924,19.323a4.746,4.746,0,0,1-2.765.886,4.4,4.4,0,0,1-1.131-.145A4.745,4.745,0,0,1,16.7,18.693c-.084-.09-.164-.184-.254-.285l-1.012,1.51-1-1.489a.216.216,0,0,0-.034.017.134.134,0,0,0-.02.021,4.7,4.7,0,0,1-2.931,1.661,4.589,4.589,0,0,1-1.954-.11,4.746,4.746,0,0,1-3.437-3.844A4.585,4.585,0,0,1,6.148,14.3a4.759,4.759,0,0,1,.737-1.6.186.186,0,0,0,.021-.138,5.309,5.309,0,0,0-.664-1.428c-.071-.117-.157-.217-.237-.329v-.038H8.9a.246.246,0,0,0,.123-.04A10.256,10.256,0,0,1,11.156,9.7a11.519,11.519,0,0,1,1.652-.448,13.358,13.358,0,0,1,1.643-.216,13.926,13.926,0,0,1,3.14.144,10.129,10.129,0,0,1,1.556.364,10.667,10.667,0,0,1,2.525,1.151.386.386,0,0,0,.193.056h2.787c.075,0,.149.008.224.012v.03l-.131.2A5.71,5.71,0,0,0,24,12.54a.179.179,0,0,0,.02.169A4.74,4.74,0,0,1,22.924,19.323Z" fill="#fff"/><path d="M19.923,10.718a10.75,10.75,0,0,0-4.206-.876,11.642,11.642,0,0,0-4.794.855,4.815,4.815,0,0,1,4.536,4.116A4.8,4.8,0,0,1,19.923,10.718Z" fill="#2814ff"/><path d="M10.679,13.874a1.53,1.53,0,1,0,1.529,1.53A1.53,1.53,0,0,0,10.679,13.874Zm0,2.317h0a.782.782,0,0,1,0-1.564h0a.782.782,0,1,1,0,1.564Z" fill="#2814ff"/><path d="M20.164,13.878A1.529,1.529,0,1,0,21.69,15.41,1.529,1.529,0,0,0,20.164,13.878Zm0,2.306a.775.775,0,0,1-.005-1.55h.009a.775.775,0,0,1,0,1.55Z" fill="#2814ff"/><path d="M10.751,11.682h-.015a3.772,3.772,0,1,0,.015,0Zm-.082,6.067a2.338,2.338,0,0,1-.005-4.676h.021a2.338,2.338,0,1,1-.016,4.676Z" fill="#2814ff"/><path d="M20.189,11.7h-.095a3.769,3.769,0,1,0,.095,0Zm-.035,6.055a2.338,2.338,0,0,1-.008-4.676h.02a2.338,2.338,0,0,1-.012,4.676Z" fill="#2814ff"/></g></symbol><symbol viewBox="0 0 30 30" id="shape-anu-twitter"><g><path d="M15,0A15,15,0,1,0,30,15,15,15,0,0,0,15,0Z" fill="#2814ff"/><path d="M21.2,12.041c.012.139.012.278.012.422v.126A9.282,9.282,0,0,1,6.929,20.281a6,6,0,0,0,.781.045,6.555,6.555,0,0,0,4.044-1.392,3.292,3.292,0,0,1-3.048-2.272,2.85,2.85,0,0,0,.618.056,3.291,3.291,0,0,0,.855-.107,3.277,3.277,0,0,1-2.617-3.2v-.036a3.213,3.213,0,0,0,1.474.4,3.263,3.263,0,0,1-1-4.36,9.236,9.236,0,0,0,6.724,3.412,3.38,3.38,0,0,1-.076-.744,3.262,3.262,0,0,1,5.643-2.231,6.539,6.539,0,0,0,2.068-.79,3.244,3.244,0,0,1-1.435,1.8,6.824,6.824,0,0,0,1.88-.515A6.5,6.5,0,0,1,21.2,12.041Z" fill="#fff"/></g></symbol><symbol viewBox="0 0 449.95 131.05" id="shape-anu-waze"><g id="anu-waze-Layer_2" data-name="Layer 2"><g id="anu-waze-Layer_1-2" data-name="Layer 1"><g id="anu-waze-GLcMEY"><path d="M50.68,88.24c-1.4,5.1-2.6,9.7-3.9,14.4L40.48,126c-.6,2.3-1.4,3-3.9,3H23.18c-3,0-3.9-.7-4.8-3.6-1.6-5-3.3-10.1-4.9-15.1-4.4-13.5-8.8-26.9-13.1-40.4,0-.1-.1-.2-.1-.4-.8-2.7.1-3.9,2.9-4h11.5c2.6,0,3.5.6,4.2,3.1,3.5,12.6,7,25.2,10.5,37.9a6.12,6.12,0,0,0,.7,1.7c.8-2.7,1.5-5.4,2.3-8.2,3-10.6,5.9-21.3,8.9-31.9.5-1.9,1.3-2.6,3.3-2.6h13.7c2,0,3,.8,3.5,2.9,3.5,13,7,26,10.4,38.9.1.3.2.6.4,1.1.4-1.3.7-2.3,1-3.3,3.5-12,7-24,10.4-36,.7-2.4,1.8-3.3,4.3-3.3H98c3.1,0,4.1,1.3,3.1,4.2-6.1,18.4-12.1,36.9-18.2,55.3-.9,2.6-2,3.5-4.7,3.5H65.38c-2.9,0-4-.9-4.8-3.6-3.2-12-6.4-24-9.7-36C51,89.14,50.88,88.84,50.68,88.24Z"/><path d="M377.68,117.84a15.53,15.53,0,0,1-8.2,11c-5.6,2.9-11.3,2.8-16.6-.6-5.5-3.5-7.9-8.8-7.5-15.3a1.71,1.71,0,0,0-1.1-2,53.64,53.64,0,0,1-22.7-21.8,25.66,25.66,0,0,1-2.3-6c-.7-2.9.4-4.3,3.4-4.6,3.6-.4,6.8-1.8,8.4-5.2a12.16,12.16,0,0,0,1.1-5c.2-4.3,0-8.6.2-12.9A57.33,57.33,0,0,1,353,14.24,57.24,57.24,0,0,1,393.48,0c26.7,1,49.6,19.8,55,46.1,4.9,23.8-2.5,43.7-21.4,59.2a33.2,33.2,0,0,1-3.6,2.6c-.7.5-.9.9-.6,1.7a16.38,16.38,0,1,1-31.4,9.3c-.1-.4-.6-.9-.9-.9C386.38,117.74,382.08,117.84,377.68,117.84Zm.2-6.7c4.5,0,9,.2,13.5-.1a64.78,64.78,0,0,0,12.4-1.6c31.8-7.8,48.8-42.9,34.9-72.6-8.4-17.9-22.8-28.1-42.5-30.2-15.1-1.6-28.6,2.9-40,13.1a50.73,50.73,0,0,0-17.4,37.8c-.1,3.5,0,7.1,0,10.6a16.09,16.09,0,0,1-11.7,15.8c-.1,0-.3.2-.4.2,2.8,7.4,14.2,18.3,21.3,21A16.6,16.6,0,0,1,377.88,111.14Z"/><path d="M155.18,72.94v-4.4q0-3.3,3.3-3.3h10.1c2.4,0,3.4,1,3.4,3.4v56.5c0,2.7-.8,3.5-3.5,3.5h-10.1c-2.3,0-3.2-.9-3.2-3.2v-3.9a20.24,20.24,0,0,1-6.9,6.2A27.47,27.47,0,0,1,129,130a32.22,32.22,0,0,1-25.2-28.8c-.9-9.6,1.1-18.3,7.2-26,8.5-10.6,24.5-14.6,36.4-9C150.48,67.84,152.18,69.24,155.18,72.94Zm-17,42c9.6,0,17-7.7,17.1-17.7s-7.3-17.7-17-17.7a17,17,0,0,0-17.2,17C121.08,107.14,128.28,114.94,138.18,114.94Z"/><path d="M258.38,101.14a15.69,15.69,0,0,0,12.4,14.3c7.2,1.6,13.5-.1,18.7-5.5,1.9-2,2.9-2.1,5.1-.5s4.5,3.1,6.8,4.7c1.8,1.3,2.1,2.8.8,4.6a27.7,27.7,0,0,1-14.8,10.3c-8.4,2.5-16.8,2.7-25.1-.3-11.5-4.2-18.4-12.5-20.8-24.4-1.8-9-.5-17.6,4.6-25.3a32.08,32.08,0,0,1,23.2-14.8c8.6-1.2,16.8.1,24.1,5,8.9,6,13.3,14.4,13.3,25.1v3.8c0,2.2-.8,3-3,3h-45.3Zm32.2-10.5c-.8-7.8-8.1-13.7-16.2-13.4-8.3.3-14.3,7.2-14.9,13.4Z"/><path d="M214.18,80.14H186a3.05,3.05,0,0,1-3-3.2v-8.6c0-2.1.8-3,3-3h47.1a5.39,5.39,0,0,1,3,1,3.25,3.25,0,0,1,1,2.2c.1,2.3,0,4.6.1,7a6.53,6.53,0,0,1-1.8,4.9c-5.2,5.6-10.2,11.4-15.3,17.1-4.7,5.3-9.4,10.5-14,15.8-.4.4-.7.8-1.2,1.4H235c2.4,0,3.4,1,3.4,3.4v8.2c0,2-.9,2.9-2.9,2.9H185c-2.3,0-3.5-1.2-3.5-3.5v-6.8a5.37,5.37,0,0,1,1.5-3.8l30.6-33.9A2.38,2.38,0,0,1,214.18,80.14Z"/><path d="M399,85c-11.8-.6-19.6-5.3-24.6-14.7a3.35,3.35,0,0,1,2.2-5.1c1.4-.3,2.7.7,3.7,2.3a29.73,29.73,0,0,0,4.3,5.6,19.53,19.53,0,0,0,30.7-5.4c.7-1.4,1.6-2.5,3.3-2.5a3.31,3.31,0,0,1,2.8,4.9,24.81,24.81,0,0,1-14.6,13.1A58.8,58.8,0,0,1,399,85Z"/><path d="M378.08,52.24a6.5,6.5,0,1,1,6.5-6.5A6.49,6.49,0,0,1,378.08,52.24Z"/><path d="M423.88,45.64a6.62,6.62,0,0,1-6.4,6.6,6.42,6.42,0,0,1-6.5-6.5,6.45,6.45,0,1,1,12.9-.1Z"/></g></g></g></symbol><symbol viewBox="0 0 30 30" id="shape-anu-youtube"><g><path d="M15,0A15,15,0,1,0,30,15,15,15,0,0,0,15,0Z" fill="#2814ff"/><path d="M23.987,19.524a2.347,2.347,0,0,1-1.652,1.652A56.889,56.889,0,0,1,15,21.563a54.986,54.986,0,0,1-7.335-.4,2.347,2.347,0,0,1-1.652-1.652A24.634,24.634,0,0,1,5.627,15a24.782,24.782,0,0,1,.386-4.509A2.4,2.4,0,0,1,7.665,8.824,57.067,57.067,0,0,1,15,8.438a54.819,54.819,0,0,1,7.335.4,2.347,2.347,0,0,1,1.652,1.652,23.513,23.513,0,0,1,.386,4.525A24.782,24.782,0,0,1,23.987,19.524Z" fill="#fff"/><polygon points="13.123 17.82 18.023 15 13.123 12.18 13.123 17.82" fill="#2814ff"/></g></symbol><symbol viewBox="0 0 31 28.99" id="shape-cart"><g id="cart-Layer_2" data-name="Layer 2"><g id="cart-Open"><circle cx="5.05" cy="26.53" r="2.47" style="fill:#333"/><circle cx="16.05" cy="26.53" r="2.47" style="fill:#333"/><path d="M29.5,0H26a3,3,0,0,0-2.46,1.89c-.41,1-1,2.11-1.7,4.11H6A5.7,5.7,0,0,0,1.41,8.5,7.7,7.7,0,0,0,0,13.08C0,16.56,2.06,20,6,20H18a.87.87,0,0,1,1,1,.88.88,0,0,1-1,1H5.5a1.66,1.66,0,0,0-1.41,1.18,3.39,3.39,0,0,1,1-.24A3.68,3.68,0,0,1,8.16,25h4.78a3.61,3.61,0,0,1,3.11-2,3.41,3.41,0,0,1,3.05,2.08,4.32,4.32,0,0,0,2.85-4,4.26,4.26,0,0,0-1.16-2.79,3.52,3.52,0,0,0-.48-.36C21.55,15,25,6.5,26.36,3.2c0,0,0-.2,0-.2H29.5a1.5,1.5,0,0,0,0-3ZM13.23,9h3l-1.14,3h-3Zm-5,0h3.39l-1.16,3H7.06ZM3.84,10.1A2.52,2.52,0,0,1,6,9h.62L5.45,12H3.09A3.43,3.43,0,0,1,3.84,10.1Zm.07,6.22A4.82,4.82,0,0,1,3,13.81H4.88ZM8.52,17H6a3.17,3.17,0,0,1-.83,0l1.32-3.31,3.39-.12Zm4.69,0H10.12l1.36-3.34,3.08-.08Zm4.13,0H14.81l1.36-3.34,2.61-.08C18.15,15.12,17.62,16,17.33,17Zm2.07-5H16.69l1.14-3h2.82C20.22,10,19.8,11,19.4,12Z" style="fill:#333"/></g></g></symbol><symbol viewBox="0 0 22.35 27.04" id="shape-languages-hover"><g id="languages-hover-Layer_2" data-name="Layer 2"><g id="languages-hover-Open"><path d="M5.59,7.38,4.33,5.5l-.23.13a2.65,2.65,0,0,0-.77,2.15v4.73H1.2V8.34a6,6,0,0,1,.65-3.16,3.08,3.08,0,0,1,.73-.82,3.34,3.34,0,0,1,.78-.46L1,0H3.42L6.24,4.75,7.61,6.88A1.78,1.78,0,0,0,8,6.54a2.24,2.24,0,0,0,.33-.71,4,4,0,0,0,.14-1.11V0h2.13V4.17a10.54,10.54,0,0,1-.07,1.34,6.06,6.06,0,0,1-.28,1.22,3,3,0,0,1-1.61,1.8l1.88,3.08-.9,2.55Z"/><path d="M20.12,21,18.4,16.63H13.29L11.6,21H9.42L15.1,6.58h1.6L22.35,21Zm-2.44-6.43-1.45-3.86c-.12-.29-.23-.62-.35-1-.09.32-.2.65-.32,1l-1.47,3.86Z"/><path d="M10.82,26.88a14.08,14.08,0,0,1-1.63-1h0l-.31-.23-.08-.08c-.31-.26-.56-.48-.8-.72l-.23-.22a9.92,9.92,0,0,1-.8-1l-.07-.11a11.1,11.1,0,0,1-.61-1l-.16-.31c-.09-.18-.17-.35-.24-.52-.07.17-.15.34-.24.52s-.1.21-.16.31a7.22,7.22,0,0,1-.57.93l-.11.17a9.92,9.92,0,0,1-.8,1l-.15.15c-.31.31-.57.53-.83.75l-.14.12-.31.24h0a15.65,15.65,0,0,1-1.61,1L.67,27l-.13-.32s-.45-1.3-.45-1.3v-.24l.19-.11A10.83,10.83,0,0,0,2,23.91l.4-.35c.2-.19.32-.31.44-.44a5.89,5.89,0,0,0,.46-.53l.09-.11A5.37,5.37,0,0,0,3.75,22,9.41,9.41,0,0,0,5,18.35H.28l-.28,0v-1.9H5V13.16H6.8v3.27H9.37l-.31.78c-.13.32-.26.65-.36.94l-.06.2H6.82A9.37,9.37,0,0,0,8.05,22a4.29,4.29,0,0,0,.37.5l.08.12c.13.15.26.31.39.45s.32.32.44.44l-.13.29.2-.22.41.35a10.66,10.66,0,0,0,1.69,1.16l.16.09,0,.2v.06l0,.06s-.42,1.22-.43,1.24l-.12.32Z"/></g></g></symbol><symbol viewBox="0 0 21.61 26.31" id="shape-languages"><g id="languages-Layer_2" data-name="Layer 2"><g id="languages-Open"><path d="M10,0V3.87a12.1,12.1,0,0,1-.06,1.3,6.87,6.87,0,0,1-.27,1.16A2.81,2.81,0,0,1,7.88,8.09l2,3.26-.64,1.8L5.55,6.93l-1.4-2.1a1.91,1.91,0,0,0-.54.27,2.92,2.92,0,0,0-.87,2.38v4.43H1.2V8a5.87,5.87,0,0,1,.6-3,2.89,2.89,0,0,1,.67-.74,3.27,3.27,0,0,1,1-.55L1.21,0H3L5.68,4.61,7.22,7a2.51,2.51,0,0,0,.7-.58,2.6,2.6,0,0,0,.38-.8,4.28,4.28,0,0,0,.15-1.2V0Z"/><path d="M20,20.41,18.31,16H12.79l-1.7,4.38H9.56L15,6.58H16.2l5.41,13.83Zm-2.21-5.83-1.6-4.26c-.21-.54-.42-1.21-.64-2a18.57,18.57,0,0,1-.6,2l-1.62,4.26Z"/><path d="M8.12,17.75c.13-.4.35-.91.51-1.32H6.21V13.16H5v3.27H0v1.32H5v.18a9.46,9.46,0,0,1-1.27,3.9q-.2.29-.39.54l-.09.11c-.14.17-.27.32-.41.47a.46.46,0,0,1-.07.07c-.13.14-.25.27-.38.39a.46.46,0,0,0-.07.07q-.21.19-.42.36A11.64,11.64,0,0,1,.09,25.06s.41,1.2.43,1.25A11.91,11.91,0,0,0,2.4,25.09h0A1.49,1.49,0,0,1,2.54,25c.26-.21.5-.43.74-.66l.21-.22a9.73,9.73,0,0,0,.78-.92l.1-.17a9.07,9.07,0,0,0,.56-.9l.15-.3a9.34,9.34,0,0,0,.51-1.21,11,11,0,0,0,.51,1.21c.05.1.1.2.16.3a9,9,0,0,0,.55.9l.11.17a11.36,11.36,0,0,0,.77.92c.07.07.15.14.22.22.23.23.48.45.73.66a1.49,1.49,0,0,1,.14.12h0a12.29,12.29,0,0,0,1.87,1.22s.42-1.21.44-1.25a11.42,11.42,0,0,1-1.79-1.22l-.41-.36-.08-.07L8.44,23,8.37,23c-.14-.15-.27-.3-.4-.47l-.09-.11a5.3,5.3,0,0,1-.39-.54,9.38,9.38,0,0,1-1.28-3.9v-.18Z"/></g></g></symbol><symbol viewBox="0 0 177.99 55.96" id="shape-logo-en"><g id="logo-en-Layer_2" data-name="Layer 2"><g id="logo-en-Layer_1-2" data-name="Layer 1"><path d="M21.92,51.7,24.4,56l2.42-4.27A5,5,0,0,0,24.37,51a4.85,4.85,0,0,0-2.45.66Z" style="fill:#fbaf34"/><path d="M4.93,13.81H0l2.45,4.24a4.92,4.92,0,0,0,1.8-1.77,5.08,5.08,0,0,0,.68-2.47Z" style="fill:#46c3d3"/><polygon points="9.16 38.4 6.38 39.15 5.81 42.34 9.72 42.35 9.16 38.4 9.16 38.4" style="fill:#be3526"/><polygon points="3.69 20.18 7.9 20.57 7.34 26.49 3.69 20.18 3.69 20.18" style="fill:#be3526"/><polygon points="2.3 38.41 0.04 42.35 4.56 42.34 5.11 39.27 2.3 38.41 2.3 38.41" style="fill:#fbaf34"/><path d="M21.17,5.3s4.83-1,5.4-1.16c0,0-.81-1.48-2.37-4.14l-3,5.3Z" style="fill:#be3526"/><polygon points="8.9 29.4 8.15 28.18 5.68 32.5 7.27 33.39 8.9 29.4 8.9 29.4" style="fill:#2d3481"/><polygon points="40.97 21.8 42.35 17.45 45.9 18.26 43.56 22.35 40.97 21.8 40.97 21.8" style="fill:#2d3481"/><polygon points="19.67 47.78 23.7 47.11 21.55 43.59 18.57 45.88 19.67 47.78 19.67 47.78" style="fill:#be3526"/><path d="M18.1,45.05l3.36-2.62H16.59l1.51,2.62Z" style="fill:#fbaf34"/><polygon points="38.28 23.95 40.45 27.65 42.96 23.28 40.54 22.74 38.28 23.95 38.28 23.95" style="fill:#be3526"/><polygon points="24.94 46.68 25.63 49.65 27.52 50.43 29.35 47.21 24.94 46.68 24.94 46.68" style="fill:#46c3d3"/><polygon points="46.19 38 48.72 42.37 44.82 42.37 46.19 38 46.19 38" style="fill:#be3526"/><polygon points="24.11 5.92 20.39 6.72 18.18 10.63 22.04 10.55 24.11 5.92 24.11 5.92" style="fill:#46c3d3"/><path d="M42.59,37.6l3-.51-1.79-3-4.76-.16,3.52,3.71Z" style="fill:#46c3d3"/><polygon points="28.31 11.93 30.22 10.31 27.41 5.42 25.7 5.77 24.49 8.38 28.31 11.93 28.31 11.93" style="fill:#fbaf34"/><polygon points="38.29 17.25 41.12 17.29 42.23 13.84 39.35 13.84 38.29 17.25 38.29 17.25" style="fill:#be3526"/><polygon points="38.32 39.56 38.62 35 42.17 38.76 39.93 39.97 38.32 39.56 38.32 39.56" style="fill:#caeaee"/><polygon points="18.72 26.89 16.07 25.1 13.47 29.27 16.89 31.14 18.72 26.89 18.72 26.89" style="fill:#46c3d3"/><path d="M18.73,39.16l3.21-3.72L20,34.26s-2.39,1.37-3.55,2.12l2.25,2.78Z" style="fill:#46c3d3"/><path d="M15.08,36s3.51-2.14,4-2.41c0,0-2.93-1.69-3.41-1.93L15.08,36Z" style="fill:#fbaf34"/><polygon points="11.63 22.15 13.56 27.3 10.58 29.88 8.84 26.94 11.63 22.15 11.63 22.15" style="fill:#be3526"/><polygon points="18.73 20.82 21.22 23.29 23.59 22.54 22.61 18.14 18.73 20.82 18.73 20.82" style="fill:#caeaee"/><polygon points="27.47 22.73 26.06 14.9 23.18 15.56 24.4 20.65 27.47 22.73 27.47 22.73" style="fill:#46c3d3"/><polygon points="33.53 21.5 28.28 21.43 29.93 25.91 33.53 21.5 33.53 21.5" style="fill:#caeaee"/><polygon points="37.25 39.58 34.37 38.56 37.03 33.87 37.25 39.58 37.25 39.58" style="fill:#2d3481"/><polygon points="37.36 24.55 39.75 28.7 36.01 28.18 37.36 24.55 37.36 24.55" style="fill:#fbaf34"/><polygon points="38.1 29.79 31.57 28.19 33.2 31.5 36.47 32.67 38.1 29.79 38.1 29.79" style="fill:#caeaee"/><polygon points="14.25 26 17.33 20.94 15.22 18.83 12.77 21.95 14.25 26 14.25 26" style="fill:#2d3481"/><polygon points="12.2 13.8 13.58 13.8 15.48 16.57 12.38 20.59 12.2 13.8 12.2 13.8" style="fill:#46c3d3"/><polygon points="15.32 42.35 10.71 42.35 10.22 39.04 15.32 42.35 15.32 42.35" style="fill:#46c3d3"/><polygon points="15.45 15.35 16.86 16.53 20.59 11.77 17.5 11.8 15.45 15.35 15.45 15.35" style="fill:#be3526"/><polygon points="11.57 33.89 10.41 37.79 12.7 39.26 14.35 35.56 11.57 33.89 11.57 33.89" style="fill:#be3526"/><path d="M9.53,37s1.27-4.26,1.27-4.29L9.54,30.51,6.59,37.82,9.53,37Z" style="fill:#caeaee"/><path d="M21.19,50.41l3.18-.73c-.18-.76-.36-1.54-.36-1.54l-3.77.62,1,1.65Z" style="fill:#46c3d3"/><path d="M27,41.39l-2.95-.11a5.77,5.77,0,0,1-1.29,2.4l2.09,2.13A5.64,5.64,0,0,0,27,41.39Z" style="fill:#caeaee"/><path d="M41.47,42.37h2.18l.93-3.84-3.86,2.41.75,1.43Z" style="fill:#fbaf34"/><path d="M43.28,33l-1.93-3.33-2.19.65S38,32.38,37.8,32.75l5.48.26Z" style="fill:#be3526"/><polygon points="40.22 42.37 39.47 40.96 34.92 39.8 33.11 42.35 40.22 42.37 40.22 42.37" style="fill:#46c3d3"/><polygon points="33.64 39.84 30.19 36.9 27.63 40.84 32.06 42.52 33.64 39.84 33.64 39.84" style="fill:#be3526"/><path d="M24.57,40.31l2.89-1.4,1.42-2.62s-5.18-.88-5.18-.87l.87,4.89Z" style="fill:#fbaf34"/><path d="M22.2,36.67l-2.95,3.44,3,1.7A3.63,3.63,0,0,0,23.32,39v-.09a3.46,3.46,0,0,0-1.12-2.27Z" style="fill:#be3526"/><path d="M5.48,38.11,7,34.51l-1.83-1s-2.21,3.82-2.2,3.84l2.55.77Z" style="fill:#46c3d3"/><path d="M26.9,45.87l3,.4,1.63-2.9-3.16-1.18a5.81,5.81,0,0,1-1.48,3.68Z" style="fill:#2d3481"/><polygon points="15.54 36.9 19.17 41.35 15.9 41.34 13.62 39.85 15.54 36.9 15.54 36.9" style="fill:#2d3481"/><path d="M12.11,32.79a3.07,3.07,0,0,0,2.17,1.45l.44-3.07-2-1.08-.7-.38a3.06,3.06,0,0,0,0,3.08Z" style="fill:#2d3481"/><polygon points="38.23 22.15 39.6 22.43 40.92 18.48 36.11 18.42 38.23 22.15 38.23 22.15" style="fill:#caeaee"/><polygon points="26.97 27.53 28.94 26.5 28.36 24.74 25.23 22.64 22.41 24.4 26.97 27.53 26.97 27.53" style="fill:#2d3481"/><polygon points="19.94 27.45 23.28 29.67 26.09 28.09 22.75 25.92 19.94 27.45 19.94 27.45" style="fill:#46c3d3"/><path d="M25.35,29.79a4.9,4.9,0,0,0,6,1.34l-1.81-3.66-4.16,2.32Z" style="fill:#fbaf34"/><polygon points="26.05 13.73 22.36 14.56 21.05 13.38 23.98 9.51 27.29 12.66 26.05 13.73 26.05 13.73" style="fill:#caeaee"/><path d="M30.42,26.82l3.22-3.35a4.07,4.07,0,0,1,1.12,4.41l-4.34-1.06Z" style="fill:#2d3481"/><path d="M35.28,23.9a4.58,4.58,0,0,1,.46,1.1l1.72-2.16L35.4,19.3l-1.08,3.42a4.86,4.86,0,0,1,1,1.18Z" style="fill:#46c3d3"/><path d="M30,17.27l-2.63-.7.66,3.7h.9a4.85,4.85,0,0,1,1.07-3Z" style="fill:#46c3d3"/><polygon points="48.42 13.85 46.51 17.17 42.78 16.3 43.53 13.85 48.42 13.85 48.42 13.85" style="fill:#46c3d3"/><polygon points="21.73 25.17 19.76 26.27 16.73 24.25 18.21 21.76 21.73 25.17 21.73 25.17" style="fill:#be3526"/><polygon points="20.05 14.08 16.57 18.64 18.08 20.02 22.31 17.06 22.12 16.05 20.05 14.08 20.05 14.08" style="fill:#fbaf34"/><polygon points="36.03 33.61 34.5 36.29 31.99 32.18 36.03 33.61 36.03 33.61" style="fill:#46c3d3"/><path d="M33.18,38a5.88,5.88,0,0,0,.11-.94,4.78,4.78,0,0,0-2.09-4L30.75,36,33.18,38Z" style="fill:#caeaee"/><polyline points="19.38 28.32 17.91 31.71 22.33 34.24 25.16 31.74" style="fill:#caeaee"/><polygon points="11.37 16.28 11.27 13.8 6.37 13.8 9.4 17.91 11.37 16.28 11.37 16.28" style="fill:#2d3481"/><polygon points="3.23 19.01 7.57 19.38 8.46 18.65 6.24 15.37 3.23 19.01 3.23 19.01" style="fill:#fbaf34"/><polygon points="8.93 24.89 11.4 20.63 11.33 17.74 9.07 19.63 8.64 24.46 8.93 24.89 8.93 24.89" style="fill:#caeaee"/><polygon points="29.78 35.37 30.28 32.63 26.13 32.17 23.89 34.4 29.78 35.37 29.78 35.37" style="fill:#be3526"/><polygon points="33.33 13.83 35.08 17.21 37.27 17.24 38.34 13.84 33.33 13.83 33.33 13.83" style="fill:#fbaf34"/><path d="M29.91,20.45,34,20.5l.71-2.29L33.6,16.39a4.07,4.07,0,0,0-3.69,4.05Z" style="fill:#be3526"/><path d="M27.21,14.44l.19,1.14,3.54.93a3.67,3.67,0,0,1,.61-.42,4.69,4.69,0,0,1,1.6-.58l-2.28-4.09s-1.78,1.44-3.66,3Z" style="fill:#2d3481"/><path d="M43.28,17.79v.47" style="fill:#231f20"/><path d="M57.56,9.08H59.1l2.67,7.11,2.68-7.11H66v8.46H64.93v-7h0l-2.64,7h-1l-2.65-7h0v7H57.56Z" style="fill:#231f20"/><path d="M75.16,14.48c0,2.17-1.2,3.25-3.34,3.25s-3.47-1-3.47-3.25V9.08h1.13v5.4a2.09,2.09,0,0,0,2.34,2.32A2,2,0,0,0,74,14.48V9.08h1.13Z" style="fill:#231f20"/><path d="M82.39,11.56a1.83,1.83,0,0,0-2.1-1.73c-1,0-1.9.34-1.9,1.44,0,2.1,5.42.61,5.42,4,0,1.81-1.77,2.51-3.31,2.51-1.89,0-3.49-.92-3.49-3h1.06c0,1.42,1.19,2,2.47,2,1,0,2.14-.32,2.14-1.54,0-2.34-5.41-.79-5.41-3.91,0-1.7,1.51-2.47,3.07-2.47,1.73,0,3.06.82,3.11,2.68Z" style="fill:#231f20"/><path d="M85.71,9.08h5.84V10H86.83v2.69h4.4v.95h-4.4V16.6h4.76v.94H85.71Z" style="fill:#231f20"/><path d="M100.24,14.48c0,2.17-1.2,3.25-3.33,3.25s-3.47-1-3.47-3.25V9.08h1.12v5.4a2.09,2.09,0,0,0,2.35,2.32,2,2,0,0,0,2.21-2.32V9.08h1.12Z" style="fill:#231f20"/><path d="M102.6,9.08h1.54l2.67,7.11,2.68-7.11H111v8.46H110v-7h0l-2.65,7h-1l-2.64-7h0v7H102.6Z" style="fill:#231f20"/><path d="M120.84,8.88c2.7,0,4.06,2.12,4.06,4.43s-1.36,4.42-4.06,4.42-4-2.09-4-4.42S118.15,8.88,120.84,8.88Zm0,7.92c2.07,0,2.93-1.78,2.93-3.49s-.86-3.48-2.93-3.48-2.92,1.77-2.92,3.48S118.78,16.8,120.84,16.8Z" style="fill:#231f20"/><path d="M126.81,9.08h5.56V10h-4.44v2.69h3.89v.95h-3.89v3.87h-1.12Z" style="fill:#231f20"/><path d="M139.9,10h-2.83V9.08h6.77V10H141v7.51H139.9Z" style="fill:#231f20"/><path d="M145.31,9.08h1.13v3.64h4.46V9.08H152v8.46H150.9V13.67h-4.46v3.87h-1.13Z" style="fill:#231f20"/><path d="M154.41,9.08h5.84V10h-4.72v2.69h4.4v.95h-4.4V16.6h4.76v.94h-5.88Z" style="fill:#231f20"/><path d="M61.84,29.66a2.18,2.18,0,0,1-2.5,2.3,2.2,2.2,0,0,1-2.46-2.45V29H58v.36c0,1,.26,1.68,1.37,1.68s1.35-.59,1.35-1.53V23.3h1.12Z" style="fill:#231f20"/><path d="M64.23,23.3h5.84v.95H65.35v2.69h4.4v.95h-4.4v2.93h4.76v.95H64.23Z" style="fill:#231f20"/><path d="M79.65,31.77H78.48l-1.94-7.11h0l-2,7.11H73.39L71.22,23.3h1.15L74,30.35h0l1.9-7h1.22l1.88,7.05h0l1.72-7h1.12Z" style="fill:#231f20"/><path d="M83.56,23.3h1.13v8.47H83.56Z" style="fill:#231f20"/><path d="M92,25.78a1.84,1.84,0,0,0-2.1-1.73c-1,0-1.89.34-1.89,1.45,0,2.1,5.42.6,5.42,3.95,0,1.81-1.77,2.51-3.31,2.51-1.9,0-3.5-.93-3.5-3H87.7c0,1.43,1.18,2,2.46,2,1,0,2.15-.32,2.15-1.54,0-2.33-5.42-.78-5.42-3.9,0-1.71,1.52-2.48,3.07-2.48,1.73,0,3.06.82,3.12,2.68Z" style="fill:#231f20"/><path d="M95.33,23.3h1.13v3.64h4.46V23.3H102v8.47h-1.12V27.89H96.46v3.88H95.33Z" style="fill:#231f20"/><path d="M108.26,23.3H112a2.3,2.3,0,0,1,2.59,2.51,2.3,2.3,0,0,1-2.59,2.5h-2.59v3.46h-1.12Zm1.12,4.06h2.21c1.28,0,1.85-.55,1.85-1.55s-.57-1.56-1.85-1.56h-2.21Z" style="fill:#231f20"/><path d="M116.47,23.3h5.85v.95H117.6v2.69H122v.95h-4.4v2.93h4.75v.95h-5.88Z" style="fill:#231f20"/><path d="M127.83,23.1c2.69,0,4,2.12,4,4.44s-1.36,4.42-4,4.42-4.06-2.1-4.06-4.42S125.14,23.1,127.83,23.1Zm0,7.92c2.06,0,2.93-1.78,2.93-3.48s-.87-3.49-2.93-3.49-2.93,1.78-2.93,3.49S125.76,31,127.83,31Z" style="fill:#231f20"/><path d="M133.79,23.3h3.71a2.31,2.31,0,0,1,2.6,2.51,2.3,2.3,0,0,1-2.6,2.5h-2.58v3.46h-1.13Zm1.13,4.06h2.2c1.28,0,1.85-.55,1.85-1.55s-.57-1.56-1.85-1.56h-2.2Z" style="fill:#231f20"/><path d="M142,23.3h1.12v7.52h4.48v.95H142Z" style="fill:#231f20"/><path d="M149.13,23.3H155v.95h-4.72v2.69h4.4v.95h-4.4v2.93H155v.95h-5.88Z" style="fill:#231f20"/><path d="M59.84,37.53h1.24L64.39,46H63.15l-.93-2.55H58.64l-1,2.55H56.54Zm-.84,5h2.87l-1.41-4h0Z" style="fill:#231f20"/><path d="M66.59,38.48H63.76v-.95h6.77v.95H67.71V46H66.59Z" style="fill:#231f20"/><path d="M75.83,37.53H78.9a5,5,0,0,1,2.24.31,2,2,0,0,1,1,1.77,1.91,1.91,0,0,1-1.26,1.89v0a1.93,1.93,0,0,1,1.61,2A2.42,2.42,0,0,1,79.92,46H75.83ZM77,41.17h2.25c1.28,0,1.8-.45,1.8-1.35,0-1.19-.82-1.34-1.8-1.34H77Zm0,3.88h2.82a1.43,1.43,0,0,0,1.59-1.52c0-1.1-.89-1.41-1.84-1.41H77Z" style="fill:#231f20"/><path d="M84.49,37.53h5.84v.95H85.61v2.69H90v.95h-4.4v2.93h4.76v1H84.49Z" style="fill:#231f20"/><path d="M92.31,37.53h1.13V46H92.31Z" style="fill:#231f20"/><path d="M97.79,38.48H95v-.95h6.76v.95H98.91V46H97.79Z" style="fill:#231f20"/><path d="M107,37.53h1.13v3.64h4.46V37.53h1.12V46h-1.12V42.12h-4.46V46H107Z" style="fill:#231f20"/><path d="M118.43,37.53h1.24L123,46h-1.25l-.92-2.55h-3.58l-1,2.55h-1.15Zm-.85,5h2.87l-1.41-4h0Z" style="fill:#231f20"/><path d="M125.17,38.48h-2.82v-.95h6.77v.95H126.3V46h-1.13Z" style="fill:#231f20"/><path d="M130.59,37.53h5.56v.95h-4.43v2.69h3.88v.95h-3.88V46h-1.13Z" style="fill:#231f20"/><path d="M144.69,42.94c0,2.17-1.2,3.25-3.34,3.25s-3.47-1-3.47-3.25V37.53H139v5.41a2.08,2.08,0,0,0,2.34,2.31,2,2,0,0,0,2.21-2.31V37.53h1.13Z" style="fill:#231f20"/><path d="M148.94,38.48h-2.82v-.95h6.77v.95h-2.82V46h-1.13Z" style="fill:#231f20"/><path d="M159.25,40a1.83,1.83,0,0,0-2.09-1.73c-1,0-1.9.34-1.9,1.44,0,2.1,5.42.61,5.42,4,0,1.82-1.77,2.52-3.31,2.52-1.9,0-3.5-.93-3.5-3h1.07c0,1.42,1.18,2,2.47,2,1,0,2.14-.32,2.14-1.54,0-2.34-5.42-.79-5.42-3.9,0-1.71,1.52-2.48,3.07-2.48,1.73,0,3.06.82,3.12,2.68Z" style="fill:#231f20"/><path d="M166.15,37.33c2.7,0,4.06,2.12,4.06,4.43s-1.36,4.43-4.06,4.43-4.05-2.1-4.05-4.43S163.46,37.33,166.15,37.33Zm0,7.92c2.07,0,2.93-1.78,2.93-3.49s-.86-3.48-2.93-3.48-2.92,1.78-2.92,3.48S164.09,45.25,166.15,45.25Z" style="fill:#231f20"/><path d="M174,38.48h-2.82v-.95H178v.95h-2.83V46H174Z" style="fill:#231f20"/></g></g></symbol><symbol viewBox="0 0 171.88 55.96" id="shape-logo-he"><g id="logo-he-Layer_2" data-name="Layer 2"><g id="logo-he-Layer_1-2" data-name="Layer 1"><path d="M147.56,56l-2.48-4.27a4.94,4.94,0,0,1,4.9,0L147.56,56" style="fill:#fcb034"/><path d="M125.61,18.05l-2.45-4.24h4.93a4.9,4.9,0,0,1-2.48,4.24" style="fill:#46c3d3"/><polyline points="132.88 42.35 128.97 42.35 129.54 39.15 132.32 38.4 132.88 42.35" style="fill:#bf311a"/><polyline points="130.5 26.49 126.85 20.18 131.06 20.57 130.5 26.49" style="fill:#bf311a"/><polyline points="123.19 42.35 125.46 38.41 128.26 39.27 127.72 42.35 123.19 42.35" style="fill:#fcb034"/><path d="M144.33,5.3l3-5.3c1.56,2.66,2.37,4.15,2.37,4.15l-5.4,1.15" style="fill:#bf311a"/><polyline points="130.43 33.39 128.84 32.5 131.31 28.18 132.06 29.4 130.43 33.39" style="fill:#232f84"/><polyline points="166.72 22.35 164.13 21.8 165.51 17.45 169.06 18.26 166.72 22.35" style="fill:#232f84"/><polyline points="142.83 47.78 141.73 45.88 144.72 43.59 146.86 47.11 142.83 47.78" style="fill:#bf311a"/><path d="M141.26,45.05l-1.52-2.62h4.88l-3.36,2.62" style="fill:#fcb034"/><polyline points="163.61 27.65 161.44 23.95 163.71 22.75 166.12 23.28 163.61 27.65" style="fill:#bf311a"/><polyline points="150.69 50.43 148.8 49.65 148.1 46.68 152.51 47.22 150.69 50.43" style="fill:#46c3d3"/><polyline points="171.88 42.37 167.98 42.37 169.35 38 171.88 42.37" style="fill:#bf311a"/><polyline points="141.34 10.64 143.55 6.73 147.27 5.93 145.2 10.55 141.34 10.64" style="fill:#46c3d3"/><path d="M165.76,37.6c-2.1-2.19-3.52-3.7-3.52-3.7l4.76.15,1.78,3.05-3,.5" style="fill:#46c3d3"/><polyline points="151.47 11.94 147.66 8.39 148.86 5.77 150.57 5.42 153.38 10.31 151.47 11.94" style="fill:#fcb034"/><polyline points="164.28 17.3 161.45 17.25 162.51 13.84 165.39 13.84 164.28 17.3" style="fill:#bf311a"/><polyline points="163.09 39.98 161.48 39.56 161.78 35 165.33 38.76 163.09 39.98" style="fill:#cbeaee"/><polyline points="140.06 31.14 136.63 29.27 139.23 25.1 141.89 26.89 140.06 31.14" style="fill:#46c3d3"/><path d="M141.89,39.16l-2.25-2.78c1.16-.75,3.55-2.12,3.55-2.12l1.91,1.18-3.21,3.72" style="fill:#46c3d3"/><path d="M138.23,36l.59-4.34c.48.24,3.4,1.93,3.4,1.93l-4,2.41" style="fill:#fcb034"/><polyline points="133.74 29.88 132 26.94 134.79 22.14 136.72 27.3 133.74 29.88" style="fill:#bf311a"/><polyline points="144.38 23.29 141.89 20.82 145.77 18.14 146.76 22.54 144.38 23.29" style="fill:#cbeaee"/><polyline points="150.63 22.73 147.56 20.66 146.34 15.57 149.22 14.9 150.63 22.73" style="fill:#46c3d3"/><polyline points="153.09 25.91 151.44 21.43 156.69 21.5 153.09 25.91" style="fill:#cbeaee"/><polyline points="160.41 39.58 157.53 38.56 160.19 33.87 160.41 39.58" style="fill:#232f84"/><polyline points="162.91 28.7 159.17 28.18 160.52 24.55 162.91 28.7" style="fill:#fcb034"/><polyline points="159.63 32.67 156.35 31.5 154.72 28.2 161.26 29.79 159.63 32.67" style="fill:#cbeaee"/><polyline points="137.41 26 135.93 21.96 138.38 18.83 140.49 20.95 137.41 26" style="fill:#232f84"/><polyline points="135.54 20.59 135.36 13.81 136.74 13.81 138.64 16.57 135.54 20.59" style="fill:#46c3d3"/><polyline points="138.48 42.35 133.87 42.35 133.38 39.04 138.48 42.35" style="fill:#46c3d3"/><polyline points="140.02 16.53 138.61 15.35 140.66 11.8 143.75 11.77 140.02 16.53" style="fill:#bf311a"/><polyline points="135.86 39.26 133.57 37.79 134.73 33.89 137.51 35.56 135.86 39.26" style="fill:#bf311a"/><polyline points="129.75 37.82 132.7 30.51 133.97 32.73 132.69 37.02 129.75 37.82" style="fill:#cbeaee"/><path d="M144.35,50.41l-.95-1.65,3.78-.62s.17.78.36,1.54l-3.19.73" style="fill:#46c3d3"/><path d="M148,45.81l-2.09-2.12a5.82,5.82,0,0,0,1.29-2.41l3,.11A5.58,5.58,0,0,1,148,45.81" style="fill:#cbeaee"/><polyline points="166.81 42.37 164.63 42.37 163.88 40.94 167.74 38.53 166.81 42.37" style="fill:#fcb034"/><path d="M166.44,33,161,32.75c.16-.37,1.36-2.42,1.36-2.42l2.19-.65L166.44,33" style="fill:#bf311a"/><polyline points="163.37 42.37 156.27 42.35 158.08 39.8 162.63 40.96 163.37 42.37" style="fill:#46c3d3"/><polyline points="155.22 42.52 150.79 40.84 153.35 36.9 156.8 39.84 155.22 42.52" style="fill:#bf311a"/><polyline points="147.72 40.31 146.86 35.42 152.04 36.29 150.62 38.91 147.72 40.31" style="fill:#fcb034"/><path d="M145.39,41.81l-3-1.69,3-3.44A3.42,3.42,0,0,1,146.48,39V39a3.63,3.63,0,0,1-1.09,2.78" style="fill:#bf311a"/><polyline points="128.63 38.11 126.09 37.35 128.29 33.51 130.12 34.52 128.63 38.11" style="fill:#46c3d3"/><path d="M153.07,46.28l-3-.41a5.81,5.81,0,0,0,1.48-3.68l3.16,1.19s-1.57,2.79-1.63,2.9" style="fill:#232f84"/><polyline points="142.33 41.35 139.06 41.34 136.78 39.85 138.69 36.9 142.33 41.35" style="fill:#232f84"/><path d="M137.43,34.24a3.07,3.07,0,0,1-2.21-4.53l.7.38,2,1.09-.45,3.06" style="fill:#232f84"/><polyline points="162.76 22.44 161.4 22.15 159.28 18.43 164.09 18.49 162.76 22.44" style="fill:#cbeaee"/><polyline points="150.13 27.53 145.57 24.4 148.39 22.64 151.53 24.75 152.09 26.5 150.13 27.53" style="fill:#232f84"/><polyline points="146.44 29.66 143.1 27.45 145.91 25.93 149.25 28.09 146.44 29.66" style="fill:#46c3d3"/><path d="M152.34,31.63h-.26a4.9,4.9,0,0,1-3.58-1.83l4.17-2.31,1.81,3.65a5,5,0,0,1-2.14.5" style="fill:#fcb034"/><polyline points="145.52 14.56 144.21 13.38 147.14 9.5 150.45 12.66 149.22 13.73 145.52 14.56" style="fill:#cbeaee"/><path d="M157.92,27.88l-4.34-1.06,3.22-3.35a4.07,4.07,0,0,1,1.12,4.41" style="fill:#232f84"/><path d="M158.9,25a4.21,4.21,0,0,0-.46-1.1,4.86,4.86,0,0,0-1-1.18l1.09-3.42,2.06,3.54L158.9,25" style="fill:#46c3d3"/><path d="M152.05,20.27h-.9l-.65-3.7,2.62.7a4.77,4.77,0,0,0-1.07,3" style="fill:#46c3d3"/><polyline points="169.67 17.17 165.94 16.31 166.69 13.85 171.58 13.85 169.67 17.17" style="fill:#46c3d3"/><polyline points="142.92 26.28 139.89 24.25 141.37 21.76 144.89 25.17 142.92 26.28" style="fill:#bf311a"/><polyline points="141.24 20.02 139.74 18.64 143.21 14.08 145.28 16.05 145.47 17.07 141.24 20.02" style="fill:#fcb034"/><polyline points="157.66 36.3 155.15 32.18 159.19 33.61 157.66 36.3" style="fill:#46c3d3"/><path d="M156.34,38,153.91,36l.45-2.86a4.8,4.8,0,0,1,2.09,4,4.17,4.17,0,0,1-.11.94" style="fill:#cbeaee"/><polyline points="145.5 34.24 141.07 31.72 142.54 28.32 148.32 31.74 145.5 34.24" style="fill:#cbeaee"/><polyline points="132.56 17.91 129.54 13.81 134.43 13.81 134.53 16.29 132.56 17.91" style="fill:#232f84"/><polyline points="130.74 19.38 126.39 19.01 129.39 15.36 131.62 18.65 130.74 19.38" style="fill:#fcb034"/><polyline points="132.09 24.9 131.8 24.45 132.23 19.63 134.49 17.74 134.56 20.64 132.09 24.9" style="fill:#cbeaee"/><polyline points="152.95 35.37 147.06 34.4 149.29 32.17 153.44 32.63 152.95 35.37" style="fill:#bf311a"/><polyline points="160.43 17.24 158.24 17.21 156.48 13.83 161.5 13.84 160.43 17.24" style="fill:#fcb034"/><path d="M157.13,20.5l-4.06-.05h0a4.07,4.07,0,0,1,3.69-4.05l1.08,1.82-.71,2.29" style="fill:#bf311a"/><path d="M154.1,16.51l-3.54-.93-.19-1.14c1.88-1.58,3.66-3,3.66-3l2.29,4.09a4.66,4.66,0,0,0-1.61.58,3.67,3.67,0,0,0-.61.42" style="fill:#232f84"/><path d="M1.27,20,0,20.42v-5.5H1.27Z" style="fill:#231f20"/><path d="M9.82,15.91H8.52v8.27H7.25V15.91H2.88v-1H9.82Z" style="fill:#231f20"/><path d="M12.86,24.18H11.59V14.92h1.27Z" style="fill:#231f20"/><path d="M23,24.18H21.73V18.41c0-1.8-1.06-2.7-3.17-2.7a15.75,15.75,0,0,0-3.32.34V15a20.15,20.15,0,0,1,3.35-.23c2.94,0,4.41,1.2,4.41,3.58Zm-6.21,0H15.52V19l1.27-.36Z" style="fill:#231f20"/><path d="M26.6,20l-1.27.44v-5.5H26.6Z" style="fill:#231f20"/><path d="M36.65,24.18H35.38V18.41c0-1.8-1.06-2.7-3.17-2.7a15.75,15.75,0,0,0-3.32.34V15a20.15,20.15,0,0,1,3.35-.23c2.94,0,4.41,1.2,4.41,3.58Zm-6.21,0H29.17V19l1.27-.36Z" style="fill:#231f20"/><path d="M51.79,24.18H43.64V14.92h4.74a3.36,3.36,0,0,1,2.44.95,3.28,3.28,0,0,1,1,2.42Zm-1.27-1V18.43a2.48,2.48,0,0,0-.69-1.88,2.64,2.64,0,0,0-1.91-.66h-3v7.3Z" style="fill:#231f20"/><path d="M61.26,17.76a6.85,6.85,0,0,1-1.06,4.13,8.13,8.13,0,0,1-3.56,2.34l-2.79,1.06V24.13l2.28-.81Q54.8,19,53.39,14.92h1.48c.57,1.86,1.34,4.52,2.33,8A4.51,4.51,0,0,0,59.39,21,5.81,5.81,0,0,0,60,18.2V14.92h1.27Z" style="fill:#231f20"/><path d="M71.31,24.18H70V18.41c0-1.8-1.06-2.7-3.17-2.7a15.75,15.75,0,0,0-3.32.34V15a20.15,20.15,0,0,1,3.35-.23c2.94,0,4.41,1.2,4.41,3.58Zm-6.21,0H63.83V19l1.27-.36Z" style="fill:#231f20"/><path d="M79.57,27.46H78.3V14.92h1.27Z" style="fill:#231f20"/><path d="M83.31,24.18H82V14.92h1.27Z" style="fill:#231f20"/><path d="M93.75,24.18H92.34q-1.22-1.93-3.86-5.36a2.51,2.51,0,0,0-1,1.08,3.08,3.08,0,0,0-.4,1.48v2.8H85.78V21.6a3.68,3.68,0,0,1,.65-2A3.26,3.26,0,0,1,88,18.2c-.27-.38-.67-.87-1.18-1.5l-1.49-1.78h1.49c.7.85,1.91,2.38,3.61,4.6a1.89,1.89,0,0,0,1-.81,2.1,2.1,0,0,0,.47-1.25V14.92H93.2v2a3.52,3.52,0,0,1-2.29,3.3C92.11,21.79,93.05,23.11,93.75,24.18Z" style="fill:#231f20"/><path d="M96.92,20l-1.27.44v-5.5h1.27Z" style="fill:#231f20"/><path d="M103.15,15.91h-1a1.89,1.89,0,0,0-.78,1,3.38,3.38,0,0,0-.28,1.29v5.94H99.85V19.07a3.71,3.71,0,0,1,1.57-3.16l-2.77,0v-1h4.5Z" style="fill:#231f20"/><path d="M106.22,24.18H105V14.92h1.27Z" style="fill:#231f20"/><path d="M117.77,19.15a6.74,6.74,0,0,1-.83,3.55,3.29,3.29,0,0,1-3,1.69,4.65,4.65,0,0,1-1.64-.23v-1a4.69,4.69,0,0,0,1.59.23q2.56,0,2.57-4.15a4.51,4.51,0,0,0-.55-2.17,2.24,2.24,0,0,0-2-1.34c-1,0-1.8.64-2.47,1.91a8.51,8.51,0,0,0-1,3l-.48,3.53h-1.29c.18-1.09.36-2.3.53-3.62a12.52,12.52,0,0,0,.13-1.62,9.4,9.4,0,0,0-.45-2.19q-.14-.53-.51-1.83h1.38c.18.71.41,1.74.7,3.1A5.64,5.64,0,0,1,112,15.29a3.13,3.13,0,0,1,1.94-.55,3.39,3.39,0,0,1,2.8,1.36A4.77,4.77,0,0,1,117.77,19.15Z" style="fill:#231f20"/><path d="M32.4,41.64H31.15v-5.8A2.35,2.35,0,0,0,30.44,34a2.78,2.78,0,0,0-1.92-.63H26.1V40a1.7,1.7,0,0,1-.6,1.41,2.41,2.41,0,0,1-1.56.49,2.37,2.37,0,0,1-1.2-.26v-1a2.28,2.28,0,0,0,.91.28,1.05,1.05,0,0,0,1.18-1.2V33.37H23v-1h6a3.48,3.48,0,0,1,2.5.85,3.23,3.23,0,0,1,.9,2.46Z" style="fill:#231f20"/><path d="M36.07,41.64H34.8V32.38h1.27Z" style="fill:#231f20"/><path d="M45.49,41.64H38.27v-1l5.74,0q-.88-1.16-2.75-3.81c-1.47-2.08-2.54-3.58-3.2-4.48h1.52q1,1.4,3.26,4.62a2.85,2.85,0,0,0,1.38-2.29V32.38h1.27v1.9a3.33,3.33,0,0,1-.58,2,5.46,5.46,0,0,1-1.59,1.35l2.17,3.25Z" style="fill:#231f20"/><path d="M48.93,41.64H47.66V32.38h1.27Z" style="fill:#231f20"/><path d="M59.26,37a4.75,4.75,0,0,1-1.36,3.59,5,5,0,0,1-3.66,1.31,8.34,8.34,0,0,1-2.77-.44V40.4a8.19,8.19,0,0,0,2.56.53q3.88,0,3.89-3.93t-3.24-3.92a3.08,3.08,0,0,0-1.76.46,1.79,1.79,0,0,0-.78,1.59,1.36,1.36,0,0,0,.55,1.17,2.08,2.08,0,0,0,1.32.42,1.87,1.87,0,0,0,.4,0v1a4.4,4.4,0,0,1-.63.08c-1.94,0-2.91-.85-2.91-2.53a2.69,2.69,0,0,1,1.25-2.4,5,5,0,0,1,2.73-.67,4.14,4.14,0,0,1,3.37,1.36A5.35,5.35,0,0,1,59.26,37Z" style="fill:#231f20"/><path d="M70.32,41.64H69.07v-5.8a2.35,2.35,0,0,0-.7-1.84,2.8,2.8,0,0,0-1.93-.63H64V40a1.7,1.7,0,0,1-.61,1.41,2.41,2.41,0,0,1-1.56.49,2.37,2.37,0,0,1-1.2-.26v-1a2.28,2.28,0,0,0,.91.28,1.06,1.06,0,0,0,1.19-1.2V33.37H60.89v-1h6a3.46,3.46,0,0,1,2.5.85,3.23,3.23,0,0,1,.9,2.46Z" style="fill:#231f20"/><path d="M80.4,41.64H79.13V35.87q0-2.7-3.18-2.7a15.18,15.18,0,0,0-3.32.34V32.43A20.19,20.19,0,0,1,76,32.2c2.94,0,4.41,1.2,4.41,3.58Zm-6.21,0H72.92v-5.2l1.27-.36Z" style="fill:#231f20"/><path d="M96.41,41.64H95.16v-5.8A2.35,2.35,0,0,0,94.45,34a2.78,2.78,0,0,0-1.92-.63H90.11V40a1.7,1.7,0,0,1-.6,1.41,2.41,2.41,0,0,1-1.56.49,2.37,2.37,0,0,1-1.2-.26v-1a2.28,2.28,0,0,0,.91.28,1.06,1.06,0,0,0,1.19-1.2V33.37H87v-1h6a3.48,3.48,0,0,1,2.5.85,3.23,3.23,0,0,1,.9,2.46Z" style="fill:#231f20"/><path d="M100,37.44l-1.27.44v-5.5H100Z" style="fill:#231f20"/><path d="M109.43,41.64h-7.71v-1H107v-5a2.22,2.22,0,0,0-.85-1.82,3,3,0,0,0-1.94-.67,8.2,8.2,0,0,0-2.29.32v-1a10.33,10.33,0,0,1,2.28-.23A4.61,4.61,0,0,1,107,33a3.1,3.1,0,0,1,1.22,2.63v5h1.2Z" style="fill:#231f20"/><path d="M118.14,41.64h-7.71v-1h5.24v-5a2.24,2.24,0,0,0-.84-1.82,3.08,3.08,0,0,0-1.94-.67,8.27,8.27,0,0,0-2.3.32v-1a10.33,10.33,0,0,1,2.28-.23,4.64,4.64,0,0,1,2.86.83,3.09,3.09,0,0,1,1.21,2.63v5h1.2Z" style="fill:#231f20"/></g></g></symbol><symbol viewBox="0 0 27.83 26.81" id="shape-mobile-menu-en"><g id="mobile-menu-en-Layer_2" data-name="Layer 2"><g id="mobile-menu-en-Open"><use width="67" height="64.55" transform="scale(0.42)" xlink:href="#mobile-menu-en-mobile-menu-en"/></g></g></symbol><symbol viewBox="0 0 28.33 27.02" id="shape-mobile-menu-he"><g id="mobile-menu-he-Layer_2" data-name="Layer 2"><g id="mobile-menu-he-Open"><use width="68" height="64.42" transform="scale(0.42 0.42)" xlink:href="#mobile-menu-he-mobile-menu-he"/></g></g></symbol><symbol viewBox="0 0 455.731 455.731" id="shape-rss"><g><rect x="0" y="0" style="fill:#F78422;" width="455.731" height="455.731"/><g><path style="fill:#FFFFFF;" d="M296.208,159.16C234.445,97.397,152.266,63.382,64.81,63.382v64.348c70.268,0,136.288,27.321,185.898,76.931c49.609,49.61,76.931,115.63,76.931,185.898h64.348C391.986,303.103,357.971,220.923,296.208,159.16z"/><path style="fill:#FFFFFF;" d="M64.143,172.273v64.348c84.881,0,153.938,69.056,153.938,153.939h64.348C282.429,270.196,184.507,172.273,64.143,172.273z"/><circle style="fill:#FFFFFF;" cx="109.833" cy="346.26" r="46.088"/></g></g></symbol></svg>